<svg xmlns="http://www.w3.org/2000/svg" xmlns:xlink="http://www.w3.org/1999/xlink" width="500" zoomAndPan="magnify" viewBox="0 0 375 374.999991" height="500" preserveAspectRatio="xMidYMid meet" version="1.2"><g id="7af5508608"><rect x="0" width="375" y="0" height="374.999991" style="fill:#ffffff;fill-opacity:1;stroke:none;"/><rect x="0" width="375" y="0" height="374.999991" style="fill:#ffffff;fill-opacity:1;stroke:none;"/><path style=" stroke:none;fill-rule:evenodd;fill:#9aa7b0;fill-opacity:0.8;" d="M 152.945312 58.253906 L 79.003906 132.195312 L 152.945312 132.195312 Z M 152.945312 58.253906 "/><path style=" stroke:none;fill-rule:evenodd;fill:#9aa7b0;fill-opacity:0.8;" d="M 171.433594 317.046875 L 171.433594 304.050781 C 171.433594 304.050781 153.871094 301.355469 144.625 286.992188 C 135.378906 272.628906 133.253906 251.167969 138.125 233.648438 C 142.574219 212.746094 160.824219 197.65625 182.191406 197.21875 L 182.191406 193.265625 C 181.457031 182.757812 185.0625 172.414062 192.164062 164.640625 C 199.269531 156.863281 208.570312 150.898438 219.101562 150.679688 C 227.183594 149.316406 236.039062 150.074219 244.234375 150.066406 C 253.0625 150.019531 263.859375 152.105469 263.859375 152.105469 L 263.859375 58.253906 L 171.433594 58.253906 L 171.433594 150.679688 L 79.003906 150.679688 L 79.003906 317.046875 Z M 171.433594 317.046875 "/><path style=" stroke:none;fill-rule:evenodd;fill:#40a0cf;fill-opacity:0.9;" d="M 216.601562 168.554688 C 223 167.472656 229.480469 166.925781 235.96875 166.917969 C 243.042969 166.878906 250.105469 167.425781 257.085938 168.554688 C 268.027344 169.613281 276.597656 178.429688 277.351562 189.394531 L 277.351562 227.570312 C 277.371094 232.960938 275.246094 238.136719 271.441406 241.957031 C 267.640625 245.777344 262.476562 247.929688 257.085938 247.941406 L 216.601562 247.941406 C 202.839844 248.097656 191.660156 259.09375 191.277344 272.84375 L 191.277344 291.164062 L 177.34375 291.164062 C 166.101562 290.703125 156.910156 282.035156 155.800781 270.835938 C 151.996094 257.523438 151.996094 243.40625 155.800781 230.09375 C 158.1875 218.066406 168.867188 209.496094 181.121094 209.765625 L 236.867188 209.765625 L 236.867188 204.671875 L 196.335938 204.671875 L 196.335938 189.394531 C 196.335938 177.824219 199.449219 171.550781 216.601562 168.554688 Z M 221.128906 183.894531 C 219.9375 181.042969 217.140625 179.195312 214.050781 179.207031 C 209.835938 179.230469 206.433594 182.65625 206.441406 186.871094 C 206.453125 189.960938 208.324219 192.742188 211.183594 193.914062 C 214.042969 195.089844 217.328125 194.421875 219.503906 192.230469 C 221.683594 190.035156 222.324219 186.746094 221.128906 183.894531 Z M 221.128906 183.894531 "/><path style=" stroke:none;fill-rule:evenodd;fill:#ffc900;fill-opacity:0.9;" d="M 282.410156 227.570312 L 282.410156 209.765625 L 297.621094 209.765625 C 308.542969 210.441406 317.242188 219.167969 317.886719 230.09375 C 322.046875 243.355469 322.046875 257.574219 317.886719 270.835938 C 313.789062 283.035156 309.402344 291.164062 297.621094 291.164062 L 236.867188 291.164062 L 236.867188 296.257812 L 277.355469 296.257812 L 277.355469 311.535156 C 276.148438 322.207031 267.753906 330.644531 257.085938 331.90625 C 243.898438 335.984375 229.789062 335.984375 216.601562 331.90625 C 205.992188 330.527344 197.660156 322.152344 196.335938 311.535156 L 196.335938 273.359375 C 196.4375 262.191406 205.433594 253.148438 216.601562 252.988281 L 257.085938 252.988281 C 270.988281 252.703125 282.179688 241.472656 282.410156 227.570312 Z M 266.722656 311.140625 C 265.53125 308.285156 262.734375 306.429688 259.636719 306.441406 L 259.636719 306.445312 C 257.621094 306.445312 255.683594 307.246094 254.257812 308.675781 C 252.832031 310.105469 252.03125 312.042969 252.035156 314.058594 C 252.023438 317.152344 253.882812 319.949219 256.738281 321.136719 C 259.597656 322.324219 262.890625 321.671875 265.078125 319.480469 C 267.265625 317.289062 267.914062 313.996094 266.722656 311.140625 Z M 266.722656 311.140625 "/></g></svg>