<svg xmlns="http://www.w3.org/2000/svg" xmlns:xlink="http://www.w3.org/1999/xlink" width="500" zoomAndPan="magnify" viewBox="0 0 375 374.999991" height="500" preserveAspectRatio="xMidYMid meet" version="1.2"><defs><clipPath id="dad2a47061"><path d="M 25.464844 61.3125 L 349.464844 61.3125 L 349.464844 313.3125 L 25.464844 313.3125 Z M 25.464844 61.3125 "/></clipPath><clipPath id="373b8a1ab8"><path d="M 41 61.3125 L 312 61.3125 L 312 298 L 41 298 Z M 41 61.3125 "/></clipPath></defs><g id="45df63fdbb"><rect x="0" width="375" y="0" height="374.999991" style="fill:#ffffff;fill-opacity:1;stroke:none;"/><rect x="0" width="375" y="0" height="374.999991" style="fill:#ffffff;fill-opacity:1;stroke:none;"/><g clip-rule="nonzero" clip-path="url(#dad2a47061)"><path style=" stroke:none;fill-rule:evenodd;fill:#139190;fill-opacity:1;" d="M 41.265625 297.722656 L 341.480469 297.722656 C 345.796875 297.722656 349.304688 301.226562 349.304688 305.535156 C 349.304688 309.847656 345.796875 313.351562 341.480469 313.351562 L 33.445312 313.351562 C 29.121094 313.351562 25.621094 309.855469 25.621094 305.535156 L 25.621094 69.152344 C 25.621094 64.84375 29.128906 61.339844 33.445312 61.339844 C 37.761719 61.339844 41.265625 64.84375 41.265625 69.152344 Z M 41.265625 297.722656 "/></g><g clip-rule="nonzero" clip-path="url(#373b8a1ab8)"><path style=" stroke:none;fill-rule:evenodd;fill:#183b6b;fill-opacity:1;" d="M 41.265625 243.347656 L 56.332031 243.347656 L 56.332031 208.46875 L 70.648438 208.46875 L 70.648438 140.410156 L 102.144531 140.410156 L 102.144531 113.535156 L 172.570312 113.535156 L 172.570312 82.648438 L 231.546875 82.648438 L 231.546875 61.339844 L 311.375 61.339844 L 311.375 297.722656 L 41.265625 297.722656 Z M 160.695312 215.753906 C 160.695312 212.804688 163.089844 210.410156 166.042969 210.410156 L 193.925781 210.410156 C 196.878906 210.410156 199.273438 212.804688 199.273438 215.753906 L 199.273438 275.921875 C 199.273438 278.871094 196.878906 281.269531 193.925781 281.269531 C 190.96875 281.269531 188.566406 278.871094 188.566406 275.921875 L 188.566406 251.1875 L 171.394531 251.1875 L 171.394531 275.921875 C 171.394531 278.871094 169 281.269531 166.042969 281.269531 C 163.089844 281.269531 160.695312 278.871094 160.695312 275.921875 Z M 289.03125 210.410156 C 291.984375 210.410156 294.382812 212.804688 294.382812 215.753906 C 294.382812 218.703125 291.984375 221.105469 289.03125 221.105469 C 289.03125 221.105469 266.507812 221.105469 266.507812 221.105469 L 266.507812 270.578125 L 289.03125 270.578125 C 291.984375 270.578125 294.382812 272.972656 294.382812 275.921875 C 294.382812 278.871094 291.984375 281.269531 289.03125 281.269531 L 261.152344 281.269531 C 258.199219 281.269531 255.800781 278.878906 255.800781 275.921875 L 255.800781 215.753906 C 255.800781 212.804688 258.199219 210.410156 261.152344 210.410156 Z M 208.246094 275.921875 L 208.246094 215.753906 C 208.246094 212.804688 210.648438 210.410156 213.601562 210.410156 C 216.554688 210.410156 218.953125 212.804688 218.953125 215.753906 L 218.953125 270.578125 L 236.125 270.578125 L 236.125 215.753906 C 236.125 212.804688 238.527344 210.410156 241.472656 210.410156 C 244.429688 210.410156 246.832031 212.804688 246.832031 215.753906 L 246.832031 275.921875 C 246.832031 278.878906 244.433594 281.269531 241.472656 281.269531 L 213.601562 281.269531 C 210.648438 281.269531 208.246094 278.871094 208.246094 275.921875 Z M 208.246094 275.921875 "/></g><path style=" stroke:none;fill-rule:evenodd;fill:#c1168b;fill-opacity:1;" d="M 65.195312 277.902344 C 64.105469 278.808594 62.480469 278.648438 61.578125 277.550781 C 60.679688 276.460938 60.839844 274.84375 61.933594 273.941406 L 66.070312 270.554688 C 67.160156 269.65625 68.777344 269.816406 69.679688 270.90625 C 70.582031 272.003906 70.421875 273.617188 69.324219 274.515625 Z M 85.847656 260.964844 C 84.75 261.863281 83.132812 261.699219 82.234375 260.609375 C 81.328125 259.515625 81.488281 257.898438 82.585938 257 L 90.847656 250.21875 C 91.945312 249.320312 93.5625 249.480469 94.460938 250.570312 C 95.359375 251.667969 95.199219 253.285156 94.109375 254.183594 Z M 110.625 240.628906 C 109.535156 241.527344 107.910156 241.367188 107.011719 240.277344 C 106.113281 239.179688 106.273438 237.5625 107.363281 236.664062 L 115.628906 229.886719 C 116.722656 228.988281 118.339844 229.148438 119.238281 230.238281 C 120.144531 231.335938 119.984375 232.953125 118.886719 233.851562 Z M 135.410156 220.296875 C 134.3125 221.195312 132.695312 221.035156 131.792969 219.941406 C 130.894531 218.847656 131.050781 217.230469 132.148438 216.332031 L 140.40625 209.550781 C 141.503906 208.652344 143.125 208.8125 144.023438 209.90625 C 144.921875 211 144.761719 212.617188 143.667969 213.515625 Z M 160.1875 199.960938 C 159.09375 200.859375 157.46875 200.699219 156.570312 199.609375 C 155.671875 198.511719 155.832031 196.894531 156.925781 196 L 165.191406 189.21875 C 166.28125 188.320312 167.902344 188.472656 168.800781 189.570312 C 169.707031 190.667969 169.542969 192.285156 168.445312 193.183594 Z M 184.972656 179.628906 C 183.871094 180.527344 182.253906 180.367188 181.355469 179.269531 C 180.457031 178.179688 180.609375 176.5625 181.707031 175.65625 L 189.96875 168.882812 C 191.066406 167.988281 192.683594 168.140625 193.582031 169.238281 C 194.480469 170.335938 194.328125 171.949219 193.230469 172.847656 Z M 209.746094 159.296875 C 208.65625 160.191406 207.039062 160.03125 206.132812 158.941406 C 205.234375 157.84375 205.394531 156.230469 206.484375 155.332031 L 214.75 148.550781 C 215.84375 147.652344 217.46875 147.808594 218.367188 148.902344 C 219.265625 150 219.105469 151.617188 218.011719 152.515625 Z M 234.53125 138.960938 C 233.433594 139.859375 231.816406 139.699219 230.914062 138.601562 C 230.015625 137.511719 230.171875 135.894531 231.269531 134.996094 L 239.527344 128.21875 C 240.625 127.320312 242.246094 127.472656 243.144531 128.570312 C 244.042969 129.667969 243.886719 131.285156 242.789062 132.179688 Z M 259.308594 118.628906 C 258.214844 119.527344 256.597656 119.367188 255.691406 118.269531 C 254.792969 117.179688 254.953125 115.5625 256.050781 114.65625 L 264.3125 107.882812 C 265.402344 106.984375 267.027344 107.140625 267.925781 108.234375 C 268.828125 109.332031 268.664062 110.949219 267.574219 111.847656 Z M 284.09375 98.289062 C 282.992188 99.191406 281.375 99.03125 280.476562 97.933594 C 279.578125 96.84375 279.738281 95.226562 280.828125 94.324219 L 289.089844 87.550781 C 290.1875 86.652344 291.804688 86.804688 292.703125 87.902344 C 293.601562 89 293.449219 90.617188 292.351562 91.515625 Z M 308.875 77.960938 C 307.777344 78.859375 306.160156 78.699219 305.253906 77.601562 C 304.355469 76.511719 304.515625 74.886719 305.613281 73.988281 L 309.742188 70.601562 C 310.835938 69.703125 312.460938 69.867188 313.359375 70.957031 C 314.257812 72.050781 314.097656 73.667969 313.003906 74.566406 Z M 308.875 77.960938 "/><path style=" stroke:none;fill-rule:evenodd;fill:#c83c2b;fill-opacity:1;" d="M 160.695312 215.753906 C 160.695312 212.804688 163.089844 210.410156 166.042969 210.410156 L 193.925781 210.410156 C 196.878906 210.410156 199.273438 212.804688 199.273438 215.753906 L 199.273438 275.921875 C 199.273438 278.871094 196.878906 281.269531 193.925781 281.269531 C 190.96875 281.269531 188.566406 278.871094 188.566406 275.921875 L 188.566406 251.1875 L 171.394531 251.1875 L 171.394531 275.921875 C 171.394531 278.871094 169 281.269531 166.042969 281.269531 C 163.089844 281.269531 160.695312 278.871094 160.695312 275.921875 Z M 188.566406 240.496094 L 188.566406 221.105469 L 171.394531 221.105469 L 171.394531 240.496094 Z M 188.566406 240.496094 "/><path style=" stroke:none;fill-rule:evenodd;fill:#183b6b;fill-opacity:1;" d="M 171.394531 221.105469 L 188.566406 221.105469 L 188.566406 240.496094 L 171.394531 240.496094 Z M 171.394531 221.105469 "/><path style=" stroke:none;fill-rule:evenodd;fill:#c83c2b;fill-opacity:1;" d="M 289.03125 210.410156 C 291.984375 210.410156 294.382812 212.804688 294.382812 215.753906 C 294.382812 218.703125 291.984375 221.105469 289.03125 221.105469 C 289.03125 221.105469 266.507812 221.105469 266.507812 221.105469 L 266.507812 270.578125 L 289.03125 270.578125 C 291.984375 270.578125 294.382812 272.972656 294.382812 275.921875 C 294.382812 278.871094 291.984375 281.269531 289.03125 281.269531 L 261.152344 281.269531 C 258.199219 281.269531 255.800781 278.878906 255.800781 275.921875 L 255.800781 215.753906 C 255.800781 212.804688 258.199219 210.410156 261.152344 210.410156 Z M 289.03125 210.410156 "/><path style=" stroke:none;fill-rule:evenodd;fill:#c83c2b;fill-opacity:1;" d="M 208.246094 275.921875 L 208.246094 215.753906 C 208.246094 212.804688 210.648438 210.410156 213.601562 210.410156 C 216.554688 210.410156 218.953125 212.804688 218.953125 215.753906 L 218.953125 270.578125 L 236.125 270.578125 L 236.125 215.753906 C 236.125 212.804688 238.527344 210.410156 241.472656 210.410156 C 244.429688 210.410156 246.832031 212.804688 246.832031 215.753906 L 246.832031 275.921875 C 246.832031 278.878906 244.433594 281.269531 241.472656 281.269531 L 213.601562 281.269531 C 210.648438 281.269531 208.246094 278.871094 208.246094 275.921875 Z M 208.246094 275.921875 "/><path style=" stroke:none;fill-rule:evenodd;fill:#1baf82;fill-opacity:1;" d="M 340.671875 310.785156 C 339.535156 307.871094 336.703125 305.804688 333.390625 305.804688 L 33.167969 305.804688 L 33.167969 77.242188 C 33.167969 73.925781 31.105469 71.097656 28.191406 69.960938 L 28.191406 69.152344 C 28.191406 66.261719 30.542969 63.90625 33.445312 63.90625 C 36.339844 63.90625 38.699219 66.261719 38.699219 69.152344 L 38.699219 297.722656 C 38.699219 299.140625 39.847656 300.289062 41.265625 300.289062 L 341.480469 300.289062 C 344.382812 300.289062 346.734375 302.636719 346.734375 305.535156 C 346.734375 308.429688 344.382812 310.785156 341.480469 310.785156 Z M 340.671875 310.785156 "/><path style=" stroke:none;fill-rule:evenodd;fill:#ee6f50;fill-opacity:1;" d="M 166.347656 278.6875 L 166.347656 256.230469 L 168.824219 256.230469 L 168.824219 275.921875 C 168.824219 277.359375 167.742188 278.539062 166.347656 278.6875 Z M 166.347656 278.6875 "/><path style=" stroke:none;fill-rule:evenodd;fill:#ee6f50;fill-opacity:1;" d="M 168.824219 226.144531 L 168.824219 240.496094 C 168.824219 241.914062 169.980469 243.0625 171.394531 243.0625 L 183.519531 243.0625 L 183.519531 245.542969 L 166.347656 245.542969 L 166.347656 226.144531 Z M 168.824219 226.144531 "/><path style=" stroke:none;fill-rule:evenodd;fill:#ee6f50;fill-opacity:1;" d="M 194.21875 278.6875 L 194.21875 220.800781 C 194.21875 217.851562 191.824219 215.460938 188.871094 215.460938 L 163.277344 215.460938 C 163.425781 214.066406 164.613281 212.976562 166.042969 212.976562 L 193.925781 212.976562 C 195.457031 212.976562 196.703125 214.222656 196.703125 215.753906 L 196.703125 275.921875 C 196.703125 277.359375 195.613281 278.539062 194.21875 278.6875 Z M 194.21875 278.6875 "/><path style=" stroke:none;fill-rule:evenodd;fill:#ee6f50;fill-opacity:1;" d="M 231.070312 273.144531 L 231.070312 275.625 L 213.898438 275.625 L 213.898438 220.800781 C 213.898438 218.667969 212.636719 216.820312 210.8125 215.960938 L 210.8125 215.753906 C 210.8125 214.222656 212.066406 212.976562 213.601562 212.976562 C 215.136719 212.976562 216.382812 214.222656 216.382812 215.753906 L 216.382812 270.578125 C 216.382812 271.996094 217.53125 273.144531 218.953125 273.144531 Z M 231.070312 273.144531 "/><path style=" stroke:none;fill-rule:evenodd;fill:#ee6f50;fill-opacity:1;" d="M 241.777344 278.6875 L 241.777344 220.800781 C 241.777344 218.667969 240.515625 216.820312 238.695312 215.960938 L 238.695312 215.753906 C 238.695312 214.222656 239.9375 212.976562 241.472656 212.976562 C 243.015625 212.976562 244.261719 214.222656 244.261719 215.753906 L 244.261719 275.921875 C 244.261719 277.359375 243.167969 278.539062 241.777344 278.6875 Z M 241.777344 278.6875 "/><path style=" stroke:none;fill-rule:evenodd;fill:#ee6f50;fill-opacity:1;" d="M 288.824219 218.539062 C 287.972656 216.714844 286.121094 215.460938 283.976562 215.460938 L 258.390625 215.460938 C 258.539062 214.0625 259.71875 212.976562 261.152344 212.976562 L 289.03125 212.976562 C 290.566406 212.976562 291.8125 214.222656 291.8125 215.753906 C 291.8125 217.289062 290.566406 218.539062 289.03125 218.539062 Z M 288.824219 218.539062 "/><path style=" stroke:none;fill-rule:evenodd;fill:#ee6f50;fill-opacity:1;" d="M 288.824219 278.707031 C 287.972656 276.882812 286.121094 275.625 283.976562 275.625 L 261.453125 275.625 L 261.453125 226.144531 C 261.453125 226.144531 262.417969 226.144531 263.9375 226.144531 L 263.9375 270.578125 C 263.9375 271.996094 265.089844 273.144531 266.507812 273.144531 L 289.03125 273.144531 C 290.566406 273.144531 291.8125 274.386719 291.8125 275.921875 C 291.8125 277.453125 290.566406 278.707031 289.03125 278.707031 Z M 288.824219 278.707031 "/><path style=" stroke:none;fill-rule:evenodd;fill:#2f57a1;fill-opacity:1;" d="M 161.902344 116.101562 L 153.515625 127.214844 L 115.84375 127.214844 L 104.710938 116.101562 Z M 161.902344 116.101562 "/><path style=" stroke:none;fill-rule:evenodd;fill:#2f57a1;fill-opacity:1;" d="M 225.238281 85.214844 L 218.335938 94.695312 L 184.628906 94.695312 L 175.140625 85.214844 Z M 225.238281 85.214844 "/><path style=" stroke:none;fill-rule:evenodd;fill:#2f57a1;fill-opacity:1;" d="M 234.113281 63.90625 L 308.804688 63.90625 L 308.804688 71.371094 L 305.613281 73.988281 C 304.515625 74.886719 304.355469 76.511719 305.253906 77.601562 C 306.140625 78.671875 307.707031 78.84375 308.804688 78.011719 L 308.804688 295.160156 L 298.566406 286.042969 L 298.566406 74.945312 L 245.167969 74.945312 Z M 234.113281 63.90625 "/><path style=" stroke:none;fill-rule:evenodd;fill:#d9e1e3;fill-opacity:1;" d="M 301.234375 124.605469 C 301.234375 123.128906 302.433594 121.929688 303.910156 121.929688 C 305.382812 121.929688 306.582031 123.128906 306.582031 124.605469 L 306.582031 197.710938 C 306.582031 199.179688 305.382812 200.378906 303.910156 200.378906 C 302.433594 200.378906 301.234375 199.179688 301.234375 197.710938 Z M 301.234375 109.648438 C 301.234375 108.171875 302.433594 106.972656 303.910156 106.972656 C 305.382812 106.972656 306.582031 108.171875 306.582031 109.648438 L 306.582031 111.816406 C 306.582031 113.289062 305.382812 114.488281 303.910156 114.488281 C 302.433594 114.488281 301.234375 113.289062 301.234375 111.816406 Z M 301.234375 109.648438 "/><path style=" stroke:none;fill-rule:evenodd;fill:#d9e1e3;fill-opacity:1;" d="M 143.777344 122.996094 C 143.039062 122.996094 142.4375 122.394531 142.4375 121.65625 C 142.4375 120.917969 143.039062 120.320312 143.777344 120.320312 L 145.570312 120.320312 C 146.308594 120.320312 146.914062 120.917969 146.914062 121.65625 C 146.914062 122.394531 146.308594 122.996094 145.570312 122.996094 Z M 117.050781 122.996094 C 116.3125 122.996094 115.714844 122.394531 115.714844 121.65625 C 115.714844 120.917969 116.3125 120.320312 117.050781 120.320312 L 134.792969 120.320312 C 135.53125 120.320312 136.128906 120.917969 136.128906 121.65625 C 136.128906 122.394531 135.53125 122.996094 134.792969 122.996094 Z M 117.050781 122.996094 "/><path style=" stroke:none;fill-rule:evenodd;fill:#d9e1e3;fill-opacity:1;" d="M 153.488281 304.246094 C 152.746094 304.246094 152.148438 303.652344 152.148438 302.914062 C 152.148438 302.175781 152.746094 301.574219 153.488281 301.574219 L 155.460938 301.574219 C 156.199219 301.574219 156.804688 302.175781 156.804688 302.914062 C 156.804688 303.652344 156.199219 304.246094 155.460938 304.246094 Z M 95.992188 304.246094 C 95.253906 304.246094 94.65625 303.652344 94.65625 302.914062 C 94.65625 302.175781 95.253906 301.574219 95.992188 301.574219 L 143.785156 301.574219 C 144.523438 301.574219 145.121094 302.175781 145.121094 302.914062 C 145.121094 303.652344 144.523438 304.246094 143.785156 304.246094 Z M 95.992188 304.246094 "/></g></svg>