<svg xmlns="http://www.w3.org/2000/svg" xmlns:xlink="http://www.w3.org/1999/xlink" width="1080" zoomAndPan="magnify" viewBox="0 0 810 809.999993" height="1080" preserveAspectRatio="xMidYMid meet" version="1.2"><defs><clipPath id="2a50b1639f"><path d="M 48.117188 81 L 762 81 L 762 728.640625 L 48.117188 728.640625 Z M 48.117188 81 "/></clipPath><clipPath id="a3519f0a08"><path d="M 123.117188 81 L 686.882812 81 C 728.304688 81 761.882812 114.578125 761.882812 156 L 761.882812 653.640625 C 761.882812 695.0625 728.304688 728.640625 686.882812 728.640625 L 123.117188 728.640625 C 81.695312 728.640625 48.117188 695.0625 48.117188 653.640625 L 48.117188 156 C 48.117188 114.578125 81.695312 81 123.117188 81 Z M 123.117188 81 "/></clipPath><clipPath id="ea2a897132"><path d="M 136 116.003906 L 672 116.003906 L 672 651.003906 L 136 651.003906 Z M 136 116.003906 "/></clipPath><clipPath id="47e1a0d4e7"><path d="M 144.140625 116.003906 L 680.292969 116.003906 L 680.292969 651.003906 L 144.140625 651.003906 Z M 144.140625 116.003906 "/></clipPath></defs><g id="56739cbf9f"><rect x="0" width="810" y="0" height="809.999993" style="fill:#ffffff;fill-opacity:1;stroke:none;"/><rect x="0" width="810" y="0" height="809.999993" style="fill:#c4e1e6;fill-opacity:1;stroke:none;"/><g clip-rule="nonzero" clip-path="url(#2a50b1639f)"><g clip-rule="nonzero" clip-path="url(#a3519f0a08)"><path style=" stroke:none;fill-rule:nonzero;fill:#ffffff;fill-opacity:1;" d="M 48.117188 81 L 761.535156 81 L 761.535156 728.640625 L 48.117188 728.640625 Z M 48.117188 81 "/></g></g><g clip-rule="nonzero" clip-path="url(#ea2a897132)"><path style=" stroke:none;fill-rule:nonzero;fill:#000000;fill-opacity:0.2;" d="M 145.398438 636.65625 L 137.742188 651.003906 L 671.753906 651.003906 L 665.28125 637.195312 C 660.753906 627.488281 656.113281 618.105469 651.476562 609.367188 L 649.855469 606.453125 C 648.023438 603.003906 646.191406 599.660156 644.359375 596.421875 L 643.601562 595.019531 C 643.277344 594.480469 642.957031 593.945312 642.632812 593.296875 L 639.289062 587.363281 L 639.179688 587.363281 C 630.550781 572.695312 622.03125 559.75 613.507812 548.746094 C 650.503906 501.828125 670.785156 443.367188 670.785156 383.394531 C 670.785156 305.84375 637.128906 232.171875 578.5625 181.367188 C 570.472656 174.355469 561.738281 167.667969 552.679688 161.523438 C 549.007812 159.039062 545.125 156.558594 541.246094 154.183594 C 540.273438 153.644531 538.871094 152.785156 537.363281 151.921875 C 537.035156 151.703125 536.714844 151.492188 536.28125 151.273438 C 520.964844 142.539062 504.894531 135.3125 488.5 129.808594 C 468.441406 123.011719 447.621094 118.699219 426.589844 116.972656 L 426.375 116.972656 C 425.402344 116.863281 424.542969 116.757812 423.570312 116.757812 C 416.988281 116.21875 410.195312 116.003906 403.507812 116.003906 C 374.277344 116.003906 345.589844 120.640625 318.191406 129.917969 C 309.882812 132.722656 301.472656 135.957031 293.164062 139.730469 L 291.550781 140.488281 C 286.265625 142.96875 281.089844 145.449219 275.910156 148.359375 C 265.234375 154.183594 254.769531 160.765625 244.84375 168.207031 L 244.089844 168.75 C 243.441406 169.179688 242.90625 169.609375 242.257812 170.152344 C 210.007812 194.527344 183.257812 226.453125 164.921875 262.375 C 145.832031 299.910156 136.015625 340.683594 136.015625 383.289062 C 136.015625 445.953125 157.910156 506.46875 197.929688 554.355469 C 193.289062 559.859375 188.972656 565.574219 185.089844 571.507812 C 168.914062 595.992188 155.539062 617.886719 145.398438 636.65625 Z M 145.398438 636.65625 "/></g><g clip-rule="nonzero" clip-path="url(#47e1a0d4e7)"><path style=" stroke:none;fill-rule:nonzero;fill:#ffffff;fill-opacity:1;" d="M 153.703125 636.65625 L 146.046875 651.003906 L 680.058594 651.003906 L 673.589844 637.195312 C 669.054688 627.488281 664.417969 618.105469 659.78125 609.367188 L 658.164062 606.453125 C 656.332031 603.003906 654.496094 599.660156 652.664062 596.421875 L 651.90625 595.019531 C 651.585938 594.480469 651.257812 593.945312 650.9375 593.296875 L 647.59375 587.363281 L 647.484375 587.363281 C 638.855469 572.695312 630.335938 559.75 621.816406 548.746094 C 658.8125 501.828125 679.085938 443.367188 679.085938 383.394531 C 679.085938 305.84375 645.4375 232.171875 586.867188 181.367188 C 578.777344 174.355469 570.042969 167.667969 560.980469 161.523438 C 557.316406 159.039062 553.433594 156.558594 549.546875 154.183594 C 548.578125 153.644531 547.175781 152.785156 545.664062 151.921875 C 545.34375 151.703125 545.019531 151.492188 544.589844 151.273438 C 529.273438 142.539062 513.199219 135.3125 496.804688 129.808594 C 476.851562 123.121094 456.035156 118.804688 435.003906 117.082031 L 434.785156 117.082031 C 433.816406 116.972656 432.953125 116.863281 431.980469 116.863281 C 425.402344 116.324219 418.609375 116.109375 411.921875 116.109375 C 382.691406 116.109375 354 120.746094 326.601562 130.027344 C 318.300781 132.828125 309.882812 136.066406 301.582031 139.839844 L 299.960938 140.597656 C 294.675781 143.074219 289.5 145.554688 284.324219 148.46875 C 273.644531 154.292969 263.183594 160.871094 253.261719 168.316406 L 252.503906 168.855469 C 251.859375 169.289062 251.316406 169.71875 250.667969 170.257812 C 218.421875 194.636719 191.671875 226.5625 173.335938 262.480469 C 154.136719 300.230469 144.324219 341.003906 144.324219 383.609375 C 144.324219 446.28125 166.21875 506.789062 206.230469 554.683594 C 201.59375 560.179688 197.28125 565.898438 193.398438 571.832031 C 177.109375 595.992188 163.734375 617.886719 153.703125 636.65625 Z M 153.703125 636.65625 "/></g><path style=" stroke:none;fill-rule:nonzero;fill:#ede027;fill-opacity:1;" d="M 669.8125 383.289062 C 669.8125 450.378906 644.25 511.425781 602.292969 557.269531 C 573.0625 589.304688 535.742188 613.789062 493.679688 627.8125 C 468.332031 636.226562 441.257812 640.863281 413.214844 640.972656 L 412.242188 640.972656 C 357.234375 640.972656 306.328125 623.710938 264.476562 594.375 C 263.613281 593.835938 262.859375 593.296875 261.996094 592.648438 C 256.605469 588.871094 251.425781 584.777344 246.464844 580.570312 C 190.164062 533.324219 154.460938 462.457031 154.460938 383.289062 C 154.460938 299.261719 194.691406 224.621094 256.925781 177.589844 C 257.683594 176.945312 258.4375 176.40625 259.296875 175.867188 C 268.789062 168.855469 278.820312 162.492188 289.285156 156.777344 C 294.246094 154.078125 299.207031 151.597656 304.277344 149.226562 C 304.816406 149.007812 305.355469 148.6875 305.785156 148.46875 C 313.660156 144.910156 321.644531 141.78125 329.839844 138.976562 C 355.617188 130.238281 383.230469 125.601562 412.027344 125.601562 C 418.609375 125.601562 425.078125 125.820312 431.441406 126.355469 C 432.414062 126.464844 433.382812 126.464844 434.355469 126.574219 C 454.957031 128.296875 474.910156 132.507812 493.894531 138.867188 C 510.074219 144.261719 525.496094 151.273438 540.058594 159.578125 C 540.273438 159.6875 540.597656 159.902344 540.8125 160.011719 C 542.109375 160.765625 543.402344 161.523438 544.589844 162.273438 C 548.363281 164.542969 552.03125 166.914062 555.695312 169.394531 C 564.433594 175.21875 572.738281 181.585938 580.71875 188.484375 C 635.40625 235.835938 669.8125 305.515625 669.8125 383.289062 Z M 669.8125 383.289062 "/><path style=" stroke:none;fill-rule:nonzero;fill:#d7c7f7;fill-opacity:1;" d="M 665.171875 641.292969 L 162.765625 641.292969 C 171.179688 625.546875 183.6875 604.40625 201.917969 576.898438 C 223.921875 543.679688 254.984375 522.539062 283.136719 509.269531 C 307.1875 497.945312 329.300781 492.335938 342.246094 489.75 C 342.566406 489.640625 342.996094 489.640625 343.320312 489.53125 C 343.429688 489.421875 343.644531 489.421875 343.859375 489.421875 C 350.226562 488.128906 354 487.699219 354 487.699219 L 354.324219 487.699219 L 464.015625 480.902344 C 464.015625 480.902344 518.164062 486.835938 574.894531 517.359375 C 599.8125 530.734375 623.539062 563.957031 642.417969 596.855469 C 642.957031 597.71875 643.386719 598.582031 643.925781 599.445312 C 652.015625 614.222656 659.242188 628.675781 665.171875 641.292969 Z M 665.171875 641.292969 "/><path style=" stroke:none;fill-rule:nonzero;fill:#45281a;fill-opacity:1;" d="M 643.816406 599.550781 C 642.632812 599.550781 641.445312 599.550781 640.367188 599.550781 C 604.773438 598.691406 569.828125 590.492188 537.363281 581.863281 C 473.183594 564.714844 399.730469 540.550781 341.917969 491.257812 L 343.320312 489.640625 L 343.539062 489.316406 C 343.644531 489.421875 343.644531 489.421875 343.753906 489.53125 C 401.136719 538.394531 474.15625 562.449219 537.902344 579.492188 C 570.257812 588.121094 604.988281 596.210938 640.367188 597.070312 C 641.015625 597.070312 641.660156 597.070312 642.308594 597.070312 C 642.847656 597.824219 643.386719 598.796875 643.816406 599.550781 Z M 643.816406 599.550781 "/><path style=" stroke:none;fill-rule:nonzero;fill:#45281a;fill-opacity:1;" d="M 505 641.292969 L 499.503906 641.292969 C 474.15625 627.703125 451.933594 612.386719 433.816406 599.121094 C 406.203125 578.839844 373.089844 552.089844 348.714844 517.792969 C 343.539062 510.566406 338.792969 502.90625 334.476562 494.925781 L 336.742188 493.738281 C 340.515625 500.855469 344.722656 507.652344 349.253906 514.125 C 373.628906 549.179688 407.285156 576.46875 435.324219 597.070312 C 454.417969 610.984375 478.039062 627.273438 505 641.292969 Z M 505 641.292969 "/><path style=" stroke:none;fill-rule:nonzero;fill:#45281a;fill-opacity:1;" d="M 405.234375 641.292969 L 401.671875 641.292969 C 398.113281 637.519531 394.664062 633.53125 391.320312 629.539062 C 369.964844 604.191406 351.410156 573.988281 334.910156 537.964844 C 330.054688 527.5 325.527344 516.5 321.101562 505.066406 L 323.476562 504.199219 C 327.789062 515.417969 332.320312 526.203125 337.066406 536.453125 C 353.460938 572.480469 372.011719 602.679688 393.371094 628.027344 C 397.253906 632.558594 401.136719 636.980469 405.234375 641.292969 Z M 405.234375 641.292969 "/><path style=" stroke:none;fill-rule:nonzero;fill:#45281a;fill-opacity:1;" d="M 339.976562 641.292969 L 337.171875 641.292969 C 324.554688 609.90625 316.035156 577.007812 311.824219 543.355469 C 310.75 534.511719 309.992188 525.667969 309.453125 516.710938 L 312.042969 516.5 C 312.582031 525.558594 313.335938 534.621094 314.523438 543.679688 C 318.730469 577.226562 327.359375 610.015625 339.976562 641.292969 Z M 339.976562 641.292969 "/><path style=" stroke:none;fill-rule:nonzero;fill:#45281a;fill-opacity:1;" d="M 292.628906 512.613281 C 290.363281 516.390625 288.207031 520.273438 286.15625 524.371094 C 270.085938 555.542969 259.625 594.699219 254.660156 641.402344 L 252.070312 641.402344 C 257.035156 594.160156 267.714844 554.464844 284 522.96875 C 255.203125 558.457031 231.6875 598.691406 214.96875 641.292969 L 212.164062 641.292969 C 229.421875 597.070312 254.011719 555.222656 284.214844 518.652344 C 286.375 516.066406 288.421875 513.585938 290.578125 511.105469 Z M 292.628906 512.613281 "/><path style=" stroke:none;fill-rule:nonzero;fill:#4eff2c;fill-opacity:1;" d="M 349.578125 510.457031 C 349.578125 511.542969 349.523438 512.632812 349.417969 513.710938 C 349.308594 514.796875 349.152344 515.871094 348.9375 516.9375 C 348.726562 518.007812 348.460938 519.058594 348.144531 520.101562 C 347.828125 521.144531 347.464844 522.164062 347.050781 523.171875 C 346.632812 524.175781 346.167969 525.160156 345.65625 526.117188 C 345.140625 527.078125 344.582031 528.011719 343.976562 528.914062 C 343.375 529.816406 342.726562 530.691406 342.039062 531.53125 C 341.347656 532.375 340.617188 533.179688 339.847656 533.949219 C 339.078125 534.71875 338.273438 535.445312 337.433594 536.136719 C 336.589844 536.828125 335.71875 537.472656 334.8125 538.082031 C 333.910156 538.683594 332.976562 539.242188 332.019531 539.757812 C 331.058594 540.269531 330.074219 540.734375 329.070312 541.148438 C 328.066406 541.566406 327.042969 541.933594 326 542.25 C 324.960938 542.5625 323.90625 542.828125 322.839844 543.042969 C 321.769531 543.25 320.695312 543.414062 319.613281 543.519531 C 318.53125 543.625 317.445312 543.679688 316.359375 543.679688 C 315.269531 543.679688 314.183594 543.625 313.101562 543.519531 C 312.019531 543.414062 310.945312 543.25 309.875 543.042969 C 308.808594 542.828125 307.753906 542.5625 306.714844 542.25 C 305.671875 541.933594 304.648438 541.566406 303.644531 541.148438 C 302.640625 540.734375 301.65625 540.269531 300.695312 539.757812 C 299.738281 539.242188 298.804688 538.683594 297.898438 538.082031 C 296.996094 537.472656 296.121094 536.828125 295.285156 536.136719 C 294.441406 535.445312 293.636719 534.71875 292.867188 533.949219 C 292.097656 533.179688 291.367188 532.375 290.675781 531.53125 C 289.984375 530.691406 289.339844 529.816406 288.734375 528.914062 C 288.132812 528.011719 287.570312 527.078125 287.058594 526.117188 C 286.546875 525.160156 286.082031 524.175781 285.664062 523.171875 C 285.25 522.164062 284.882812 521.144531 284.566406 520.101562 C 284.253906 519.058594 283.984375 518.007812 283.777344 516.9375 C 283.5625 515.871094 283.402344 514.796875 283.296875 513.710938 C 283.191406 512.632812 283.136719 511.542969 283.136719 510.457031 C 283.136719 509.367188 283.191406 508.285156 283.296875 507.199219 C 283.402344 506.117188 283.5625 505.042969 283.777344 503.976562 C 283.984375 502.910156 284.253906 501.855469 284.566406 500.8125 C 284.882812 499.773438 285.25 498.75 285.664062 497.742188 C 286.082031 496.738281 286.546875 495.753906 287.058594 494.796875 C 287.570312 493.839844 288.132812 492.902344 288.734375 492 C 289.339844 491.09375 289.984375 490.222656 290.675781 489.378906 C 291.367188 488.542969 292.097656 487.734375 292.867188 486.964844 C 293.636719 486.199219 294.441406 485.464844 295.285156 484.777344 C 296.121094 484.085938 296.996094 483.4375 297.898438 482.835938 C 298.804688 482.230469 299.738281 481.671875 300.695312 481.15625 C 301.65625 480.644531 302.640625 480.183594 303.644531 479.765625 C 304.648438 479.347656 305.671875 478.980469 306.714844 478.664062 C 307.753906 478.347656 308.808594 478.085938 309.875 477.875 C 310.945312 477.660156 312.019531 477.503906 313.101562 477.394531 C 314.183594 477.289062 315.269531 477.234375 316.359375 477.234375 C 317.445312 477.234375 318.53125 477.289062 319.613281 477.394531 C 320.695312 477.503906 321.769531 477.660156 322.839844 477.875 C 323.90625 478.085938 324.960938 478.347656 326 478.664062 C 327.042969 478.980469 328.066406 479.347656 329.070312 479.765625 C 330.074219 480.183594 331.058594 480.644531 332.019531 481.15625 C 332.976562 481.671875 333.910156 482.230469 334.8125 482.835938 C 335.71875 483.4375 336.589844 484.085938 337.433594 484.777344 C 338.273438 485.464844 339.078125 486.199219 339.847656 486.964844 C 340.617188 487.734375 341.347656 488.542969 342.039062 489.378906 C 342.726562 490.222656 343.375 491.09375 343.976562 492 C 344.582031 492.902344 345.140625 493.839844 345.65625 494.796875 C 346.167969 495.753906 346.632812 496.738281 347.050781 497.742188 C 347.464844 498.75 347.828125 499.773438 348.144531 500.8125 C 348.460938 501.855469 348.726562 502.910156 348.9375 503.976562 C 349.152344 505.042969 349.308594 506.117188 349.417969 507.199219 C 349.523438 508.285156 349.578125 509.367188 349.578125 510.457031 Z M 349.578125 510.457031 "/><path style=" stroke:none;fill-rule:nonzero;fill:#f7e05f;fill-opacity:1;" d="M 362.414062 384.042969 L 353.890625 492.121094 C 353.890625 492.121094 386.035156 522.214844 419.363281 513.695312 C 452.800781 505.171875 463.90625 480.902344 463.90625 480.902344 L 469.839844 387.925781 Z M 362.414062 384.042969 "/><path style=" stroke:none;fill-rule:nonzero;fill:#f7e05f;fill-opacity:1;" d="M 575.757812 330.542969 L 527.222656 318.136719 C 526.898438 307.566406 526.574219 300.878906 526.574219 300.878906 L 526.359375 289.125 C 521.507812 234.976562 476.097656 192.585938 420.65625 192.585938 C 362.089844 192.585938 314.523438 240.042969 314.523438 298.722656 C 314.523438 346.398438 345.910156 386.632812 389.164062 400.113281 C 413.972656 469.46875 504.140625 456.632812 518.269531 443.691406 C 527.003906 435.707031 528.195312 384.902344 527.761719 346.179688 Z M 575.757812 330.542969 "/><path style=" stroke:none;fill-rule:nonzero;fill:#45281a;fill-opacity:1;" d="M 357.128906 446.925781 C 357.128906 446.925781 323.691406 389.976562 308.699219 361.714844 C 293.597656 333.5625 253.691406 250.402344 291.011719 222.140625 C 328.332031 193.878906 353.890625 193.988281 353.890625 193.988281 C 353.890625 193.988281 457.4375 152.675781 488.824219 170.363281 C 520.210938 188.054688 499.285156 230.660156 499.285156 230.660156 C 499.285156 230.660156 472.429688 241.773438 465.847656 223.433594 C 465.847656 223.433594 478.902344 261.402344 454.738281 275.210938 C 430.582031 289.015625 419.363281 279.847656 419.363281 279.847656 C 419.363281 279.847656 436.40625 304.113281 424 317.816406 C 411.597656 331.511719 397.792969 327.628906 397.792969 327.628906 C 397.792969 327.628906 422.707031 345.96875 409.546875 370.882812 C 396.496094 395.796875 377.40625 391.160156 377.40625 391.160156 Z M 357.128906 446.925781 "/><path style=" stroke:none;fill-rule:nonzero;fill:#45281a;fill-opacity:1;" d="M 420.765625 310.910156 L 417.207031 362.46875 L 385.820312 326.226562 Z M 420.765625 310.910156 "/><path style=" stroke:none;fill-rule:nonzero;fill:#45281a;fill-opacity:1;" d="M 417.097656 345.105469 L 424.214844 362.898438 C 424.214844 362.898438 446.003906 358.585938 452.582031 371.207031 C 452.582031 371.207031 462.183594 354.597656 479.441406 363.980469 L 528.195312 349.632812 C 528.195312 349.632812 535.632812 432.6875 521.183594 447.574219 C 506.730469 462.460938 440.394531 459.761719 422.921875 440.5625 C 405.449219 421.363281 397.144531 398.171875 397.144531 398.171875 C 397.144531 398.171875 418.824219 385.660156 417.097656 345.105469 Z M 417.097656 345.105469 "/><path style=" stroke:none;fill-rule:nonzero;fill:#f7e05f;fill-opacity:1;" d="M 490.765625 374.226562 L 528.734375 358.152344 C 528.734375 358.152344 531.96875 389.21875 529.703125 412.84375 C 529.808594 412.84375 488.175781 423.414062 490.765625 374.226562 Z M 490.765625 374.226562 "/><path style=" stroke:none;fill-rule:nonzero;fill:#45281a;fill-opacity:1;" d="M 507.160156 316.414062 C 507.160156 317.144531 507.121094 317.863281 507.039062 318.578125 C 506.957031 319.292969 506.835938 319.988281 506.675781 320.664062 C 506.515625 321.339844 506.320312 321.980469 506.089844 322.582031 C 505.855469 323.191406 505.59375 323.753906 505.296875 324.265625 C 505 324.785156 504.679688 325.246094 504.332031 325.652344 C 503.984375 326.054688 503.617188 326.398438 503.230469 326.675781 C 502.847656 326.953125 502.449219 327.164062 502.039062 327.308594 C 501.628906 327.449219 501.214844 327.519531 500.796875 327.519531 C 500.378906 327.519531 499.964844 327.449219 499.554688 327.308594 C 499.144531 327.164062 498.746094 326.953125 498.359375 326.675781 C 497.976562 326.398438 497.609375 326.054688 497.261719 325.652344 C 496.914062 325.246094 496.59375 324.785156 496.296875 324.265625 C 496 323.753906 495.738281 323.191406 495.507812 322.582031 C 495.273438 321.980469 495.074219 321.339844 494.917969 320.664062 C 494.757812 319.988281 494.636719 319.292969 494.554688 318.578125 C 494.476562 317.863281 494.433594 317.144531 494.433594 316.414062 C 494.433594 315.683594 494.476562 314.960938 494.554688 314.246094 C 494.636719 313.53125 494.757812 312.832031 494.917969 312.160156 C 495.074219 311.488281 495.273438 310.84375 495.507812 310.238281 C 495.738281 309.632812 496 309.070312 496.296875 308.558594 C 496.59375 308.039062 496.914062 307.578125 497.261719 307.171875 C 497.609375 306.769531 497.976562 306.425781 498.359375 306.148438 C 498.746094 305.867188 499.144531 305.65625 499.554688 305.515625 C 499.964844 305.371094 500.378906 305.300781 500.796875 305.300781 C 501.214844 305.300781 501.628906 305.371094 502.039062 305.515625 C 502.449219 305.65625 502.847656 305.867188 503.230469 306.148438 C 503.617188 306.425781 503.984375 306.769531 504.332031 307.171875 C 504.679688 307.578125 505 308.039062 505.296875 308.558594 C 505.59375 309.070312 505.855469 309.632812 506.089844 310.238281 C 506.320312 310.84375 506.515625 311.488281 506.675781 312.160156 C 506.835938 312.832031 506.957031 313.53125 507.039062 314.246094 C 507.121094 314.960938 507.160156 315.683594 507.160156 316.414062 Z M 507.160156 316.414062 "/><path style=" stroke:none;fill-rule:nonzero;fill:#45281a;fill-opacity:1;" d="M 530.675781 376.382812 C 523.878906 376.382812 517.191406 372.929688 513.308594 367.433594 C 512.878906 366.890625 512.984375 366.03125 513.628906 365.597656 C 514.171875 365.167969 515.03125 365.273438 515.464844 365.921875 C 518.917969 370.777344 524.851562 373.902344 530.78125 373.792969 C 531.539062 373.792969 532.078125 374.332031 532.078125 375.089844 C 532.078125 375.84375 531.429688 376.382812 530.675781 376.382812 Z M 530.675781 376.382812 "/><path style=" stroke:none;fill-rule:nonzero;fill:#45281a;fill-opacity:1;" d="M 482.675781 277.472656 C 478.253906 280.496094 475.125 285.992188 476.417969 291.277344 C 476.960938 293.542969 478.253906 295.59375 480.195312 296.996094 C 484.078125 299.695312 489.253906 298.9375 493.785156 297.644531 C 497.992188 296.457031 502.308594 294.730469 505.433594 291.605469 C 508.5625 288.476562 510.394531 283.730469 508.886719 279.523438 C 505.328125 269.492188 489.148438 273.050781 482.675781 277.472656 Z M 482.675781 277.472656 "/><path style=" stroke:none;fill-rule:nonzero;fill:#f7e05f;fill-opacity:1;" d="M 377.40625 322.5625 C 367.160156 323.746094 357.882812 330.652344 353.027344 339.710938 C 348.175781 348.769531 347.3125 359.773438 350.007812 369.804688 C 353.785156 383.71875 365 395.796875 379.132812 398.710938 C 393.261719 401.621094 409.332031 393.964844 414.292969 380.375 C 419.257812 366.785156 412.890625 351.144531 407.390625 338.632812 C 402.429688 327.628906 388.945312 321.160156 377.40625 322.5625 Z M 377.40625 322.5625 "/><path style=" stroke:none;fill-rule:nonzero;fill:#45281a;fill-opacity:1;" d="M 403.832031 373.792969 C 403.183594 373.792969 402.644531 373.363281 402.644531 372.71875 C 402.105469 363.980469 397.574219 355.890625 390.777344 351.464844 C 383.660156 346.722656 373.953125 346.613281 367.160156 351.035156 C 366.621094 351.359375 365.863281 351.253906 365.539062 350.714844 C 365.21875 350.171875 365.324219 349.417969 365.863281 349.09375 C 373.308594 344.132812 384.09375 344.347656 392.074219 349.523438 C 399.40625 354.378906 404.371094 363.226562 405.015625 372.609375 C 405.125 373.148438 404.585938 373.6875 403.832031 373.792969 C 403.941406 373.792969 403.832031 373.792969 403.832031 373.792969 Z M 403.832031 373.792969 "/><path style=" stroke:none;fill-rule:nonzero;fill:#45281a;fill-opacity:1;" d="M 380.316406 377.785156 C 379.667969 377.785156 379.132812 377.246094 379.132812 376.601562 C 378.914062 369.804688 382.257812 363.007812 387.761719 358.910156 C 391.425781 356.210938 395.523438 355.351562 398.65625 356.753906 C 399.195312 356.96875 399.40625 357.507812 399.300781 358.046875 L 398.113281 357.941406 L 397.683594 358.910156 C 395.3125 357.832031 392.074219 358.585938 389.164062 360.746094 C 384.308594 364.300781 381.398438 370.34375 381.503906 376.382812 C 381.503906 377.246094 380.964844 377.785156 380.316406 377.785156 Z M 380.316406 377.785156 "/><path style=" stroke:none;fill-rule:nonzero;fill:#2cba92;fill-opacity:1;" d="M 376.757812 262.585938 C 367.804688 262.265625 358.746094 265.824219 352.488281 272.078125 C 346.234375 278.335938 342.785156 287.289062 343.214844 296.023438 C 352.816406 297.425781 362.199219 295.378906 369.101562 288.796875 C 375.679688 282.542969 376.003906 271.648438 376.757812 262.585938 Z M 376.757812 262.585938 "/><path style=" stroke:none;fill-rule:nonzero;fill:#2cba92;fill-opacity:1;" d="M 412.460938 262.585938 C 403.507812 262.265625 394.449219 265.824219 388.191406 272.078125 C 381.9375 278.335938 378.484375 287.289062 378.914062 296.023438 C 388.515625 297.425781 397.898438 295.378906 404.800781 288.796875 C 411.378906 282.542969 411.703125 271.648438 412.460938 262.585938 Z M 412.460938 262.585938 "/><path style=" stroke:none;fill-rule:nonzero;fill:#2cba92;fill-opacity:1;" d="M 417.960938 225.804688 C 409.007812 225.484375 399.949219 229.042969 393.691406 235.296875 C 387.433594 241.554688 383.984375 250.507812 384.417969 259.242188 C 394.015625 260.644531 403.398438 258.597656 410.300781 252.015625 C 416.882812 245.761719 417.207031 234.867188 417.960938 225.804688 Z M 417.960938 225.804688 "/><path style=" stroke:none;fill-rule:nonzero;fill:#2cba92;fill-opacity:1;" d="M 458.621094 229.476562 C 449.671875 229.148438 440.609375 232.710938 434.355469 238.96875 C 428.097656 245.222656 424.644531 254.175781 425.078125 262.914062 C 434.675781 264.316406 444.0625 262.265625 450.964844 255.6875 C 457.652344 249.320312 457.976562 238.425781 458.621094 229.476562 Z M 458.621094 229.476562 "/><path style=" stroke:none;fill-rule:nonzero;fill:#2cba92;fill-opacity:1;" d="M 457.976562 197.871094 C 449.023438 197.546875 439.960938 201.105469 433.707031 207.363281 C 427.453125 213.621094 424 222.570312 424.433594 231.308594 C 434.03125 232.710938 443.414062 230.660156 450.320312 224.082031 C 456.898438 217.714844 457.328125 206.824219 457.976562 197.871094 Z M 457.976562 197.871094 "/><path style=" stroke:none;fill-rule:nonzero;fill:#2cba92;fill-opacity:1;" d="M 502.414062 197.871094 C 493.460938 197.546875 484.402344 201.105469 478.144531 207.363281 C 471.890625 213.621094 468.441406 222.570312 468.871094 231.308594 C 478.46875 232.710938 487.851562 230.660156 494.757812 224.082031 C 501.335938 217.714844 501.65625 206.824219 502.414062 197.871094 Z M 502.414062 197.871094 "/><path style=" stroke:none;fill-rule:nonzero;fill:#2cba92;fill-opacity:1;" d="M 374.921875 299.476562 C 365.972656 299.15625 356.910156 302.710938 350.65625 308.96875 C 344.398438 315.226562 340.949219 324.175781 341.378906 332.914062 C 350.980469 334.316406 360.363281 332.265625 367.265625 325.6875 C 373.847656 319.324219 374.167969 308.429688 374.921875 299.476562 Z M 374.921875 299.476562 "/><path style=" stroke:none;fill-rule:nonzero;fill:#2cba92;fill-opacity:1;" d="M 330.054688 299.476562 C 321.101562 299.15625 312.042969 302.710938 305.785156 308.96875 C 299.53125 315.226562 296.078125 324.175781 296.507812 332.914062 C 306.109375 334.316406 315.496094 332.265625 322.394531 325.6875 C 328.976562 319.324219 329.300781 308.429688 330.054688 299.476562 Z M 330.054688 299.476562 "/><path style=" stroke:none;fill-rule:nonzero;fill:#2cba92;fill-opacity:1;" d="M 337.066406 343.59375 C 328.871094 340.035156 319.160156 340.035156 310.964844 343.59375 C 302.765625 347.152344 296.1875 354.164062 293.273438 362.46875 C 301.582031 367.324219 311.179688 368.832031 320.023438 365.167969 C 328.542969 361.714844 333.074219 351.683594 337.066406 343.59375 Z M 337.066406 343.59375 "/><path style=" stroke:none;fill-rule:nonzero;fill:#2cba92;fill-opacity:1;" d="M 345.15625 358.480469 C 336.527344 360.851562 328.976562 366.890625 324.988281 374.660156 C 320.886719 382.53125 320.347656 392.023438 323.476562 400.222656 C 333.074219 398.710938 341.378906 394.074219 345.910156 385.660156 C 350.226562 377.785156 347.203125 367.324219 345.15625 358.480469 Z M 345.15625 358.480469 "/><path style=" stroke:none;fill-rule:nonzero;fill:#2cba92;fill-opacity:1;" d="M 595.929688 347.800781 C 594.417969 337.230469 588.488281 327.953125 585.464844 317.707031 C 578.457031 294.410156 588.378906 267.226562 608.550781 253.851562 C 613.835938 263.558594 619.765625 272.40625 622.785156 283.082031 C 625.914062 293.652344 626.667969 305.304688 622.785156 315.65625 C 618.148438 328.058594 606.175781 339.28125 595.929688 347.800781 Z M 595.929688 347.800781 "/><path style=" stroke:none;fill-rule:nonzero;fill:#45281a;fill-opacity:1;" d="M 594.742188 348.554688 C 594.3125 348.554688 593.984375 348.230469 593.984375 347.800781 C 594.632812 315.980469 599.378906 284.269531 608.007812 253.636719 C 608.117188 253.203125 608.550781 252.988281 608.980469 253.097656 C 609.410156 253.203125 609.628906 253.636719 609.519531 254.066406 C 600.890625 284.589844 596.253906 316.085938 595.496094 347.800781 C 595.496094 348.121094 595.175781 348.554688 594.742188 348.554688 Z M 594.742188 348.554688 "/><path style=" stroke:none;fill-rule:nonzero;fill:#45281a;fill-opacity:1;" d="M 598.949219 299.15625 C 598.519531 299.15625 598.191406 298.722656 598.191406 298.292969 C 598.839844 289.230469 594.203125 280.707031 590.101562 273.265625 C 589.890625 272.945312 589.996094 272.40625 590.429688 272.1875 C 590.75 271.972656 591.289062 272.078125 591.503906 272.511719 C 595.714844 280.167969 600.351562 288.90625 599.703125 298.398438 C 599.703125 298.828125 599.378906 299.15625 598.949219 299.15625 Z M 598.949219 299.15625 "/><path style=" stroke:none;fill-rule:nonzero;fill:#45281a;fill-opacity:1;" d="M 601.105469 287.828125 C 601 287.828125 600.890625 287.828125 600.78125 287.722656 C 600.460938 287.503906 600.242188 287.074219 600.460938 286.640625 C 604.34375 279.632812 610.492188 274.019531 617.824219 270.675781 C 618.253906 270.464844 618.6875 270.675781 618.792969 271.109375 C 619.011719 271.542969 618.792969 271.972656 618.363281 272.078125 C 611.351562 275.207031 605.417969 280.707031 601.644531 287.394531 C 601.644531 287.722656 601.429688 287.828125 601.105469 287.828125 Z M 601.105469 287.828125 "/><path style=" stroke:none;fill-rule:nonzero;fill:#45281a;fill-opacity:1;" d="M 596.898438 317.921875 C 596.683594 317.921875 596.46875 317.816406 596.359375 317.707031 C 596.035156 317.382812 596.035156 316.949219 596.359375 316.628906 C 604.125 308.753906 613.726562 302.390625 624.078125 298.398438 C 624.507812 298.292969 624.941406 298.398438 625.050781 298.828125 C 625.160156 299.261719 625.050781 299.695312 624.617188 299.800781 C 614.480469 303.792969 605.097656 309.941406 597.4375 317.707031 C 597.328125 317.921875 597.117188 317.921875 596.898438 317.921875 Z M 596.898438 317.921875 "/><path style=" stroke:none;fill-rule:nonzero;fill:#45281a;fill-opacity:1;" d="M 595.820312 328.601562 C 595.496094 328.601562 595.175781 328.386719 595.066406 328.058594 C 593.984375 323.964844 591.074219 320.402344 588.378906 317.382812 L 582.984375 311.128906 C 582.660156 310.800781 582.769531 310.371094 583.09375 310.046875 C 583.414062 309.726562 583.847656 309.832031 584.171875 310.15625 L 589.566406 316.414062 C 592.261719 319.648438 595.386719 323.207031 596.578125 327.738281 C 596.683594 328.167969 596.46875 328.601562 596.035156 328.710938 C 596.035156 328.601562 595.929688 328.601562 595.820312 328.601562 Z M 595.820312 328.601562 "/><path style=" stroke:none;fill-rule:nonzero;fill:#2cba92;fill-opacity:1;" d="M 228.125 376.921875 C 226.617188 366.351562 220.6875 357.074219 217.664062 346.828125 C 210.65625 323.53125 220.578125 296.351562 240.746094 282.976562 C 246.03125 292.679688 251.964844 301.527344 254.984375 312.203125 C 258.003906 322.882812 258.867188 334.425781 254.984375 344.777344 C 250.347656 357.183594 238.375 368.402344 228.125 376.921875 Z M 228.125 376.921875 "/><path style=" stroke:none;fill-rule:nonzero;fill:#45281a;fill-opacity:1;" d="M 226.941406 377.570312 C 226.511719 377.570312 226.1875 377.246094 226.1875 376.816406 C 226.832031 344.996094 231.578125 313.285156 240.207031 282.648438 C 240.316406 282.21875 240.746094 282.003906 241.179688 282.109375 C 241.609375 282.21875 241.828125 282.648438 241.71875 283.082031 C 233.089844 313.605469 228.453125 345.210938 227.695312 376.816406 C 227.695312 377.246094 227.375 377.570312 226.941406 377.570312 Z M 226.941406 377.570312 "/><path style=" stroke:none;fill-rule:nonzero;fill:#45281a;fill-opacity:1;" d="M 231.148438 328.277344 C 231.148438 328.277344 231.039062 328.277344 231.148438 328.277344 C 230.71875 328.277344 230.394531 327.847656 230.394531 327.414062 C 231.039062 318.355469 226.402344 309.832031 222.304688 302.390625 C 222.089844 302.066406 222.195312 301.527344 222.628906 301.308594 C 222.949219 301.097656 223.488281 301.203125 223.707031 301.636719 C 227.695312 308.96875 232.550781 318.027344 231.902344 327.519531 C 231.902344 327.953125 231.46875 328.277344 231.148438 328.277344 Z M 231.148438 328.277344 "/><path style=" stroke:none;fill-rule:nonzero;fill:#45281a;fill-opacity:1;" d="M 233.304688 316.949219 C 233.199219 316.949219 233.089844 316.949219 232.980469 316.84375 C 232.660156 316.628906 232.441406 316.195312 232.660156 315.765625 C 236.542969 308.753906 242.6875 303.144531 250.023438 299.800781 C 250.457031 299.585938 250.886719 299.800781 250.996094 300.230469 C 251.210938 300.664062 250.996094 301.097656 250.5625 301.203125 C 243.550781 304.332031 237.621094 309.832031 233.953125 316.519531 C 233.84375 316.734375 233.628906 316.949219 233.304688 316.949219 Z M 233.304688 316.949219 "/><path style=" stroke:none;fill-rule:nonzero;fill:#45281a;fill-opacity:1;" d="M 229.097656 347.042969 C 228.882812 347.042969 228.667969 346.9375 228.558594 346.828125 C 228.234375 346.507812 228.234375 346.074219 228.558594 345.75 C 236.324219 337.878906 245.925781 331.511719 256.28125 327.519531 C 256.710938 327.414062 257.144531 327.519531 257.25 327.953125 C 257.355469 328.386719 257.25 328.816406 256.816406 328.921875 C 246.679688 332.914062 237.296875 339.0625 229.636719 346.828125 C 229.53125 346.9375 229.316406 347.042969 229.097656 347.042969 Z M 229.097656 347.042969 "/><path style=" stroke:none;fill-rule:nonzero;fill:#45281a;fill-opacity:1;" d="M 228.023438 357.613281 C 227.695312 357.613281 227.375 357.402344 227.265625 357.074219 C 226.1875 352.976562 223.273438 349.417969 220.578125 346.398438 L 215.183594 340.140625 C 214.859375 339.820312 214.96875 339.386719 215.292969 339.0625 C 215.617188 338.738281 216.050781 338.847656 216.371094 339.171875 L 221.765625 345.429688 C 224.460938 348.664062 227.589844 352.222656 228.773438 356.753906 C 228.882812 357.183594 228.667969 357.613281 228.234375 357.722656 C 228.234375 357.613281 228.125 357.613281 228.023438 357.613281 Z M 228.023438 357.613281 "/><path style=" stroke:none;fill-rule:nonzero;fill:#2cba92;fill-opacity:1;" d="M 562.0625 461.164062 C 569.394531 453.507812 573.171875 443.148438 579.320312 434.519531 C 593.445312 414.785156 620.953125 405.828125 643.925781 413.597656 C 639.503906 423.734375 636.050781 433.875 629.691406 442.828125 C 623.214844 451.777344 614.480469 459.546875 604.015625 462.78125 C 591.292969 466.554688 575.003906 464.074219 562.0625 461.164062 Z M 562.0625 461.164062 "/><path style=" stroke:none;fill-rule:nonzero;fill:#45281a;fill-opacity:1;" d="M 561.414062 460.949219 C 561.199219 460.949219 560.980469 460.839844 560.765625 460.625 C 560.550781 460.300781 560.550781 459.761719 560.875 459.546875 C 586.4375 440.5625 614.375 424.816406 643.816406 412.84375 C 644.25 412.625 644.679688 412.84375 644.789062 413.273438 C 644.898438 413.703125 644.789062 414.136719 644.359375 414.246094 C 615.019531 426.21875 587.191406 441.855469 561.738281 460.730469 C 561.738281 460.949219 561.519531 460.949219 561.414062 460.949219 Z M 561.414062 460.949219 "/><path style=" stroke:none;fill-rule:nonzero;fill:#45281a;fill-opacity:1;" d="M 602.941406 433.980469 C 602.722656 433.980469 602.507812 433.875 602.292969 433.660156 C 602.074219 433.335938 602.183594 432.796875 602.507812 432.578125 C 610.058594 427.511719 613.941406 418.667969 617.285156 410.902344 C 617.5 410.46875 617.929688 410.359375 618.253906 410.46875 C 618.6875 410.683594 618.792969 411.113281 618.6875 411.441406 C 615.234375 419.421875 611.242188 428.480469 603.371094 433.765625 C 603.15625 433.980469 603.046875 433.980469 602.941406 433.980469 Z M 602.941406 433.980469 "/><path style=" stroke:none;fill-rule:nonzero;fill:#45281a;fill-opacity:1;" d="M 636.050781 432.578125 C 635.945312 432.578125 635.835938 432.578125 635.730469 432.472656 C 628.933594 428.914062 620.953125 427.621094 613.402344 428.699219 C 612.972656 428.804688 612.644531 428.480469 612.539062 428.050781 C 612.433594 427.621094 612.753906 427.292969 613.1875 427.1875 C 621.0625 426 629.363281 427.402344 636.480469 431.070312 C 636.808594 431.285156 637.023438 431.714844 636.808594 432.148438 C 636.589844 432.472656 636.269531 432.578125 636.050781 432.578125 Z M 636.050781 432.578125 "/><path style=" stroke:none;fill-rule:nonzero;fill:#45281a;fill-opacity:1;" d="M 617.929688 454.476562 C 617.824219 454.476562 617.71875 454.476562 617.5 454.371094 C 608.117188 448.867188 597.546875 445.199219 586.652344 443.90625 C 586.222656 443.90625 585.898438 443.476562 586.003906 443.042969 C 586.003906 442.609375 586.4375 442.289062 586.867188 442.394531 C 597.871094 443.691406 608.761719 447.355469 618.253906 453.074219 C 618.578125 453.289062 618.6875 453.722656 618.472656 454.152344 C 618.472656 454.371094 618.148438 454.476562 617.929688 454.476562 Z M 617.929688 454.476562 "/><path style=" stroke:none;fill-rule:nonzero;fill:#45281a;fill-opacity:1;" d="M 577.808594 449.625 C 577.59375 449.625 577.484375 449.625 577.375 449.40625 C 577.054688 449.191406 576.945312 448.652344 577.269531 448.328125 C 579.964844 444.984375 580.828125 440.453125 581.582031 436.460938 L 583.203125 428.371094 C 583.308594 427.941406 583.742188 427.726562 584.0625 427.726562 C 584.496094 427.832031 584.710938 428.265625 584.710938 428.589844 L 583.09375 436.679688 C 582.230469 440.777344 581.261719 445.523438 578.457031 449.191406 C 578.238281 449.515625 578.023438 449.625 577.808594 449.625 Z M 577.808594 449.625 "/><path style=" stroke:none;fill-rule:nonzero;fill:#2cba92;fill-opacity:1;" d="M 262.640625 499.671875 C 252.613281 496.109375 241.609375 496.976562 231.148438 494.816406 C 207.421875 490.070312 188.003906 468.605469 185.628906 444.445312 C 196.632812 444.339844 207.3125 443.257812 218.097656 445.523438 C 228.882812 447.789062 239.5625 452.535156 246.785156 460.839844 C 255.632812 470.761719 260.054688 486.617188 262.640625 499.671875 Z M 262.640625 499.671875 "/><path style=" stroke:none;fill-rule:nonzero;fill:#45281a;fill-opacity:1;" d="M 262.101562 501.394531 C 261.996094 501.394531 261.890625 501.394531 261.78125 501.289062 C 233.953125 485.757812 208.171875 466.773438 185.089844 444.769531 C 184.769531 444.445312 184.769531 444.011719 185.089844 443.691406 C 185.417969 443.367188 185.847656 443.367188 186.171875 443.691406 C 209.144531 465.585938 234.8125 484.464844 262.535156 499.886719 C 262.859375 500.101562 263.074219 500.535156 262.859375 500.964844 C 262.640625 501.183594 262.429688 501.394531 262.101562 501.394531 Z M 262.101562 501.394531 "/><path style=" stroke:none;fill-rule:nonzero;fill:#45281a;fill-opacity:1;" d="M 220.46875 474.539062 C 220.363281 474.539062 220.144531 474.539062 220.039062 474.433594 C 212.273438 469.6875 202.675781 469.792969 194.152344 469.792969 C 193.613281 469.792969 193.398438 469.46875 193.398438 469.039062 C 193.398438 468.605469 193.71875 468.285156 194.152344 468.285156 C 202.457031 468.175781 212.707031 468.066406 220.902344 473.136719 C 221.226562 473.351562 221.335938 473.785156 221.117188 474.214844 C 221.007812 474.433594 220.6875 474.539062 220.46875 474.539062 Z M 220.46875 474.539062 "/><path style=" stroke:none;fill-rule:nonzero;fill:#45281a;fill-opacity:1;" d="M 211.515625 467.3125 C 211.304688 467.3125 210.976562 467.203125 210.871094 466.988281 C 206.554688 460.300781 204.398438 452.105469 204.9375 444.121094 C 204.9375 443.691406 205.371094 443.367188 205.691406 443.367188 C 206.125 443.367188 206.449219 443.796875 206.449219 444.230469 C 206.019531 451.886719 208.066406 459.65625 212.164062 466.125 C 212.378906 466.449219 212.273438 466.988281 211.949219 467.203125 C 211.734375 467.3125 211.625 467.3125 211.515625 467.3125 Z M 211.515625 467.3125 "/><path style=" stroke:none;fill-rule:nonzero;fill:#45281a;fill-opacity:1;" d="M 236.109375 485.109375 C 235.785156 485.109375 235.460938 484.894531 235.355469 484.570312 C 232.011719 474 230.933594 462.566406 232.226562 451.566406 C 232.226562 451.132812 232.660156 450.808594 233.089844 450.917969 C 233.519531 450.917969 233.84375 451.347656 233.738281 451.777344 C 232.550781 462.566406 233.628906 473.785156 236.863281 484.136719 C 236.972656 484.570312 236.753906 485.003906 236.324219 485.109375 C 236.324219 485.109375 236.21875 485.109375 236.109375 485.109375 Z M 236.109375 485.109375 "/><path style=" stroke:none;fill-rule:nonzero;fill:#45281a;fill-opacity:1;" d="M 224.03125 493.738281 C 223.707031 493.738281 223.382812 493.523438 223.273438 493.199219 C 223.167969 492.765625 223.488281 492.335938 223.8125 492.335938 L 231.902344 490.503906 C 236.003906 489.53125 240.640625 488.558594 245.171875 489.640625 C 245.601562 489.75 245.816406 490.179688 245.710938 490.609375 C 245.601562 491.042969 245.171875 491.257812 244.738281 491.152344 C 240.640625 490.179688 236.109375 491.152344 232.117188 492.011719 L 224.03125 493.847656 C 224.136719 493.738281 224.136719 493.738281 224.03125 493.738281 Z M 224.03125 493.738281 "/><path style=" stroke:none;fill-rule:nonzero;fill:#d7c7f7;fill-opacity:1;" d="M 573.0625 224.945312 L 557.207031 229.042969 C 556.667969 229.148438 556.234375 229.582031 556.128906 230.121094 L 552.03125 245.976562 C 551.597656 247.488281 549.441406 247.488281 549.007812 245.976562 L 544.910156 230.121094 C 544.804688 229.582031 544.371094 229.148438 543.832031 229.042969 L 527.976562 224.945312 C 526.464844 224.511719 526.464844 222.355469 527.976562 221.921875 L 543.832031 217.824219 C 544.371094 217.714844 544.804688 217.285156 544.910156 216.746094 L 549.007812 200.890625 C 549.441406 199.382812 551.597656 199.382812 552.03125 200.890625 L 556.128906 216.746094 C 556.234375 217.285156 556.667969 217.714844 557.207031 217.824219 L 573.0625 222.03125 C 574.683594 222.355469 574.683594 224.621094 573.0625 224.945312 Z M 573.0625 224.945312 "/><path style=" stroke:none;fill-rule:nonzero;fill:#d7c7f7;fill-opacity:1;" d="M 646.191406 463.644531 L 630.335938 467.746094 C 629.796875 467.851562 629.363281 468.285156 629.257812 468.824219 L 625.15625 484.675781 C 624.726562 486.1875 622.570312 486.1875 622.136719 484.675781 L 618.039062 468.824219 C 617.929688 468.285156 617.5 467.851562 616.960938 467.746094 L 601.105469 463.644531 C 599.597656 463.210938 599.597656 461.058594 601.105469 460.625 L 616.960938 456.523438 C 617.5 456.417969 617.929688 455.984375 618.039062 455.449219 L 622.136719 439.59375 C 622.570312 438.082031 624.726562 438.082031 625.15625 439.59375 L 629.257812 455.449219 C 629.363281 455.984375 629.796875 456.417969 630.335938 456.523438 L 646.191406 460.625 C 647.808594 461.058594 647.808594 463.210938 646.191406 463.644531 Z M 646.191406 463.644531 "/><path style=" stroke:none;fill-rule:nonzero;fill:#d7c7f7;fill-opacity:1;" d="M 290.363281 383.070312 L 274.507812 387.167969 C 273.96875 387.277344 273.535156 387.707031 273.429688 388.246094 L 269.328125 404.105469 C 268.898438 405.613281 266.742188 405.613281 266.3125 404.105469 L 262.210938 388.246094 C 262.101562 387.707031 261.671875 387.277344 261.132812 387.167969 L 245.277344 383.070312 C 243.769531 382.640625 243.769531 380.480469 245.277344 380.050781 L 261.132812 375.953125 C 261.671875 375.84375 262.101562 375.414062 262.210938 374.871094 L 266.3125 359.015625 C 266.742188 357.507812 268.898438 357.507812 269.328125 359.015625 L 273.429688 374.871094 C 273.535156 375.414062 273.96875 375.84375 274.507812 375.953125 L 290.363281 380.050781 C 291.871094 380.480469 291.871094 382.640625 290.363281 383.070312 Z M 290.363281 383.070312 "/></g></svg>