<svg xmlns="http://www.w3.org/2000/svg" xmlns:xlink="http://www.w3.org/1999/xlink" width="1080" zoomAndPan="magnify" viewBox="0 0 810 809.999993" height="1080" preserveAspectRatio="xMidYMid meet" version="1.2"><defs><clipPath id="854c19a4d8"><path d="M 68.277344 45.28125 L 720.777344 45.28125 L 720.777344 697.78125 L 68.277344 697.78125 Z M 68.277344 45.28125 "/></clipPath><clipPath id="88e9b3939b"><path d="M 68.277344 120.28125 L 68.277344 622.878906 C 68.277344 664.300781 101.855469 697.878906 143.277344 697.878906 L 645.878906 697.878906 C 687.300781 697.878906 720.878906 664.300781 720.878906 622.878906 L 720.878906 120.28125 C 720.878906 78.859375 687.300781 45.28125 645.878906 45.28125 L 143.277344 45.28125 C 101.855469 45.28125 68.277344 78.859375 68.277344 120.28125 Z M 68.277344 120.28125 "/></clipPath><clipPath id="93cc0ab677"><path d="M 109 91.195312 L 526.640625 91.195312 L 526.640625 358 L 109 358 Z M 109 91.195312 "/></clipPath><clipPath id="937a334c92"><path d="M 68.277344 120.28125 L 68.277344 622.878906 C 68.277344 664.300781 101.855469 697.878906 143.277344 697.878906 L 645.878906 697.878906 C 687.300781 697.878906 720.878906 664.300781 720.878906 622.878906 L 720.878906 120.28125 C 720.878906 78.859375 687.300781 45.28125 645.878906 45.28125 L 143.277344 45.28125 C 101.855469 45.28125 68.277344 78.859375 68.277344 120.28125 Z M 68.277344 120.28125 "/></clipPath><clipPath id="0caed82503"><path d="M 109 241.03125 L 376.804688 241.03125 L 376.804688 658 L 109 658 Z M 109 241.03125 "/></clipPath><clipPath id="0b22f062cc"><path d="M 68.277344 120.28125 L 68.277344 622.878906 C 68.277344 664.300781 101.855469 697.878906 143.277344 697.878906 L 645.878906 697.878906 C 687.300781 697.878906 720.878906 664.300781 720.878906 622.878906 L 720.878906 120.28125 C 720.878906 78.859375 687.300781 45.28125 645.878906 45.28125 L 143.277344 45.28125 C 101.855469 45.28125 68.277344 78.859375 68.277344 120.28125 Z M 68.277344 120.28125 "/></clipPath><clipPath id="263af4873b"><path d="M 259 391 L 677 391 L 677 658 L 259 658 Z M 259 391 "/></clipPath><clipPath id="650b516eb5"><path d="M 68.277344 120.28125 L 68.277344 622.878906 C 68.277344 664.300781 101.855469 697.878906 143.277344 697.878906 L 645.878906 697.878906 C 687.300781 697.878906 720.878906 664.300781 720.878906 622.878906 L 720.878906 120.28125 C 720.878906 78.859375 687.300781 45.28125 645.878906 45.28125 L 143.277344 45.28125 C 101.855469 45.28125 68.277344 78.859375 68.277344 120.28125 Z M 68.277344 120.28125 "/></clipPath><clipPath id="662c29263f"><path d="M 408 91 L 676 91 L 676 508 L 408 508 Z M 408 91 "/></clipPath><clipPath id="f1c66de817"><path d="M 68.277344 120.28125 L 68.277344 622.878906 C 68.277344 664.300781 101.855469 697.878906 143.277344 697.878906 L 645.878906 697.878906 C 687.300781 697.878906 720.878906 664.300781 720.878906 622.878906 L 720.878906 120.28125 C 720.878906 78.859375 687.300781 45.28125 645.878906 45.28125 L 143.277344 45.28125 C 101.855469 45.28125 68.277344 78.859375 68.277344 120.28125 Z M 68.277344 120.28125 "/></clipPath><clipPath id="a2ce0c5b05"><path d="M 109 91 L 227 91 L 227 209 L 109 209 Z M 109 91 "/></clipPath><clipPath id="b630687462"><path d="M 68.277344 120.28125 L 68.277344 622.878906 C 68.277344 664.300781 101.855469 697.878906 143.277344 697.878906 L 645.878906 697.878906 C 687.300781 697.878906 720.878906 664.300781 720.878906 622.878906 L 720.878906 120.28125 C 720.878906 78.859375 687.300781 45.28125 645.878906 45.28125 L 143.277344 45.28125 C 101.855469 45.28125 68.277344 78.859375 68.277344 120.28125 Z M 68.277344 120.28125 "/></clipPath><clipPath id="597a063932"><path d="M 109 541 L 227 541 L 227 659 L 109 659 Z M 109 541 "/></clipPath><clipPath id="0bdbdc4c52"><path d="M 68.277344 120.28125 L 68.277344 622.878906 C 68.277344 664.300781 101.855469 697.878906 143.277344 697.878906 L 645.878906 697.878906 C 687.300781 697.878906 720.878906 664.300781 720.878906 622.878906 L 720.878906 120.28125 C 720.878906 78.859375 687.300781 45.28125 645.878906 45.28125 L 143.277344 45.28125 C 101.855469 45.28125 68.277344 78.859375 68.277344 120.28125 Z M 68.277344 120.28125 "/></clipPath><clipPath id="47a298a610"><path d="M 559 91 L 677 91 L 677 209 L 559 209 Z M 559 91 "/></clipPath><clipPath id="4dfd932c4d"><path d="M 68.277344 120.28125 L 68.277344 622.878906 C 68.277344 664.300781 101.855469 697.878906 143.277344 697.878906 L 645.878906 697.878906 C 687.300781 697.878906 720.878906 664.300781 720.878906 622.878906 L 720.878906 120.28125 C 720.878906 78.859375 687.300781 45.28125 645.878906 45.28125 L 143.277344 45.28125 C 101.855469 45.28125 68.277344 78.859375 68.277344 120.28125 Z M 68.277344 120.28125 "/></clipPath><clipPath id="4b4dcf8164"><path d="M 559 541 L 677 541 L 677 659 L 559 659 Z M 559 541 "/></clipPath><clipPath id="52c346c7e8"><path d="M 68.277344 120.28125 L 68.277344 622.878906 C 68.277344 664.300781 101.855469 697.878906 143.277344 697.878906 L 645.878906 697.878906 C 687.300781 697.878906 720.878906 664.300781 720.878906 622.878906 L 720.878906 120.28125 C 720.878906 78.859375 687.300781 45.28125 645.878906 45.28125 L 143.277344 45.28125 C 101.855469 45.28125 68.277344 78.859375 68.277344 120.28125 Z M 68.277344 120.28125 "/></clipPath></defs><g id="b83f2c8b8e"><rect x="0" width="810" y="0" height="809.999993" style="fill:#ffffff;fill-opacity:1;stroke:none;"/><rect x="0" width="810" y="0" height="809.999993" style="fill:#c4e1e6;fill-opacity:1;stroke:none;"/><g clip-rule="nonzero" clip-path="url(#854c19a4d8)"><g clip-rule="nonzero" clip-path="url(#88e9b3939b)"><path style=" stroke:none;fill-rule:nonzero;fill:#ffffff;fill-opacity:1;" d="M 3.027344 -19.96875 L 786.027344 -19.96875 L 786.027344 763.03125 L 3.027344 763.03125 Z M 3.027344 -19.96875 "/><path style=" stroke:none;fill-rule:nonzero;fill:#ffffff;fill-opacity:1;" d="M 3.027344 -19.96875 L 786.027344 -19.96875 L 786.027344 763.03125 L 3.027344 763.03125 Z M 3.027344 -19.96875 "/></g></g><g clip-rule="nonzero" clip-path="url(#93cc0ab677)"><g clip-rule="nonzero" clip-path="url(#937a334c92)"><path style=" stroke:none;fill-rule:nonzero;fill:#366994;fill-opacity:1;" d="M 376.109375 149.984375 C 376.421875 159.949219 373.839844 169.203125 368.867188 177.722656 C 367.128906 180.699219 367.585938 182.324219 369.921875 184.644531 C 390.886719 205.445312 411.777344 226.324219 432.542969 247.332031 C 435.273438 250.082031 437.097656 250.171875 440.519531 248.332031 C 462.71875 236.453125 489.261719 239.890625 507.441406 256.648438 C 525.632812 273.410156 531.289062 300.117188 521.4375 322.722656 C 511.585938 345.324219 488.488281 359.332031 463.605469 357.789062 C 422.71875 355.238281 397.011719 310.019531 416.039062 273.558594 C 418.664062 268.527344 417.726562 266.128906 414.140625 262.59375 C 393.855469 242.617188 373.710938 222.46875 353.730469 202.175781 C 350.800781 199.210938 348.789062 199.066406 345.226562 200.945312 C 326.929688 210.527344 308.449219 210.515625 290.269531 200.703125 C 287 198.929688 285.351562 199.273438 282.867188 201.785156 C 262.089844 222.761719 241.207031 243.652344 220.203125 264.417969 C 217.566406 267.03125 217.628906 268.894531 219.230469 272 C 240.121094 312.679688 211.417969 358.8125 165.933594 357.851562 C 134.722656 357.175781 108.863281 330.457031 109.101562 299.117188 C 109.34375 267.574219 135.355469 241.664062 166.78125 241.398438 C 177.179688 241.308594 186.835938 243.554688 195.75 248.789062 C 198.402344 250.347656 199.984375 250.15625 202.191406 247.953125 C 223.398438 226.792969 244.644531 205.6875 266.109375 184.78125 C 269.277344 181.6875 268.058594 179.632812 266.527344 176.667969 C 248.929688 142.796875 267.058594 102.355469 303.859375 93.203125 C 340.925781 83.988281 376.144531 111.648438 376.121094 149.984375 Z M 352.046875 150.488281 C 352.132812 131.765625 336.65625 116.148438 317.96875 116.125 C 299.183594 116.097656 283.742188 131.628906 283.882812 150.425781 C 284.019531 169.113281 298.953125 184.136719 317.652344 184.414062 C 336.429688 184.679688 351.96875 169.367188 352.046875 150.503906 Z M 466.949219 265.5 C 448.101562 265.648438 432.835938 281.242188 433.15625 299.992188 C 433.46875 318.675781 448.570312 333.636719 467.179688 333.6875 C 485.777344 333.738281 501.519531 318.007812 501.417969 299.433594 C 501.316406 280.773438 485.636719 265.332031 466.949219 265.484375 Z M 167.820312 266.347656 C 148.503906 266.484375 134.101562 281.152344 134.203125 300.585938 C 134.304688 319.691406 149.1875 334.144531 168.621094 334.015625 C 187.484375 333.902344 202.101562 319.097656 202.0625 300.15625 C 202.027344 281.113281 186.941406 266.207031 167.808594 266.347656 Z M 167.820312 266.347656 "/></g></g><g clip-rule="nonzero" clip-path="url(#0caed82503)"><g clip-rule="nonzero" clip-path="url(#0b22f062cc)"><path style=" stroke:none;fill-rule:nonzero;fill:#366994;fill-opacity:1;" d="M 259.222656 599.335938 C 259.085938 589.191406 261.480469 579.660156 266.679688 571 C 268.328125 568.25 267.921875 566.765625 265.789062 564.652344 C 244.542969 543.542969 223.273438 522.449219 202.328125 501.050781 C 198.894531 497.539062 196.839844 499.796875 194.265625 501.113281 C 155.109375 521.128906 108.632812 492.609375 109.101562 448.792969 C 109.574219 405.628906 156.046875 377.703125 194.164062 397.882812 C 198.324219 400.089844 200.503906 399.71875 203.726562 396.476562 C 223.777344 376.269531 244 356.214844 264.359375 336.3125 C 267.820312 332.925781 268.671875 330.605469 266.285156 325.777344 C 255.140625 303.1875 257.449219 281.304688 273.484375 262.074219 C 289.269531 243.160156 310.363281 237.140625 333.929688 243.667969 C 357.96875 250.320312 372.253906 267.183594 375.640625 291.726562 C 378.78125 314.632812 370.441406 333.886719 351.324219 347.191406 C 332.308594 360.425781 311.746094 361.664062 291.019531 350.976562 C 286.949219 348.886719 284.96875 349.433594 282.003906 352.449219 C 261.710938 373.011719 241.273438 393.445312 220.710938 413.742188 C 217.859375 416.570312 217.375 418.546875 219.328125 422.222656 C 228.976562 440.480469 229.066406 458.949219 219.125 477.128906 C 217.160156 480.714844 218.011719 482.566406 220.585938 485.128906 C 241.183594 505.6875 261.710938 526.328125 282.082031 547.117188 C 285.113281 550.210938 287.164062 550.554688 291.117188 548.488281 C 329.988281 528.140625 376.601562 556.597656 375.851562 600.046875 C 375.296875 632.027344 349.269531 657.761719 317.460938 657.773438 C 285.453125 657.789062 259.441406 631.699219 259.25 599.335938 Z M 317.640625 334.003906 C 336.960938 334.082031 351.957031 319.4375 352.046875 300.410156 C 352.132812 281.507812 337.011719 266.386719 317.980469 266.347656 C 298.828125 266.308594 283.753906 281.332031 283.882812 300.335938 C 284.007812 319.183594 298.789062 333.941406 317.652344 334.015625 Z M 317.105469 633.234375 C 335.589844 633.839844 351.398438 619.085938 352.03125 600.628906 C 352.679688 582.082031 338.390625 566.195312 320.457031 565.488281 C 299.941406 564.675781 284.3125 578.9375 283.882812 598.851562 C 283.476562 617.238281 298.332031 632.609375 317.105469 633.234375 Z M 168.101562 483.339844 C 187.316406 483.339844 202.140625 468.480469 202.039062 449.316406 C 201.949219 430.3125 187.460938 415.773438 168.445312 415.554688 C 149.429688 415.351562 134.203125 430.363281 134.175781 449.355469 C 134.152344 468.621094 148.84375 483.339844 168.089844 483.339844 Z M 168.101562 483.339844 "/></g></g><g clip-rule="nonzero" clip-path="url(#263af4873b)"><g clip-rule="nonzero" clip-path="url(#650b516eb5)"><path style=" stroke:none;fill-rule:nonzero;fill:#366994;fill-opacity:1;" d="M 615.03125 507.605469 C 607.574219 507.808594 598.464844 505.410156 590.121094 500.558594 C 587.027344 498.757812 585.316406 498.703125 582.691406 501.367188 C 561.777344 522.523438 540.742188 543.554688 519.585938 564.484375 C 517.101562 566.945312 517.355469 568.527344 518.839844 571.382812 C 538.792969 609.90625 514.996094 653.949219 471.792969 657.433594 C 450.015625 659.199219 432.085938 650.167969 419.820312 632.015625 C 407.265625 613.457031 405.960938 593.414062 416.050781 573.320312 C 418.5625 568.339844 417.789062 565.96875 414.164062 562.410156 C 394.007812 542.59375 374.015625 522.585938 354.175781 502.445312 C 351.007812 499.226562 348.824219 498.894531 344.707031 500.949219 C 323.40625 511.53125 302.476562 510.34375 283.386719 496.054688 C 263.671875 481.3125 256.015625 460.914062 261.214844 436.917969 C 266.171875 413.984375 280.761719 398.886719 303.683594 393.15625 C 327.65625 387.160156 348.207031 394.21875 363.453125 413.398438 C 378.746094 432.632812 380.53125 454.171875 369.492188 476.203125 C 367.320312 480.523438 368.03125 482.59375 371.085938 485.660156 C 391.394531 505.945312 411.578125 526.328125 431.617188 546.863281 C 434.472656 549.78125 436.347656 550.023438 440.035156 548.105469 C 458.320312 538.613281 476.890625 538.523438 495.054688 548.375 C 498.808594 550.402344 500.46875 549.347656 502.929688 546.917969 C 523.628906 526.441406 544.367188 506.007812 565.261719 485.722656 C 568.203125 482.871094 568.40625 480.929688 566.425781 477.253906 C 554.703125 455.359375 558.164062 428.90625 574.691406 410.867188 C 591.222656 392.839844 616.984375 386.945312 639.535156 396.03125 C 662 405.085938 676.792969 427.925781 676.019531 452.371094 C 675.058594 483 648.742188 507.757812 615.019531 507.617188 Z M 317.613281 483.355469 C 336.921875 483.441406 351.945312 468.773438 352.058594 449.734375 C 352.171875 430.628906 337.289062 415.644531 318.132812 415.566406 C 299.246094 415.492188 283.792969 430.84375 283.882812 449.605469 C 283.96875 468.40625 298.839844 483.277344 317.613281 483.367188 Z M 617.691406 483.355469 C 636.570312 483.378906 651.984375 468.0625 651.921875 449.355469 C 651.847656 430.386719 636.609375 415.402344 617.566406 415.566406 C 598.675781 415.734375 583.847656 430.453125 583.730469 449.175781 C 583.605469 468.039062 598.804688 483.339844 617.707031 483.367188 Z M 501.699219 599.109375 C 501.625 579.824219 486.996094 565.398438 467.574219 565.476562 C 448.402344 565.539062 433.980469 580.332031 434.105469 599.753906 C 434.230469 618.53125 449.101562 633.273438 467.898438 633.257812 C 486.980469 633.246094 501.773438 618.300781 501.699219 599.121094 Z M 501.699219 599.109375 "/></g></g><g clip-rule="nonzero" clip-path="url(#662c29263f)"><g clip-rule="nonzero" clip-path="url(#f1c66de817)"><path style=" stroke:none;fill-rule:nonzero;fill:#366994;fill-opacity:1;" d="M 467.355469 507.792969 C 437.058594 507.628906 411.296875 484.125 409.128906 454.484375 C 406.859375 423.453125 428.144531 396.742188 458.558594 391.914062 C 471.398438 389.871094 483.328125 392.039062 494.511719 398.199219 C 498.273438 400.269531 500.292969 399.582031 503.082031 396.792969 C 523.65625 376.207031 544.332031 355.734375 565.132812 335.359375 C 567.9375 332.609375 568.59375 330.746094 566.582031 326.917969 C 557.007812 308.6875 556.882812 290.140625 566.695312 271.960938 C 568.65625 268.3125 567.898438 266.574219 565.351562 264.050781 C 544.546875 243.402344 523.769531 222.710938 503.195312 201.835938 C 500.394531 198.992188 498.542969 199.246094 495.308594 200.867188 C 473.367188 211.910156 451.964844 210.671875 432.378906 195.761719 C 413.136719 181.105469 406.089844 160.824219 411.070312 137.457031 C 416.257812 113.144531 432.167969 97.652344 456.378906 92.695312 C 479.804688 87.90625 499.972656 95.523438 514.378906 114.894531 C 528.523438 133.933594 530.207031 154.839844 519.484375 176.136719 C 517.265625 180.546875 517.695312 182.703125 521.070312 186.050781 C 541.441406 206.246094 561.597656 226.65625 581.667969 247.140625 C 584.542969 250.082031 586.597656 251.046875 590.652344 248.890625 C 612.851562 237.097656 639.132812 240.496094 656.917969 257.042969 C 674.90625 273.773438 680.457031 300.082031 670.746094 322.570312 C 660.910156 345.363281 637.355469 359.652344 612.382812 357.710938 C 604.128906 357.0625 596.195312 354.808594 589.09375 350.421875 C 586.164062 348.609375 584.402344 349.140625 582.097656 351.460938 C 561.152344 372.566406 540.136719 393.613281 519.003906 414.527344 C 516.542969 416.960938 516.707031 418.671875 518.191406 421.539062 C 536.761719 457.226562 517.757812 497.996094 478.613281 506.539062 C 474.9375 507.335938 471.097656 507.375 467.332031 507.769531 Z M 583.707031 299.773438 C 583.835938 318.183594 599.144531 333.511719 617.59375 333.675781 C 636.113281 333.839844 651.949219 318.070312 651.910156 299.484375 C 651.859375 280.597656 636.558594 265.410156 617.640625 265.472656 C 598.714844 265.546875 583.578125 280.835938 583.707031 299.761719 Z M 434.09375 449.480469 C 434.117188 468.59375 449.015625 483.402344 468.128906 483.339844 C 486.839844 483.277344 501.625 468.433594 501.6875 449.628906 C 501.761719 430.210938 487.308594 415.617188 467.949219 415.566406 C 448.621094 415.515625 434.054688 430.097656 434.078125 449.492188 Z M 501.6875 149.5 C 501.636719 130.105469 487.09375 115.769531 467.597656 115.871094 C 448.722656 115.96875 434.128906 130.640625 434.09375 149.5625 C 434.054688 169.011719 448.480469 183.476562 467.925781 183.449219 C 487.359375 183.4375 501.75 168.972656 501.699219 149.488281 Z M 501.6875 149.5 "/></g></g><g clip-rule="nonzero" clip-path="url(#a2ce0c5b05)"><g clip-rule="nonzero" clip-path="url(#b630687462)"><path style=" stroke:none;fill-rule:nonzero;fill:#366994;fill-opacity:1;" d="M 226.53125 149.957031 C 226.351562 181.828125 199.390625 208.515625 167.757812 208.109375 C 135.242188 207.675781 109.75 181.75 109.964844 149.335938 C 110.191406 116.855469 136.332031 90.921875 168.445312 91.304688 C 200.859375 91.691406 226.707031 117.796875 226.53125 149.945312 Z M 134.203125 149.769531 C 134.074219 169.089844 148.640625 184.136719 167.71875 184.414062 C 186.574219 184.695312 201.882812 169.558594 202.0625 150.519531 C 202.226562 131.742188 186.8125 116.136719 168.101562 116.125 C 149.367188 116.125 134.34375 131.03125 134.214844 149.769531 Z M 134.203125 149.769531 "/></g></g><g clip-rule="nonzero" clip-path="url(#597a063932)"><g clip-rule="nonzero" clip-path="url(#0bdbdc4c52)"><path style=" stroke:none;fill-rule:nonzero;fill:#366994;fill-opacity:1;" d="M 168.101562 658.054688 C 135.726562 658.054688 109.964844 632.296875 109.976562 599.917969 C 109.988281 567.683594 136.027344 541.578125 168.140625 541.601562 C 199.832031 541.628906 226.316406 568.164062 226.53125 600.109375 C 226.734375 632.128906 200.605469 658.054688 168.113281 658.066406 Z M 168.304688 565.460938 C 148.996094 565.421875 134.226562 580.027344 134.203125 599.222656 C 134.175781 618.222656 149.25 633.308594 168.214844 633.246094 C 186.992188 633.183594 201.820312 618.4375 202.050781 599.640625 C 202.277344 580.511719 187.460938 565.5 168.304688 565.460938 Z M 168.304688 565.460938 "/></g></g><g clip-rule="nonzero" clip-path="url(#47a298a610)"><g clip-rule="nonzero" clip-path="url(#4dfd932c4d)"><path style=" stroke:none;fill-rule:nonzero;fill:#366994;fill-opacity:1;" d="M 559.65625 149.527344 C 559.683594 117.390625 586.089844 91.035156 618.011719 91.304688 C 650.410156 91.566406 676.125 117.492188 676.070312 149.820312 C 676.019531 181.800781 649.4375 208.296875 617.59375 208.082031 C 585.214844 207.867188 559.632812 182.007812 559.65625 149.527344 Z M 583.707031 150.3125 C 583.730469 169.226562 599.109375 184.542969 617.933594 184.414062 C 636.785156 184.289062 652.1875 168.671875 651.898438 149.984375 C 651.617188 131.503906 636.226562 116.210938 617.835938 116.136719 C 599.007812 116.0625 583.667969 131.410156 583.691406 150.324219 Z M 583.707031 150.3125 "/></g></g><g clip-rule="nonzero" clip-path="url(#4b4dcf8164)"><g clip-rule="nonzero" clip-path="url(#52c346c7e8)"><path style=" stroke:none;fill-rule:nonzero;fill:#366994;fill-opacity:1;" d="M 617.554688 658.054688 C 584.960938 657.96875 559.570312 632.117188 559.671875 599.109375 C 559.769531 567.539062 586.128906 541.539062 617.949219 541.601562 C 649.894531 541.667969 676.25 568.542969 676.070312 600.859375 C 675.894531 632.460938 649.628906 658.132812 617.554688 658.054688 Z M 618.097656 565.460938 C 598.820312 565.386719 583.820312 580.082031 583.707031 599.121094 C 583.605469 617.933594 598.90625 633.257812 617.785156 633.257812 C 636.644531 633.257812 652.109375 617.78125 651.921875 599.109375 C 651.730469 580.292969 636.886719 565.527344 618.097656 565.460938 Z M 618.097656 565.460938 "/></g></g></g></svg>