<svg xmlns="http://www.w3.org/2000/svg" xmlns:xlink="http://www.w3.org/1999/xlink" width="1080" zoomAndPan="magnify" viewBox="0 0 810 809.999993" height="1080" preserveAspectRatio="xMidYMid meet" version="1.2"><defs><clipPath id="e8b98f59a7"><path d="M 114.046875 159.144531 L 696 159.144531 L 696 428 L 114.046875 428 Z M 114.046875 159.144531 "/></clipPath><clipPath id="1336380a03"><path d="M 114.046875 386 L 696 386 L 696 651 L 114.046875 651 Z M 114.046875 386 "/></clipPath></defs><g id="bd7d8e0233"><rect x="0" width="810" y="0" height="809.999993" style="fill:#ffffff;fill-opacity:1;stroke:none;"/><rect x="0" width="810" y="0" height="809.999993" style="fill:#ffffff;fill-opacity:1;stroke:none;"/><g clip-rule="nonzero" clip-path="url(#e8b98f59a7)"><path style=" stroke:none;fill-rule:nonzero;fill:#1800ad;fill-opacity:1;" d="M 679.566406 248.546875 L 561.445312 248.546875 L 561.445312 207.867188 C 561.445312 206.273438 561.367188 204.679688 561.210938 203.09375 C 561.054688 201.503906 560.820312 199.929688 560.511719 198.363281 C 560.199219 196.796875 559.8125 195.25 559.347656 193.726562 C 558.886719 192.199219 558.347656 190.695312 557.738281 189.222656 C 557.128906 187.75 556.445312 186.308594 555.695312 184.898438 C 554.941406 183.492188 554.121094 182.125 553.234375 180.800781 C 552.347656 179.472656 551.398438 178.191406 550.386719 176.957031 C 549.375 175.726562 548.304688 174.542969 547.175781 173.414062 C 546.046875 172.289062 544.867188 171.21875 543.632812 170.203125 C 542.398438 169.191406 541.117188 168.242188 539.792969 167.355469 C 538.464844 166.46875 537.097656 165.648438 535.691406 164.898438 C 534.285156 164.144531 532.84375 163.464844 531.367188 162.855469 C 529.894531 162.242188 528.394531 161.707031 526.867188 161.242188 C 525.339844 160.78125 523.792969 160.390625 522.226562 160.082031 C 520.664062 159.769531 519.085938 159.535156 517.5 159.378906 C 515.910156 159.222656 514.320312 159.144531 512.722656 159.144531 L 297.265625 159.144531 C 295.671875 159.144531 294.078125 159.222656 292.488281 159.378906 C 290.902344 159.535156 289.324219 159.769531 287.761719 160.082031 C 286.195312 160.390625 284.648438 160.78125 283.121094 161.242188 C 281.59375 161.707031 280.09375 162.242188 278.621094 162.855469 C 277.144531 163.464844 275.703125 164.144531 274.296875 164.898438 C 272.890625 165.648438 271.523438 166.46875 270.195312 167.355469 C 268.871094 168.242188 267.589844 169.191406 266.355469 170.203125 C 265.121094 171.21875 263.941406 172.289062 262.8125 173.414062 C 261.683594 174.542969 260.613281 175.726562 259.601562 176.957031 C 258.589844 178.191406 257.640625 179.472656 256.753906 180.800781 C 255.867188 182.125 255.046875 183.492188 254.296875 184.898438 C 253.542969 186.308594 252.863281 187.75 252.25 189.222656 C 251.640625 190.695312 251.101562 192.199219 250.640625 193.726562 C 250.175781 195.25 249.789062 196.796875 249.476562 198.363281 C 249.167969 199.929688 248.933594 201.503906 248.777344 203.09375 C 248.621094 204.679688 248.542969 206.273438 248.542969 207.867188 L 248.542969 248.546875 L 130.421875 248.546875 C 129.53125 248.546875 128.648438 248.621094 127.769531 248.765625 C 126.894531 248.90625 126.03125 249.117188 125.1875 249.398438 C 124.34375 249.679688 123.527344 250.023438 122.738281 250.433594 C 121.949219 250.84375 121.199219 251.3125 120.484375 251.84375 C 119.769531 252.371094 119.101562 252.953125 118.480469 253.589844 C 117.859375 254.226562 117.289062 254.90625 116.777344 255.632812 C 116.265625 256.359375 115.8125 257.121094 115.417969 257.917969 C 115.027344 258.71875 114.699219 259.542969 114.441406 260.390625 L 114.441406 311.6875 C 114.449219 313.582031 114.5 315.476562 114.601562 317.371094 C 114.703125 319.265625 114.847656 321.15625 115.039062 323.042969 C 115.234375 324.929688 115.472656 326.8125 115.757812 328.6875 C 116.042969 330.5625 116.375 332.429688 116.75 334.289062 C 117.125 336.148438 117.546875 337.996094 118.015625 339.832031 C 118.484375 341.671875 118.996094 343.496094 119.550781 345.3125 C 120.109375 347.125 120.707031 348.921875 121.351562 350.707031 C 121.996094 352.492188 122.6875 354.257812 123.417969 356.007812 C 124.148438 357.757812 124.921875 359.488281 125.738281 361.199219 C 126.554688 362.914062 127.414062 364.605469 128.3125 366.273438 C 129.210938 367.945312 130.148438 369.589844 131.128906 371.214844 C 132.109375 372.839844 133.128906 374.4375 134.1875 376.011719 C 135.246094 377.585938 136.339844 379.132812 137.472656 380.65625 C 138.609375 382.175781 139.777344 383.667969 140.984375 385.128906 C 142.191406 386.59375 143.433594 388.027344 144.710938 389.429688 C 145.988281 390.832031 147.300781 392.199219 148.644531 393.539062 C 149.988281 394.875 151.367188 396.179688 152.773438 397.449219 C 154.183594 398.722656 155.621094 399.957031 157.089844 401.15625 C 158.558594 402.355469 160.054688 403.519531 161.582031 404.648438 C 163.109375 405.773438 164.660156 406.863281 166.238281 407.914062 C 167.820312 408.964844 169.421875 409.972656 171.050781 410.945312 C 172.679688 411.917969 174.332031 412.851562 176.007812 413.742188 C 177.679688 414.632812 179.375 415.480469 181.09375 416.289062 C 182.808594 417.097656 184.542969 417.863281 186.296875 418.585938 C 188.050781 419.308594 189.820312 419.988281 191.609375 420.625 C 193.394531 421.261719 195.195312 421.851562 197.011719 422.398438 C 198.828125 422.949219 200.65625 423.449219 202.496094 423.910156 C 204.335938 424.367188 206.1875 424.78125 208.046875 425.148438 C 209.910156 425.515625 211.777344 425.835938 213.65625 426.113281 C 215.53125 426.390625 217.414062 426.617188 219.300781 426.800781 C 221.1875 426.984375 223.082031 427.125 224.976562 427.214844 C 226.871094 427.304688 228.765625 427.351562 230.660156 427.347656 L 237.367188 427.347656 L 237.367188 405 C 237.367188 404.265625 237.402344 403.535156 237.472656 402.808594 C 237.546875 402.078125 237.652344 401.355469 237.796875 400.636719 C 237.9375 399.921875 238.117188 399.210938 238.328125 398.511719 C 238.542969 397.808594 238.789062 397.121094 239.066406 396.445312 C 239.347656 395.769531 239.660156 395.109375 240.007812 394.460938 C 240.351562 393.816406 240.726562 393.191406 241.132812 392.582031 C 241.539062 391.972656 241.976562 391.386719 242.441406 390.820312 C 242.90625 390.253906 243.394531 389.710938 243.914062 389.195312 C 244.429688 388.675781 244.972656 388.1875 245.539062 387.722656 C 246.105469 387.257812 246.691406 386.820312 247.300781 386.414062 C 247.910156 386.007812 248.535156 385.632812 249.179688 385.285156 C 249.828125 384.941406 250.488281 384.628906 251.164062 384.347656 C 251.839844 384.070312 252.527344 383.824219 253.230469 383.609375 C 253.929688 383.398438 254.640625 383.21875 255.355469 383.078125 C 256.074219 382.933594 256.796875 382.828125 257.527344 382.753906 C 258.253906 382.683594 258.984375 382.648438 259.71875 382.648438 C 260.449219 382.648438 261.179688 382.683594 261.90625 382.753906 C 262.636719 382.828125 263.359375 382.933594 264.078125 383.078125 C 264.796875 383.21875 265.503906 383.398438 266.207031 383.609375 C 266.90625 383.824219 267.59375 384.070312 268.269531 384.347656 C 268.945312 384.628906 269.609375 384.941406 270.253906 385.285156 C 270.898438 385.632812 271.527344 386.007812 272.132812 386.414062 C 272.742188 386.820312 273.332031 387.257812 273.894531 387.722656 C 274.460938 388.1875 275.003906 388.675781 275.519531 389.195312 C 276.039062 389.710938 276.53125 390.253906 276.996094 390.820312 C 277.457031 391.386719 277.894531 391.972656 278.300781 392.582031 C 278.707031 393.191406 279.082031 393.816406 279.429688 394.460938 C 279.773438 395.109375 280.085938 395.769531 280.367188 396.445312 C 280.644531 397.121094 280.894531 397.808594 281.105469 398.511719 C 281.316406 399.210938 281.496094 399.921875 281.636719 400.636719 C 281.78125 401.355469 281.886719 402.078125 281.960938 402.808594 C 282.03125 403.535156 282.066406 404.265625 282.066406 405 L 282.066406 427.347656 L 527.921875 427.347656 L 527.921875 405 C 527.921875 404.265625 527.957031 403.535156 528.027344 402.808594 C 528.101562 402.078125 528.207031 401.355469 528.351562 400.636719 C 528.492188 399.921875 528.671875 399.210938 528.882812 398.511719 C 529.097656 397.808594 529.34375 397.121094 529.621094 396.445312 C 529.902344 395.769531 530.214844 395.109375 530.558594 394.460938 C 530.90625 393.816406 531.28125 393.191406 531.6875 392.582031 C 532.09375 391.972656 532.53125 391.386719 532.996094 390.820312 C 533.457031 390.253906 533.949219 389.710938 534.46875 389.195312 C 534.984375 388.675781 535.527344 388.1875 536.09375 387.722656 C 536.660156 387.257812 537.246094 386.820312 537.855469 386.414062 C 538.460938 386.007812 539.089844 385.632812 539.734375 385.285156 C 540.382812 384.941406 541.042969 384.628906 541.71875 384.347656 C 542.394531 384.070312 543.082031 383.824219 543.785156 383.609375 C 544.484375 383.398438 545.191406 383.21875 545.910156 383.078125 C 546.628906 382.933594 547.351562 382.828125 548.082031 382.753906 C 548.808594 382.683594 549.539062 382.648438 550.269531 382.648438 C 551.003906 382.648438 551.734375 382.683594 552.460938 382.753906 C 553.191406 382.828125 553.914062 382.933594 554.632812 383.078125 C 555.347656 383.21875 556.058594 383.398438 556.757812 383.609375 C 557.460938 383.824219 558.148438 384.070312 558.824219 384.347656 C 559.5 384.628906 560.160156 384.941406 560.808594 385.285156 C 561.453125 385.632812 562.078125 386.007812 562.6875 386.414062 C 563.296875 386.820312 563.882812 387.257812 564.449219 387.722656 C 565.015625 388.1875 565.558594 388.675781 566.074219 389.195312 C 566.59375 389.710938 567.085938 390.253906 567.546875 390.820312 C 568.011719 391.386719 568.449219 391.972656 568.855469 392.582031 C 569.261719 393.191406 569.636719 393.816406 569.984375 394.460938 C 570.328125 395.109375 570.640625 395.769531 570.921875 396.445312 C 571.199219 397.121094 571.445312 397.808594 571.660156 398.511719 C 571.871094 399.210938 572.050781 399.921875 572.191406 400.636719 C 572.335938 401.355469 572.441406 402.078125 572.515625 402.808594 C 572.585938 403.535156 572.621094 404.265625 572.621094 405 L 572.621094 427.347656 L 578.878906 427.347656 C 580.78125 427.359375 582.683594 427.320312 584.582031 427.234375 C 586.480469 427.152344 588.378906 427.019531 590.269531 426.84375 C 592.164062 426.667969 594.050781 426.441406 595.933594 426.171875 C 597.816406 425.902344 599.691406 425.585938 601.554688 425.222656 C 603.421875 424.863281 605.28125 424.453125 607.125 424 C 608.972656 423.546875 610.808594 423.050781 612.628906 422.503906 C 614.449219 421.960938 616.257812 421.375 618.050781 420.742188 C 619.84375 420.109375 621.621094 419.433594 623.382812 418.714844 C 625.140625 417.996094 626.882812 417.230469 628.605469 416.425781 C 630.328125 415.621094 632.03125 414.773438 633.710938 413.886719 C 635.390625 412.996094 637.050781 412.066406 638.683594 411.097656 C 640.320312 410.128906 641.929688 409.117188 643.515625 408.066406 C 645.101562 407.019531 646.660156 405.929688 648.191406 404.804688 C 649.726562 403.679688 651.230469 402.515625 652.703125 401.316406 C 654.179688 400.117188 655.625 398.882812 657.039062 397.609375 C 658.453125 396.339844 659.835938 395.035156 661.183594 393.695312 C 662.535156 392.359375 663.851562 390.988281 665.136719 389.582031 C 666.417969 388.179688 667.664062 386.746094 668.878906 385.28125 C 670.089844 383.816406 671.265625 382.324219 672.40625 380.800781 C 673.546875 379.277344 674.644531 377.730469 675.710938 376.152344 C 676.773438 374.578125 677.796875 372.976562 678.78125 371.347656 C 679.765625 369.722656 680.707031 368.070312 681.613281 366.398438 C 682.515625 364.726562 683.375 363.03125 684.195312 361.316406 C 685.015625 359.597656 685.792969 357.863281 686.527344 356.109375 C 687.261719 354.355469 687.953125 352.585938 688.601562 350.800781 C 689.25 349.011719 689.855469 347.207031 690.414062 345.390625 C 690.972656 343.574219 691.488281 341.746094 691.957031 339.902344 C 692.425781 338.058594 692.847656 336.207031 693.226562 334.34375 C 693.605469 332.480469 693.9375 330.609375 694.226562 328.726562 C 694.511719 326.847656 694.75 324.960938 694.945312 323.070312 C 695.140625 321.179688 695.285156 319.285156 695.386719 317.386719 C 695.488281 315.488281 695.542969 313.585938 695.546875 311.6875 L 695.546875 260.390625 C 695.289062 259.542969 694.960938 258.71875 694.570312 257.917969 C 694.175781 257.121094 693.726562 256.359375 693.210938 255.632812 C 692.699219 254.90625 692.128906 254.226562 691.507812 253.589844 C 690.886719 252.953125 690.21875 252.371094 689.503906 251.84375 C 688.789062 251.3125 688.039062 250.84375 687.25 250.433594 C 686.460938 250.023438 685.644531 249.679688 684.800781 249.398438 C 683.957031 249.117188 683.097656 248.90625 682.21875 248.765625 C 681.339844 248.621094 680.457031 248.546875 679.566406 248.546875 Z M 516.746094 248.546875 L 293.242188 248.546875 L 293.242188 220.609375 C 293.242188 220.058594 293.269531 219.511719 293.324219 218.964844 C 293.378906 218.417969 293.457031 217.875 293.566406 217.335938 C 293.671875 216.800781 293.804688 216.265625 293.964844 215.742188 C 294.125 215.21875 294.308594 214.699219 294.519531 214.191406 C 294.730469 213.6875 294.964844 213.191406 295.222656 212.707031 C 295.480469 212.222656 295.761719 211.75 296.066406 211.296875 C 296.371094 210.839844 296.699219 210.398438 297.046875 209.972656 C 297.394531 209.550781 297.765625 209.144531 298.152344 208.753906 C 298.539062 208.367188 298.945312 208 299.371094 207.648438 C 299.796875 207.300781 300.234375 206.976562 300.691406 206.671875 C 301.148438 206.367188 301.621094 206.082031 302.105469 205.824219 C 302.585938 205.566406 303.082031 205.332031 303.589844 205.121094 C 304.097656 204.910156 304.613281 204.726562 305.140625 204.566406 C 305.664062 204.40625 306.195312 204.273438 306.734375 204.167969 C 307.273438 204.058594 307.816406 203.980469 308.363281 203.925781 C 308.910156 203.871094 309.457031 203.84375 310.003906 203.84375 L 499.984375 203.84375 C 500.53125 203.84375 501.078125 203.871094 501.625 203.925781 C 502.171875 203.980469 502.714844 204.058594 503.253906 204.167969 C 503.792969 204.273438 504.324219 204.40625 504.847656 204.566406 C 505.375 204.726562 505.890625 204.910156 506.398438 205.121094 C 506.90625 205.332031 507.402344 205.566406 507.886719 205.824219 C 508.371094 206.082031 508.839844 206.367188 509.296875 206.671875 C 509.753906 206.976562 510.191406 207.300781 510.617188 207.648438 C 511.042969 208 511.449219 208.367188 511.835938 208.753906 C 512.222656 209.144531 512.59375 209.550781 512.941406 209.972656 C 513.289062 210.398438 513.617188 210.839844 513.921875 211.296875 C 514.226562 211.75 514.507812 212.222656 514.765625 212.707031 C 515.023438 213.191406 515.261719 213.6875 515.46875 214.191406 C 515.679688 214.699219 515.863281 215.21875 516.023438 215.742188 C 516.183594 216.265625 516.316406 216.800781 516.421875 217.335938 C 516.53125 217.875 516.613281 218.417969 516.664062 218.964844 C 516.71875 219.511719 516.746094 220.058594 516.746094 220.609375 Z M 516.746094 248.546875 "/></g><g clip-rule="nonzero" clip-path="url(#1336380a03)"><path style=" stroke:none;fill-rule:nonzero;fill:#1800ad;fill-opacity:1;" d="M 578.878906 449.699219 L 572.621094 449.699219 L 572.621094 472.050781 C 572.621094 472.78125 572.585938 473.511719 572.515625 474.238281 C 572.441406 474.96875 572.335938 475.691406 572.191406 476.410156 C 572.050781 477.128906 571.871094 477.835938 571.660156 478.539062 C 571.445312 479.238281 571.199219 479.925781 570.921875 480.601562 C 570.640625 481.277344 570.328125 481.941406 569.984375 482.585938 C 569.636719 483.230469 569.261719 483.859375 568.855469 484.464844 C 568.449219 485.074219 568.011719 485.664062 567.546875 486.226562 C 567.085938 486.792969 566.59375 487.335938 566.074219 487.851562 C 565.558594 488.371094 565.015625 488.863281 564.449219 489.328125 C 563.882812 489.789062 563.296875 490.226562 562.6875 490.632812 C 562.078125 491.039062 561.453125 491.414062 560.808594 491.761719 C 560.160156 492.105469 559.5 492.417969 558.824219 492.699219 C 558.148438 492.976562 557.460938 493.226562 556.757812 493.4375 C 556.058594 493.648438 555.347656 493.828125 554.632812 493.96875 C 553.914062 494.113281 553.191406 494.21875 552.460938 494.292969 C 551.734375 494.363281 551.003906 494.398438 550.269531 494.398438 C 549.539062 494.398438 548.808594 494.363281 548.082031 494.292969 C 547.351562 494.21875 546.628906 494.113281 545.910156 493.96875 C 545.191406 493.828125 544.484375 493.648438 543.785156 493.4375 C 543.082031 493.226562 542.394531 492.976562 541.71875 492.699219 C 541.042969 492.417969 540.382812 492.105469 539.734375 491.761719 C 539.089844 491.414062 538.460938 491.039062 537.855469 490.632812 C 537.246094 490.226562 536.660156 489.789062 536.09375 489.328125 C 535.527344 488.863281 534.984375 488.371094 534.46875 487.851562 C 533.949219 487.335938 533.457031 486.792969 532.996094 486.226562 C 532.53125 485.664062 532.09375 485.074219 531.6875 484.464844 C 531.28125 483.859375 530.90625 483.230469 530.558594 482.585938 C 530.214844 481.941406 529.902344 481.277344 529.621094 480.601562 C 529.34375 479.925781 529.097656 479.238281 528.882812 478.539062 C 528.671875 477.835938 528.492188 477.128906 528.351562 476.410156 C 528.207031 475.691406 528.101562 474.96875 528.027344 474.238281 C 527.957031 473.511719 527.921875 472.78125 527.921875 472.050781 L 527.921875 449.699219 L 282.066406 449.699219 L 282.066406 472.050781 C 282.066406 472.78125 282.03125 473.511719 281.960938 474.238281 C 281.886719 474.96875 281.78125 475.691406 281.636719 476.410156 C 281.496094 477.128906 281.316406 477.835938 281.105469 478.539062 C 280.894531 479.238281 280.644531 479.925781 280.367188 480.601562 C 280.085938 481.277344 279.773438 481.941406 279.429688 482.585938 C 279.082031 483.230469 278.707031 483.859375 278.300781 484.464844 C 277.894531 485.074219 277.457031 485.664062 276.996094 486.226562 C 276.53125 486.792969 276.039062 487.335938 275.519531 487.851562 C 275.003906 488.371094 274.460938 488.863281 273.894531 489.328125 C 273.332031 489.789062 272.742188 490.226562 272.132812 490.632812 C 271.527344 491.039062 270.898438 491.414062 270.253906 491.761719 C 269.609375 492.105469 268.945312 492.417969 268.269531 492.699219 C 267.59375 492.976562 266.90625 493.226562 266.207031 493.4375 C 265.503906 493.648438 264.796875 493.828125 264.078125 493.96875 C 263.359375 494.113281 262.636719 494.21875 261.90625 494.292969 C 261.179688 494.363281 260.449219 494.398438 259.71875 494.398438 C 258.984375 494.398438 258.253906 494.363281 257.527344 494.292969 C 256.796875 494.21875 256.074219 494.113281 255.355469 493.96875 C 254.640625 493.828125 253.929688 493.648438 253.230469 493.4375 C 252.527344 493.226562 251.839844 492.976562 251.164062 492.699219 C 250.488281 492.417969 249.828125 492.105469 249.179688 491.761719 C 248.535156 491.414062 247.910156 491.039062 247.300781 490.632812 C 246.691406 490.226562 246.105469 489.789062 245.539062 489.328125 C 244.972656 488.863281 244.429688 488.371094 243.914062 487.851562 C 243.394531 487.335938 242.90625 486.792969 242.441406 486.226562 C 241.976562 485.664062 241.539062 485.074219 241.132812 484.464844 C 240.726562 483.859375 240.351562 483.230469 240.007812 482.585938 C 239.660156 481.941406 239.347656 481.277344 239.066406 480.601562 C 238.789062 479.925781 238.542969 479.238281 238.328125 478.539062 C 238.117188 477.835938 237.9375 477.128906 237.796875 476.410156 C 237.652344 475.691406 237.546875 474.96875 237.472656 474.238281 C 237.402344 473.511719 237.367188 472.78125 237.367188 472.050781 L 237.367188 449.699219 L 231.109375 449.699219 C 228.226562 449.699219 225.347656 449.609375 222.46875 449.429688 C 219.589844 449.25 216.722656 448.984375 213.863281 448.625 C 211 448.269531 208.15625 447.824219 205.320312 447.289062 C 202.488281 446.753906 199.675781 446.132812 196.882812 445.425781 C 194.085938 444.714844 191.316406 443.921875 188.570312 443.039062 C 185.828125 442.160156 183.113281 441.195312 180.425781 440.144531 C 177.742188 439.09375 175.09375 437.960938 172.476562 436.75 C 169.863281 435.535156 167.289062 434.242188 164.753906 432.867188 C 162.21875 431.492188 159.730469 430.042969 157.285156 428.511719 C 154.84375 426.984375 152.449219 425.382812 150.101562 423.703125 C 147.757812 422.027344 145.46875 420.277344 143.230469 418.457031 C 140.996094 416.640625 138.820312 414.753906 136.699219 412.796875 C 134.582031 410.84375 132.523438 408.824219 130.53125 406.742188 C 128.539062 404.660156 126.613281 402.515625 124.75 400.3125 C 122.890625 398.113281 121.101562 395.855469 119.378906 393.539062 C 117.660156 391.226562 116.011719 388.863281 114.441406 386.449219 L 114.441406 634.089844 C 114.441406 634.636719 114.46875 635.1875 114.519531 635.730469 C 114.574219 636.277344 114.65625 636.820312 114.761719 637.359375 C 114.871094 637.898438 115.003906 638.429688 115.160156 638.953125 C 115.320312 639.480469 115.507812 639.996094 115.714844 640.503906 C 115.925781 641.011719 116.160156 641.507812 116.417969 641.992188 C 116.679688 642.476562 116.960938 642.945312 117.265625 643.402344 C 117.570312 643.859375 117.898438 644.296875 118.246094 644.722656 C 118.59375 645.148438 118.960938 645.554688 119.351562 645.941406 C 119.738281 646.332031 120.144531 646.699219 120.570312 647.046875 C 120.992188 647.394531 121.433594 647.722656 121.890625 648.027344 C 122.347656 648.332031 122.816406 648.613281 123.300781 648.871094 C 123.785156 649.132812 124.28125 649.367188 124.789062 649.574219 C 125.296875 649.785156 125.8125 649.96875 126.335938 650.128906 C 126.863281 650.289062 127.394531 650.421875 127.933594 650.53125 C 128.472656 650.636719 129.011719 650.71875 129.558594 650.769531 C 130.105469 650.824219 130.652344 650.851562 131.203125 650.851562 L 678.785156 650.851562 C 679.335938 650.851562 679.882812 650.824219 680.429688 650.769531 C 680.976562 650.71875 681.515625 650.636719 682.054688 650.53125 C 682.59375 650.421875 683.125 650.289062 683.652344 650.128906 C 684.175781 649.96875 684.691406 649.785156 685.199219 649.574219 C 685.707031 649.367188 686.203125 649.132812 686.6875 648.871094 C 687.171875 648.613281 687.640625 648.332031 688.097656 648.027344 C 688.554688 647.722656 688.996094 647.394531 689.417969 647.046875 C 689.84375 646.699219 690.25 646.332031 690.640625 645.941406 C 691.027344 645.554688 691.394531 645.148438 691.742188 644.722656 C 692.089844 644.296875 692.417969 643.859375 692.722656 643.402344 C 693.027344 642.945312 693.308594 642.476562 693.570312 641.992188 C 693.828125 641.507812 694.0625 641.011719 694.273438 640.503906 C 694.484375 639.996094 694.667969 639.480469 694.828125 638.953125 C 694.984375 638.429688 695.121094 637.898438 695.226562 637.359375 C 695.332031 636.820312 695.414062 636.277344 695.46875 635.730469 C 695.523438 635.1875 695.546875 634.636719 695.546875 634.089844 L 695.546875 386.449219 C 693.976562 388.863281 692.328125 391.226562 690.609375 393.542969 C 688.886719 395.855469 687.097656 398.113281 685.238281 400.3125 C 683.378906 402.515625 681.449219 404.660156 679.457031 406.742188 C 677.464844 408.824219 675.40625 410.84375 673.289062 412.796875 C 671.167969 414.753906 668.992188 416.640625 666.757812 418.457031 C 664.519531 420.277344 662.230469 422.027344 659.886719 423.703125 C 657.539062 425.382812 655.144531 426.984375 652.703125 428.511719 C 650.257812 430.042969 647.769531 431.492188 645.234375 432.867188 C 642.699219 434.242188 640.125 435.535156 637.511719 436.75 C 634.894531 437.960938 632.246094 439.09375 629.5625 440.144531 C 626.875 441.195312 624.160156 442.160156 621.417969 443.039062 C 618.671875 443.921875 615.902344 444.714844 613.109375 445.425781 C 610.3125 446.132812 607.5 446.753906 604.667969 447.289062 C 601.832031 447.824219 598.988281 448.269531 596.125 448.625 C 593.265625 448.984375 590.398438 449.25 587.519531 449.429688 C 584.644531 449.609375 581.761719 449.699219 578.878906 449.699219 Z M 578.878906 449.699219 "/></g></g></svg>