<svg xmlns="http://www.w3.org/2000/svg" xmlns:xlink="http://www.w3.org/1999/xlink" width="1080" zoomAndPan="magnify" viewBox="0 0 810 809.999993" height="1080" preserveAspectRatio="xMidYMid meet" version="1.2"><defs><clipPath id="f5e3584259"><path d="M 416.140625 162 L 767.890625 162 L 767.890625 648 L 416.140625 648 Z M 416.140625 162 "/></clipPath><clipPath id="ffb93e2337"><path d="M 40.34375 162 L 361.34375 162 L 361.34375 648 L 40.34375 648 Z M 40.34375 162 "/></clipPath></defs><g id="9cb5408e56"><g clip-rule="nonzero" clip-path="url(#f5e3584259)"><path style=" stroke:none;fill-rule:nonzero;fill:#f4f4f4;fill-opacity:1;" d="M 767.460938 624.753906 C 767.460938 637.558594 756.996094 648.023438 744.203125 648.023438 L 439.828125 648.023438 C 427.035156 648.023438 416.558594 637.558594 416.558594 624.753906 L 416.558594 185.234375 C 416.558594 172.441406 427.035156 161.976562 439.828125 161.976562 L 744.203125 161.976562 C 756.996094 161.976562 767.460938 172.441406 767.460938 185.234375 L 767.460938 624.753906 "/></g><path style=" stroke:none;fill-rule:nonzero;fill:#c71d29;fill-opacity:1;" d="M 455.53125 195.40625 L 452.757812 183.011719 L 449.535156 195.40625 C 449.476562 195.667969 449.4375 195.855469 449.4375 195.953125 C 449.4375 196.390625 449.757812 196.605469 450.402344 196.605469 L 454.785156 196.605469 C 455.347656 196.605469 455.628906 196.410156 455.628906 196.011719 C 455.628906 195.902344 455.601562 195.707031 455.53125 195.40625 Z M 444.308594 201.746094 L 450.148438 180.441406 C 450.449219 179.429688 450.695312 178.796875 450.898438 178.523438 C 451.269531 177.960938 451.84375 177.667969 452.613281 177.667969 C 453.554688 177.667969 454.1875 177.902344 454.53125 178.351562 C 454.859375 178.808594 455.28125 180.054688 455.785156 182.097656 L 461.578125 205.121094 C 461.976562 206.5625 462.320312 207.507812 462.589844 207.964844 C 462.855469 208.421875 463.222656 208.648438 463.691406 208.648438 C 463.828125 208.648438 464.128906 208.597656 464.597656 208.511719 C 464.703125 208.511719 464.820312 208.492188 464.957031 208.441406 C 465.09375 208.441406 465.171875 208.441406 465.199219 208.441406 C 466.28125 208.441406 466.816406 209.027344 466.816406 210.183594 C 466.816406 211.507812 466.242188 212.171875 465.101562 212.171875 C 464.96875 212.171875 464.199219 212.035156 462.785156 211.773438 C 462.085938 211.636719 461.34375 211.566406 460.566406 211.566406 C 459.960938 211.566406 459.136719 211.664062 458.074219 211.871094 C 457.023438 212.074219 456.3125 212.171875 455.941406 212.171875 C 455.464844 212.171875 455.046875 211.988281 454.675781 211.605469 C 454.304688 211.238281 454.121094 210.777344 454.121094 210.234375 C 454.121094 209.035156 454.675781 208.441406 455.785156 208.441406 C 455.992188 208.441406 456.136719 208.441406 456.234375 208.441406 C 456.339844 208.441406 456.457031 208.441406 456.59375 208.441406 C 456.730469 208.441406 456.808594 208.441406 456.847656 208.441406 C 457.617188 208.441406 458.003906 207.917969 458.003906 206.867188 C 458.003906 206.300781 457.898438 205.609375 457.703125 204.78125 L 456.796875 201.121094 C 456.664062 200.597656 456.527344 200.273438 456.390625 200.15625 C 456.253906 200.039062 455.972656 199.980469 455.53125 199.980469 L 449.4375 199.980469 C 448.738281 199.980469 448.230469 200.566406 447.929688 201.726562 L 447.023438 205.257812 C 446.789062 206.183594 446.671875 206.933594 446.671875 207.5 C 446.671875 208.132812 446.976562 208.441406 447.578125 208.441406 C 447.8125 208.441406 447.976562 208.441406 448.085938 208.441406 C 448.183594 208.441406 448.300781 208.441406 448.433594 208.441406 C 448.601562 208.441406 448.699219 208.441406 448.738281 208.441406 C 449.808594 208.441406 450.34375 209.046875 450.34375 210.261719 C 450.34375 211.539062 449.789062 212.171875 448.6875 212.171875 C 448.242188 212.171875 447.558594 212.074219 446.613281 211.871094 C 445.679688 211.664062 444.941406 211.566406 444.40625 211.566406 C 443.664062 211.566406 442.789062 211.664062 441.785156 211.871094 C 440.773438 212.074219 440.074219 212.171875 439.671875 212.171875 C 438.457031 212.171875 437.851562 211.539062 437.851562 210.28125 C 437.851562 209.054688 438.378906 208.441406 439.421875 208.441406 C 439.613281 208.441406 439.886719 208.492188 440.21875 208.570312 C 440.558594 208.65625 440.8125 208.695312 440.976562 208.695312 C 441.511719 208.695312 442.027344 208.191406 442.515625 207.1875 C 443.003906 206.175781 443.597656 204.363281 444.308594 201.746094 "/><path style=" stroke:none;fill-rule:nonzero;fill:#c71d29;fill-opacity:1;" d="M 727.992188 613.917969 L 730.765625 626.3125 L 733.988281 613.917969 C 734.058594 613.65625 734.085938 613.472656 734.085938 613.363281 C 734.085938 612.9375 733.773438 612.710938 733.132812 612.710938 L 728.75 612.710938 C 728.175781 612.710938 727.894531 612.917969 727.894531 613.316406 C 727.894531 613.421875 727.925781 613.617188 727.992188 613.917969 Z M 739.226562 607.582031 L 733.386719 628.882812 C 733.085938 629.894531 732.832031 630.527344 732.625 630.800781 C 732.257812 631.367188 731.691406 631.65625 730.914062 631.65625 C 729.976562 631.65625 729.335938 631.425781 729.003906 630.976562 C 728.664062 630.519531 728.246094 629.273438 727.75 627.21875 L 721.945312 604.203125 C 721.546875 602.761719 721.207031 601.808594 720.945312 601.359375 C 720.679688 600.902344 720.300781 600.679688 719.832031 600.679688 C 719.695312 600.679688 719.394531 600.726562 718.929688 600.816406 C 718.832031 600.816406 718.714844 600.835938 718.578125 600.882812 C 718.441406 600.882812 718.355469 600.882812 718.324219 600.882812 C 717.253906 600.882812 716.707031 600.300781 716.707031 599.140625 C 716.707031 597.816406 717.28125 597.15625 718.421875 597.15625 C 718.558594 597.15625 719.328125 597.292969 720.738281 597.554688 C 721.449219 597.691406 722.191406 597.757812 722.957031 597.757812 C 723.5625 597.757812 724.390625 597.660156 725.449219 597.457031 C 726.511719 597.253906 727.222656 597.15625 727.59375 597.15625 C 728.058594 597.15625 728.480469 597.339844 728.847656 597.710938 C 729.21875 598.089844 729.402344 598.546875 729.402344 599.09375 C 729.402344 600.289062 728.847656 600.882812 727.75 600.882812 C 727.542969 600.882812 727.386719 600.882812 727.292969 600.882812 C 727.195312 600.882812 727.066406 600.882812 726.941406 600.882812 C 726.804688 600.882812 726.714844 600.882812 726.6875 600.882812 C 725.910156 600.882812 725.527344 601.410156 725.527344 602.460938 C 725.527344 603.027344 725.625 603.714844 725.832031 604.542969 L 726.734375 608.203125 C 726.871094 608.730469 727.007812 609.050781 727.136719 609.167969 C 727.273438 609.285156 727.5625 609.34375 727.992188 609.34375 L 734.085938 609.34375 C 734.796875 609.34375 735.292969 608.761719 735.605469 607.601562 L 736.5 604.066406 C 736.746094 603.140625 736.863281 602.394531 736.863281 601.828125 C 736.863281 601.195312 736.558594 600.882812 735.957031 600.882812 C 735.722656 600.882812 735.546875 600.882812 735.449219 600.882812 C 735.351562 600.882812 735.226562 600.882812 735.097656 600.882812 C 734.933594 600.882812 734.828125 600.882812 734.796875 600.882812 C 733.71875 600.882812 733.179688 600.28125 733.179688 599.0625 C 733.179688 597.789062 733.734375 597.15625 734.847656 597.15625 C 735.285156 597.15625 735.964844 597.253906 736.910156 597.457031 C 737.855469 597.660156 738.585938 597.757812 739.121094 597.757812 C 739.871094 597.757812 740.738281 597.660156 741.75 597.457031 C 742.75 597.253906 743.460938 597.15625 743.863281 597.15625 C 745.070312 597.15625 745.671875 597.777344 745.671875 599.042969 C 745.671875 600.261719 745.148438 600.882812 744.105469 600.882812 C 743.910156 600.882812 743.636719 600.835938 743.308594 600.757812 C 742.964844 600.667969 742.722656 600.628906 742.546875 600.628906 C 742.011719 600.628906 741.503906 601.136719 741.007812 602.140625 C 740.53125 603.152344 739.929688 604.964844 739.226562 607.582031 "/><path style=" stroke:none;fill-rule:nonzero;fill:#c71d29;fill-opacity:1;" d="M 455.589844 195.445312 L 452.816406 183.03125 L 449.585938 195.445312 C 449.515625 195.71875 449.488281 195.902344 449.488281 196 C 449.488281 196.4375 449.796875 196.664062 450.441406 196.664062 L 454.832031 196.664062 C 455.40625 196.664062 455.6875 196.457031 455.6875 196.050781 C 455.6875 195.953125 455.660156 195.757812 455.589844 195.445312 Z M 444.347656 201.804688 L 450.199219 180.460938 C 450.488281 179.449219 450.753906 178.816406 450.949219 178.542969 C 451.316406 177.980469 451.890625 177.6875 452.660156 177.6875 C 453.605469 177.6875 454.246094 177.921875 454.578125 178.371094 C 454.917969 178.828125 455.339844 180.082031 455.84375 182.128906 L 461.636719 205.179688 C 462.046875 206.621094 462.386719 207.574219 462.648438 208.035156 C 462.921875 208.480469 463.292969 208.714844 463.761719 208.714844 C 463.894531 208.714844 464.199219 208.667969 464.664062 208.578125 C 464.773438 208.578125 464.890625 208.558594 465.027344 208.511719 C 465.152344 208.511719 465.238281 208.511719 465.269531 208.511719 C 466.347656 208.511719 466.886719 209.09375 466.886719 210.253906 C 466.886719 211.578125 466.320312 212.238281 465.171875 212.238281 C 465.035156 212.238281 464.265625 212.101562 462.855469 211.839844 C 462.144531 211.703125 461.402344 211.636719 460.632812 211.636719 C 460.03125 211.636719 459.195312 211.742188 458.132812 211.9375 C 457.082031 212.140625 456.359375 212.238281 455.992188 212.238281 C 455.523438 212.238281 455.09375 212.054688 454.734375 211.683594 C 454.363281 211.304688 454.179688 210.847656 454.179688 210.300781 C 454.179688 209.105469 454.734375 208.511719 455.84375 208.511719 C 456.050781 208.511719 456.195312 208.511719 456.292969 208.511719 C 456.398438 208.511719 456.515625 208.511719 456.652344 208.511719 C 456.777344 208.511719 456.867188 208.511719 456.894531 208.511719 C 457.675781 208.511719 458.0625 207.984375 458.0625 206.925781 C 458.0625 206.359375 457.957031 205.667969 457.753906 204.839844 L 456.847656 201.171875 C 456.710938 200.644531 456.585938 200.324219 456.449219 200.207031 C 456.3125 200.097656 456.03125 200.03125 455.589844 200.03125 L 449.488281 200.03125 C 448.777344 200.03125 448.28125 200.613281 447.976562 201.785156 L 447.0625 205.316406 C 446.828125 206.253906 446.710938 206.992188 446.710938 207.566406 C 446.710938 208.199219 447.015625 208.511719 447.617188 208.511719 C 447.851562 208.511719 448.027344 208.511719 448.125 208.511719 C 448.222656 208.511719 448.339844 208.511719 448.472656 208.511719 C 448.648438 208.511719 448.746094 208.511719 448.777344 208.511719 C 449.855469 208.511719 450.390625 209.113281 450.390625 210.320312 C 450.390625 211.605469 449.835938 212.238281 448.726562 212.238281 C 448.289062 212.238281 447.609375 212.140625 446.664062 211.9375 C 445.71875 211.742188 444.980469 211.636719 444.445312 211.636719 C 443.703125 211.636719 442.828125 211.742188 441.816406 211.9375 C 440.8125 212.140625 440.101562 212.238281 439.703125 212.238281 C 438.496094 212.238281 437.882812 211.605469 437.882812 210.351562 C 437.882812 209.125 438.40625 208.511719 439.449219 208.511719 C 439.652344 208.511719 439.917969 208.550781 440.257812 208.636719 C 440.589844 208.726562 440.839844 208.765625 441.015625 208.765625 C 441.550781 208.765625 442.058594 208.257812 442.546875 207.246094 C 443.03125 206.242188 443.636719 204.421875 444.347656 201.804688 "/><path style=" stroke:none;fill-rule:nonzero;fill:#c71d29;fill-opacity:1;" d="M 728.441406 614.5625 L 731.214844 626.976562 L 734.4375 614.5625 C 734.503906 614.289062 734.542969 614.113281 734.542969 614.007812 C 734.542969 613.570312 734.222656 613.355469 733.582031 613.355469 L 729.191406 613.355469 C 728.625 613.355469 728.332031 613.558594 728.332031 613.957031 C 728.332031 614.054688 728.371094 614.261719 728.441406 614.5625 Z M 739.683594 608.214844 L 733.832031 629.546875 C 733.53125 630.558594 733.277344 631.199219 733.074219 631.464844 C 732.703125 632.039062 732.128906 632.320312 731.359375 632.320312 C 730.425781 632.320312 729.785156 632.097656 729.441406 631.636719 C 729.113281 631.179688 728.691406 629.933594 728.1875 627.878906 L 722.382812 604.835938 C 721.984375 603.386719 721.644531 602.441406 721.371094 601.984375 C 721.109375 601.527344 720.738281 601.300781 720.261719 601.300781 C 720.136719 601.300781 719.824219 601.351562 719.355469 601.4375 C 719.257812 601.4375 719.140625 601.457031 719.007812 601.507812 C 718.871094 601.507812 718.792969 601.507812 718.753906 601.507812 C 717.671875 601.507812 717.136719 600.921875 717.136719 599.765625 C 717.136719 598.441406 717.710938 597.769531 718.851562 597.769531 C 718.988281 597.769531 719.753906 597.90625 721.175781 598.175781 C 721.878906 598.304688 722.617188 598.371094 723.398438 598.371094 C 724 598.371094 724.828125 598.273438 725.890625 598.078125 C 726.949219 597.875 727.660156 597.769531 728.03125 597.769531 C 728.507812 597.769531 728.925781 597.964844 729.296875 598.332031 C 729.667969 598.710938 729.851562 599.171875 729.851562 599.714844 C 729.851562 600.914062 729.296875 601.507812 728.1875 601.507812 C 727.980469 601.507812 727.835938 601.507812 727.730469 601.507812 C 727.632812 601.507812 727.515625 601.507812 727.378906 601.507812 C 727.242188 601.507812 727.15625 601.507812 727.125 601.507812 C 726.347656 601.507812 725.96875 602.03125 725.96875 603.09375 C 725.96875 603.648438 726.0625 604.351562 726.269531 605.167969 L 727.175781 608.835938 C 727.3125 609.363281 727.445312 609.683594 727.582031 609.800781 C 727.710938 609.917969 728 609.976562 728.441406 609.976562 L 734.542969 609.976562 C 735.246094 609.976562 735.75 609.394531 736.054688 608.234375 L 736.957031 604.691406 C 737.203125 603.765625 737.320312 603.015625 737.320312 602.453125 C 737.320312 601.816406 737.007812 601.507812 736.402344 601.507812 C 736.171875 601.507812 736.003906 601.507812 735.898438 601.507812 C 735.800781 601.507812 735.683594 601.507812 735.546875 601.507812 C 735.382812 601.507812 735.285156 601.507812 735.246094 601.507812 C 734.175781 601.507812 733.628906 600.894531 733.628906 599.6875 C 733.628906 598.410156 734.195312 597.769531 735.292969 597.769531 C 735.730469 597.769531 736.421875 597.875 737.367188 598.078125 C 738.3125 598.273438 739.042969 598.371094 739.585938 598.371094 C 740.328125 598.371094 741.195312 598.273438 742.207031 598.078125 C 743.21875 597.875 743.921875 597.769531 744.328125 597.769531 C 745.535156 597.769531 746.140625 598.402344 746.140625 599.667969 C 746.140625 600.894531 745.625 601.507812 744.582031 601.507812 C 744.378906 601.507812 744.105469 601.457031 743.773438 601.378906 C 743.433594 601.292969 743.179688 601.253906 743.015625 601.253906 C 742.480469 601.253906 741.964844 601.761719 741.476562 602.761719 C 740.988281 603.773438 740.394531 605.597656 739.683594 608.214844 "/><path style=" stroke:none;fill-rule:nonzero;fill:#c71d29;fill-opacity:1;" d="M 655.984375 375.253906 C 655.984375 357.707031 641.761719 343.484375 624.21875 343.484375 C 606.703125 343.484375 592.507812 357.640625 592.449219 375.125 C 592.371094 357.640625 578.1875 343.484375 560.679688 343.484375 C 543.125 343.484375 528.902344 357.707031 528.902344 375.253906 C 528.902344 422.285156 592.148438 458.324219 592.4375 458.492188 C 592.4375 458.492188 655.984375 422.292969 655.984375 375.253906 "/><path style=" stroke:none;fill-rule:nonzero;fill:#c71d29;fill-opacity:1;" d="M 471.421875 236.648438 C 471.421875 231.378906 467.15625 227.117188 461.890625 227.117188 C 456.644531 227.117188 452.378906 231.359375 452.359375 236.609375 C 452.339844 231.359375 448.085938 227.117188 442.828125 227.117188 C 437.570312 227.117188 433.296875 231.378906 433.296875 236.648438 C 433.296875 250.761719 452.269531 261.570312 452.359375 261.617188 C 452.359375 261.617188 471.421875 250.761719 471.421875 236.648438 "/><path style=" stroke:none;fill-rule:nonzero;fill:#c71d29;fill-opacity:1;" d="M 712.601562 573.371094 C 712.601562 578.628906 716.863281 582.902344 722.132812 582.902344 C 727.386719 582.902344 731.644531 578.65625 731.664062 573.410156 C 731.683594 578.65625 735.945312 582.902344 741.195312 582.902344 C 746.453125 582.902344 750.726562 578.628906 750.726562 573.371094 C 750.726562 559.253906 731.75 548.449219 731.664062 548.398438 C 731.664062 548.398438 712.601562 559.253906 712.601562 573.371094 "/><g clip-rule="nonzero" clip-path="url(#ffb93e2337)"><path style=" stroke:none;fill-rule:nonzero;fill:#ededed;fill-opacity:1;" d="M 338.144531 647.679688 L 63.542969 647.679688 C 50.757812 647.679688 40.34375 637.371094 40.34375 624.574219 L 40.34375 185.542969 C 40.34375 172.746094 50.757812 162.320312 63.542969 162.320312 L 338.144531 162.320312 C 350.925781 162.320312 361.34375 172.746094 361.34375 185.542969 L 361.34375 624.574219 C 361.34375 637.371094 350.925781 647.679688 338.144531 647.679688 Z M 338.144531 647.679688 "/></g><path style=" stroke:none;fill-rule:nonzero;fill:#e30613;fill-opacity:1;" d="M 51.113281 212.917969 L 51.113281 209.597656 L 53.953125 209.242188 L 67.449219 174.40625 L 71.945312 174.40625 L 85.203125 209.242188 L 88.042969 209.597656 L 88.042969 212.917969 L 77.035156 212.917969 L 77.035156 209.597656 L 79.992188 209.125 L 77.507812 202.015625 L 62.121094 202.015625 L 59.515625 209.125 L 62.476562 209.597656 L 62.476562 212.917969 Z M 63.421875 197.628906 L 75.613281 197.628906 L 69.933594 181.988281 L 69.578125 181.160156 L 69.460938 181.160156 L 69.105469 181.988281 Z M 63.421875 197.628906 "/><path style=" stroke:none;fill-rule:nonzero;fill:#e30613;fill-opacity:1;" d="M 350.570312 597.082031 L 350.570312 600.402344 L 347.730469 600.757812 L 334.238281 635.59375 L 329.738281 635.59375 L 316.484375 600.757812 L 313.640625 600.402344 L 313.640625 597.082031 L 324.648438 597.082031 L 324.648438 600.402344 L 321.691406 600.875 L 324.175781 607.984375 L 339.5625 607.984375 L 342.167969 600.875 L 339.207031 600.402344 L 339.207031 597.082031 Z M 338.144531 612.371094 L 325.953125 612.371094 L 331.632812 628.011719 L 331.988281 628.839844 L 332.105469 628.839844 L 332.460938 628.011719 Z M 338.144531 612.371094 "/><path style=" stroke:none;fill-rule:nonzero;fill:#e30613;fill-opacity:1;" d="M 200.84375 468.515625 L 153.617188 405 L 200.84375 341.484375 L 247.949219 405 Z M 200.84375 468.515625 "/><path style=" stroke:none;fill-rule:nonzero;fill:#e30613;fill-opacity:1;" d="M 69.460938 261.738281 L 54.425781 241.472656 L 69.460938 221.210938 L 84.492188 241.472656 Z M 69.460938 261.738281 "/><path style=" stroke:none;fill-rule:nonzero;fill:#e30613;fill-opacity:1;" d="M 332.105469 588.789062 L 317.074219 568.644531 L 332.105469 548.382812 L 347.140625 568.644531 Z M 332.105469 588.789062 "/></g></svg>