<svg xmlns="http://www.w3.org/2000/svg" xmlns:xlink="http://www.w3.org/1999/xlink" width="400" zoomAndPan="magnify" viewBox="0 0 300 149.999998" height="200" preserveAspectRatio="xMidYMid meet" version="1.2"><defs><clipPath id="246411bd77"><path d="M 112 27.996094 L 213 27.996094 L 213 120 L 112 120 Z M 112 27.996094 "/></clipPath><clipPath id="874fefbfdd"><path d="M 79 18 L 104 18 L 104 132.496094 L 79 132.496094 Z M 79 18 "/></clipPath><clipPath id="e60edaa90e"><path d="M 5 45 L 88 45 L 88 132.496094 L 5 132.496094 Z M 5 45 "/></clipPath><clipPath id="af3bef0184"><path d="M 0 17.746094 L 104.25 17.746094 L 104.25 132.496094 L 0 132.496094 Z M 0 17.746094 "/></clipPath><clipPath id="ccc6e1bcd1"><path d="M 223.535156 33 L 269 33 L 269 135 L 223.535156 135 Z M 223.535156 33 "/></clipPath><clipPath id="214d0a4c4f"><path d="M 223.535156 87 L 269 87 L 269 138 L 223.535156 138 Z M 223.535156 87 "/></clipPath><clipPath id="ffeb6033da"><path d="M 223.535156 12.042969 L 297 12.042969 L 297 89 L 223.535156 89 Z M 223.535156 12.042969 "/></clipPath><clipPath id="be848e9210"><path d="M 223.535156 12.042969 L 297.035156 12.042969 L 297.035156 138.042969 L 223.535156 138.042969 Z M 223.535156 12.042969 "/></clipPath></defs><g id="38d58276d1"><path style=" stroke:none;fill-rule:nonzero;fill:#1c0140;fill-opacity:1;" d="M 177.261719 45.515625 L 177.261719 69.097656 L 160.574219 84.699219 L 157.230469 63.273438 L 174.109375 46.074219 Z M 177.261719 45.515625 "/><path style=" stroke:none;fill-rule:nonzero;fill:#9fcdff;fill-opacity:1;" d="M 164.1875 85.625 L 164.1875 70.378906 L 184.117188 98.300781 L 184.117188 113.421875 Z M 164.1875 85.625 "/><path style=" stroke:none;fill-rule:nonzero;fill:#1c0140;fill-opacity:1;" d="M 181.28125 101.46875 L 181.28125 116.710938 C 162.4375 121.734375 140.367188 117.605469 126.472656 110.054688 C 118.289062 105.605469 113.03125 97.742188 112.894531 89.324219 L 112.894531 73.300781 Z M 181.28125 101.46875 "/><path style=" stroke:none;fill-rule:nonzero;fill:#5284ff;fill-opacity:1;" d="M 212.640625 69.730469 C 212.644531 69.914062 212.648438 85.574219 212.648438 85.574219 C 212.550781 93.203125 208.085938 101.085938 198.457031 107.234375 C 194.0625 110.039062 189.207031 112.066406 184.117188 113.421875 L 184.117188 98.300781 Z M 207.535156 41.71875 L 171.46875 55.765625 L 177.261719 45.515625 C 160.164062 41.703125 140.066406 43.089844 125.964844 52.621094 C 106.039062 66.09375 111.070312 86.5625 126.472656 94.933594 C 140.367188 102.484375 162.4375 106.613281 181.28125 101.589844 L 161.351562 73.667969 L 169.609375 59.054688 L 169.609375 71.734375 C 169.609375 71.734375 190.847656 64.71875 212.648438 57.460938 L 212.648438 42.21875 Z M 207.535156 41.71875 "/><path style=" stroke:none;fill-rule:nonzero;fill:#f0f7fe;fill-opacity:1;" d="M 207.226562 56.109375 C 216.214844 66.78125 214.511719 81.863281 198.457031 92.113281 C 194.0625 94.921875 189.207031 96.945312 184.117188 98.300781 L 164.1875 70.378906 C 164.1875 70.382812 185.429688 63.371094 207.226562 56.109375 Z M 207.226562 56.109375 "/><path style=" stroke:none;fill-rule:nonzero;fill:#9fcdff;fill-opacity:1;" d="M 212.648438 42.21875 C 190.851562 49.476562 169.609375 56.488281 169.609375 56.488281 L 185.515625 28.335938 C 192.523438 29.898438 199.03125 32.332031 204.410156 35.441406 C 207.738281 37.363281 210.496094 39.664062 212.648438 42.21875 Z M 212.648438 42.21875 "/><g clip-rule="nonzero" clip-path="url(#246411bd77)"><path style=" stroke:none;fill-rule:nonzero;fill:#1c0140;fill-opacity:1;" d="M 212.949219 57.675781 L 212.949219 42.113281 L 212.738281 41.867188 C 210.542969 39.300781 207.792969 37.050781 204.5625 35.1875 C 199.203125 32.089844 192.640625 29.617188 185.582031 28.046875 L 185.363281 27.996094 L 175.8125 44.902344 C 157.050781 41.089844 138.367188 43.878906 125.800781 52.375 C 117.441406 58.027344 112.804688 65.40625 112.597656 73.300781 L 112.59375 73.300781 L 112.59375 73.789062 C 112.59375 73.914062 112.59375 74.042969 112.59375 74.164062 L 112.59375 89.328125 C 112.730469 97.742188 117.996094 105.785156 126.328125 110.316406 C 135.585938 115.347656 149.308594 119.234375 163.542969 119.234375 C 169.488281 119.234375 175.523438 118.554688 181.355469 117 L 181.578125 116.941406 L 181.578125 110.398438 L 183.683594 113.332031 L 183.992188 113.761719 L 184.191406 113.707031 C 189.519531 112.289062 194.375 110.191406 198.617188 107.484375 C 207.753906 101.652344 212.839844 93.871094 212.945312 85.574219 C 212.945312 85.019531 212.945312 73.6875 212.941406 70.53125 C 212.945312 70.296875 212.945312 70.066406 212.9375 69.835938 C 212.9375 69.765625 212.9375 69.726562 212.9375 69.71875 L 212.933594 69.71875 C 212.839844 65.9375 211.683594 62.207031 209.554688 58.800781 Z M 209.226562 58.289062 C 208.691406 57.476562 208.101562 56.6875 207.457031 55.921875 L 207.324219 55.765625 L 207.132812 55.828125 C 192.367188 60.746094 177.730469 65.589844 169.90625 68.175781 L 169.90625 56.691406 C 169.941406 56.6875 169.972656 56.683594 170.003906 56.671875 C 172.207031 55.945312 192.042969 49.394531 212.347656 42.632812 L 212.347656 57.246094 Z M 212.34375 70.53125 C 212.328125 71.425781 212.253906 72.320312 212.117188 73.210938 C 211.027344 80.339844 206.246094 86.789062 198.296875 91.863281 C 194.160156 94.503906 189.429688 96.554688 184.238281 97.957031 L 164.667969 70.535156 C 167.621094 69.558594 187.230469 63.082031 207.128906 56.457031 C 210.460938 60.476562 212.253906 65.136719 212.34375 69.867188 C 212.34375 70 212.34375 70.230469 212.34375 70.53125 Z M 163.890625 76.710938 L 161.707031 73.652344 L 169.3125 60.195312 L 169.3125 68.375 C 166.078125 69.445312 164.160156 70.078125 164.097656 70.097656 L 163.890625 70.167969 Z M 185.667969 28.675781 C 192.582031 30.234375 199.007812 32.664062 204.261719 35.699219 C 207.359375 37.488281 210.007812 39.636719 212.136719 42.078125 C 192.808594 48.511719 173.910156 54.757812 170.25 55.964844 Z M 126.132812 52.867188 C 138.527344 44.488281 156.957031 41.726562 175.503906 45.449219 L 169.507812 56.066406 L 169.3125 56.414062 L 169.3125 58.980469 L 161 73.691406 L 180.789062 101.414062 C 161.242188 106.472656 139.5 101.675781 126.617188 94.675781 C 118.734375 90.390625 113.601562 82.796875 113.214844 74.859375 C 113.203125 74.625 113.195312 74.390625 113.195312 74.15625 L 113.195312 73.789062 C 113.21875 65.914062 117.777344 58.519531 126.132812 52.867188 Z M 126.617188 109.792969 C 118.472656 105.367188 113.328125 97.519531 113.191406 89.324219 L 113.191406 78.859375 C 113.835938 81.527344 114.988281 84.121094 116.605469 86.507812 C 119 90.035156 122.363281 93.039062 126.328125 95.195312 C 135.558594 100.214844 149.300781 104.109375 163.558594 104.109375 C 169.371094 104.109375 175.269531 103.460938 180.980469 101.976562 L 180.980469 116.480469 C 161.394531 121.625 139.582031 116.839844 126.617188 109.792969 Z M 181.578125 109.371094 L 181.578125 101.332031 L 181.285156 101.078125 L 164.488281 77.546875 L 164.488281 71.316406 L 183.816406 98.398438 L 183.816406 112.492188 Z M 198.296875 106.984375 C 194.203125 109.597656 189.535156 111.632812 184.414062 113.03125 L 184.414062 98.527344 C 189.660156 97.105469 194.4375 95.035156 198.621094 92.367188 C 206.039062 87.628906 210.746094 81.703125 212.347656 75.132812 C 212.351562 79.683594 212.351562 85.480469 212.351562 85.574219 C 212.246094 93.660156 207.253906 101.261719 198.296875 106.984375 Z M 198.296875 106.984375 "/></g><path style=" stroke:none;fill-rule:nonzero;fill:#1c0140;fill-opacity:1;" d="M 27.027344 54.53125 L 35.40625 49.792969 L 38.03125 53.628906 C 38.792969 53.085938 48.363281 62.292969 48.363281 62.292969 L 45.230469 48.476562 L 53.609375 43.738281 L 55.730469 46.945312 L 66.402344 53.015625 L 72.839844 34.621094 L 81.21875 29.882812 L 83.179688 32.714844 C 83.179688 32.714844 76.765625 75.878906 78.007812 76.519531 C 79.25 77.160156 29.988281 79.085938 29.988281 79.085938 Z M 27.027344 54.53125 "/><path style=" stroke:none;fill-rule:nonzero;fill:#5284ff;fill-opacity:1;" d="M 46.265625 101.515625 C 46.265625 101.515625 14.125 72.03125 13.792969 71.0625 L 13.792969 64.425781 L 27.027344 54.53125 L 30.226562 59.210938 L 45.230469 48.476562 L 48.007812 52.679688 L 72.839844 34.621094 L 75.617188 38.632812 L 95.492188 23.074219 L 95.4375 54.699219 Z M 46.265625 101.515625 "/><g clip-rule="nonzero" clip-path="url(#874fefbfdd)"><path style=" stroke:none;fill-rule:nonzero;fill:#1c0140;fill-opacity:1;" d="M 103.871094 18.332031 L 103.871094 122.421875 L 95.492188 127.265625 L 87.113281 132.105469 L 79.464844 58.875 L 95.4375 54.699219 L 95.496094 54.828125 L 95.496094 23.074219 Z M 103.871094 18.332031 "/></g><path style=" stroke:none;fill-rule:nonzero;fill:#9fcdff;fill-opacity:1;" d="M 15.941406 69.492188 L 24.277344 64.703125 L 29.988281 70.394531 L 41.113281 74.441406 L 41.777344 60.898438 L 50.113281 56.105469 L 54.945312 61.648438 L 71.761719 67.550781 L 76.859375 45.140625 L 85.191406 40.351562 L 95.433594 54.703125 L 87.109375 59.511719 L 41.113281 99.972656 L 16.957031 88.621094 Z M 15.941406 69.492188 "/><g clip-rule="nonzero" clip-path="url(#e60edaa90e)"><path style=" stroke:none;fill-rule:nonzero;fill:#f0f7fe;fill-opacity:1;" d="M 5.414062 84.910156 L 5.414062 77.199219 L 15.941406 69.492188 L 22.71875 76.25 L 41.78125 60.894531 L 47.394531 67.335938 L 76.859375 45.140625 L 87.113281 59.511719 L 87.113281 132.105469 Z M 5.414062 84.910156 "/></g><path style=" stroke:none;fill-rule:nonzero;fill:#5284ff;fill-opacity:1;" d="M 68.898438 52.351562 L 74.394531 49.558594 L 87.6875 46.582031 L 82.804688 51.9375 L 69.246094 52.351562 "/><path style=" stroke:none;fill-rule:nonzero;fill:#1c0140;fill-opacity:1;" d="M 75.574219 56.828125 L 81.753906 49.667969 L 87.691406 46.578125 L 81.421875 59.050781 L 75.820312 61.894531 Z M 42.851562 79.085938 L 36.726562 71.066406 L 35.332031 74.347656 L 22.964844 81.957031 L 19.015625 87.847656 L 10.460938 80.8125 L 0.386719 91.359375 L 6.089844 88.136719 L 11.289062 84.328125 L 17.570312 88.265625 L 17.570312 90.585938 L 23.269531 87.359375 L 37.242188 76.105469 L 38.226562 74.617188 L 42.125 80.011719 L 42.125 81.699219 L 47.824219 78.472656 L 73.667969 59.007812 L 73.140625 55.292969 L 48.246094 75.183594 L 47.75 73.113281 Z M 42.851562 79.085938 "/><path style=" stroke:none;fill-rule:nonzero;fill:#5284ff;fill-opacity:1;" d="M 42.851562 79.085938 L 36.964844 70.511719 L 42.664062 67.285156 L 47.75 73.121094 Z M 22.757812 81.953125 L 16.789062 76.003906 L 11.085938 79.226562 C 11.085938 79.226562 17.574219 88.386719 17.566406 88.269531 C 17.566406 88.152344 22.757812 81.953125 22.757812 81.953125 Z M 22.757812 81.953125 "/><path style=" stroke:none;fill-rule:nonzero;fill:#9fcdff;fill-opacity:1;" d="M 75.816406 61.898438 L 73.167969 58.316406 L 42.121094 81.703125 L 36.539062 75.304688 L 17.570312 90.589844 L 10.742188 83.78125 L 0.386719 91.359375 L 0.386719 87.058594 L 11.089844 79.226562 L 17.816406 85.933594 L 36.964844 70.507812 L 42.617188 76.988281 L 71.105469 55.527344 L 68.792969 52.402344 L 82.089844 49.425781 Z M 75.816406 61.898438 "/><g clip-rule="nonzero" clip-path="url(#af3bef0184)"><path style=" stroke:none;fill-rule:nonzero;fill:#1c0140;fill-opacity:1;" d="M 95.324219 22.773438 L 95.03125 23 L 83.253906 32.222656 L 81.324219 29.433594 L 72.671875 34.324219 L 72.414062 34.507812 L 55.871094 46.539062 L 53.71875 43.285156 L 45.0625 48.183594 L 44.921875 48.28125 L 38.117188 53.148438 L 35.511719 49.335938 L 26.859375 54.230469 L 26.628906 54.402344 L 13.449219 64.253906 L 13.449219 70.890625 L 5.074219 77.023438 L 5.074219 83.207031 L 0.046875 86.886719 L 0.046875 92.03125 L 0.574219 91.648438 L 6.253906 88.433594 L 8.273438 86.957031 L 86.53125 132.164062 L 87.113281 132.496094 L 95.675781 127.550781 L 104.214844 122.621094 L 104.214844 17.746094 Z M 81.117188 30.332031 L 82.714844 32.644531 L 75.691406 38.140625 L 73.332031 34.734375 Z M 53.5 44.191406 L 55.316406 46.941406 L 48.09375 52.191406 L 45.714844 48.597656 Z M 35.304688 50.242188 L 37.5625 53.546875 L 30.3125 58.734375 L 27.519531 54.644531 Z M 14.136719 64.597656 L 26.949219 55.015625 L 30.144531 59.691406 L 45.140625 48.960938 L 47.921875 53.164062 L 72.761719 35.101562 L 75.542969 39.125 L 95.152344 23.769531 L 95.097656 53.636719 L 85.296875 39.894531 L 76.957031 44.6875 L 76.9375 44.65625 L 54.996094 61.179688 L 50.191406 55.667969 L 41.855469 60.460938 L 41.824219 60.421875 L 30.015625 69.9375 L 24.335938 64.277344 L 16.003906 69.066406 L 15.980469 69.046875 L 14.140625 70.390625 L 14.140625 64.597656 Z M 54.449219 61.59375 L 47.441406 66.871094 L 42.308594 60.984375 L 50.042969 56.535156 Z M 29.476562 70.367188 L 22.742188 75.792969 L 16.5 69.566406 L 24.222656 65.125 Z M 5.753906 77.371094 L 15.90625 69.9375 L 22.695312 76.707031 L 41.738281 61.367188 L 47.34375 67.796875 L 76.785156 45.621094 L 78.660156 48.246094 L 74.316406 49.21875 L 68.277344 52.277344 L 68.742188 52.902344 C 68.742188 52.902344 68.742188 52.902344 68.742188 52.90625 L 70.628906 55.457031 L 47.800781 72.652344 L 42.738281 66.847656 L 37.035156 70.070312 L 37.003906 70.03125 L 22.78125 81.492188 L 16.84375 75.574219 L 11.144531 78.804688 L 11.121094 78.78125 L 5.753906 82.710938 Z M 83.238281 54.667969 L 81.164062 58.800781 L 76.585938 61.125 L 82.339844 49.683594 L 86.914062 47.359375 L 83.585938 53.980469 L 82.363281 52.269531 L 81.808594 52.664062 Z M 81.96875 49.101562 L 71.367188 51.476562 L 74.507812 49.878906 L 85.113281 47.507812 Z M 47.253906 73.066406 L 42.664062 76.523438 L 37.496094 70.597656 L 42.589844 67.71875 Z M 22.246094 81.925781 L 17.839844 85.476562 L 11.648438 79.304688 L 16.730469 76.429688 Z M 0.730469 87.234375 L 11.054688 79.675781 L 17.792969 86.394531 L 36.921875 70.980469 L 42.566406 77.453125 L 71.578125 55.597656 L 69.375 52.621094 L 81.457031 49.917969 L 75.761719 61.25 L 73.234375 57.839844 L 42.171875 81.238281 L 36.582031 74.832031 L 17.59375 90.128906 L 10.777344 83.332031 L 0.730469 90.6875 Z M 73.203125 58.933594 L 47.636719 78.191406 L 46.488281 78.839844 L 73.101562 58.796875 Z M 36.75 76.066406 L 23.078125 87.082031 L 21.027344 88.238281 L 36.5 75.773438 Z M 7.96875 86.335938 L 5.902344 87.847656 L 5.28125 88.199219 L 8.074219 86.15625 Z M 8.234375 86.144531 L 8.15625 86.097656 L 10.707031 84.230469 L 10.765625 84.289062 Z M 86.769531 131.511719 L 8.878906 86.515625 L 11.257812 84.777344 L 17.546875 91.046875 L 17.761719 90.871094 L 23.460938 87.648438 L 37.199219 76.578125 L 42.070312 82.167969 L 42.308594 81.988281 L 47.988281 78.777344 L 48.007812 78.765625 L 73.605469 59.484375 L 75.265625 61.722656 L 75.714844 62.332031 L 81.671875 59.304688 L 83.6875 55.292969 L 86.769531 59.617188 Z M 84.035156 54.609375 L 88.316406 46.089844 L 79.386719 48.089844 L 77.355469 45.246094 L 85.097656 40.796875 L 94.945312 54.589844 L 87.210938 59.054688 Z M 87.453125 131.511719 L 87.453125 59.707031 L 95.09375 55.292969 L 95.148438 127.066406 Z M 103.53125 122.226562 L 95.832031 126.671875 L 95.777344 54.699219 L 95.832031 23.390625 C 95.832031 23.351562 95.828125 23.316406 95.816406 23.28125 L 103.53125 18.917969 Z M 103.53125 122.226562 "/></g><path style=" stroke:none;fill-rule:nonzero;fill:#5284ff;fill-opacity:1;" d="M 296.789062 33.441406 L 296.789062 113.226562 L 260.296875 134.289062 L 260.3125 54.566406 Z M 296.789062 33.441406 "/><path style=" stroke:none;fill-rule:nonzero;fill:#9fcdff;fill-opacity:1;" d="M 263.15625 64.300781 L 263.140625 63.144531 L 288.265625 48.589844 C 288.554688 48.417969 288.882812 48.441406 289.136719 48.589844 L 290.121094 49.160156 C 290.121094 49.160156 289.679688 48.992188 289.273438 49.171875 Z M 289.273438 57.152344 C 289.675781 56.96875 290.121094 57.140625 290.121094 57.140625 L 289.132812 56.566406 C 288.878906 56.421875 288.554688 56.398438 288.261719 56.566406 L 263.136719 71.125 L 263.15625 72.28125 Z M 289.273438 65.128906 C 289.675781 64.949219 290.121094 65.117188 290.121094 65.117188 L 289.132812 64.546875 C 288.878906 64.398438 288.554688 64.378906 288.261719 64.546875 L 263.136719 79.105469 L 263.15625 80.261719 Z M 289.273438 73.113281 C 289.675781 72.929688 290.121094 73.097656 290.121094 73.097656 L 289.132812 72.527344 C 288.878906 72.382812 288.554688 72.359375 288.261719 72.527344 L 263.136719 87.085938 L 263.15625 88.242188 Z M 289.273438 81.09375 C 289.675781 80.910156 290.121094 81.082031 290.121094 81.082031 L 289.132812 80.507812 C 288.878906 80.363281 288.554688 80.339844 288.261719 80.507812 L 263.136719 95.066406 L 263.15625 96.222656 Z M 289.273438 89.070312 C 289.675781 88.890625 290.121094 89.058594 290.121094 89.058594 L 289.132812 88.488281 C 288.878906 88.339844 288.554688 88.320312 288.261719 88.488281 L 263.136719 103.046875 L 263.15625 104.203125 Z M 289.273438 97.054688 C 289.675781 96.871094 290.121094 97.039062 290.121094 97.039062 L 289.132812 96.46875 C 288.878906 96.324219 288.554688 96.300781 288.261719 96.46875 L 263.136719 111.027344 L 263.15625 112.183594 Z M 290.253906 103.84375 L 289.570312 103.453125 L 263.140625 118.6875 L 263.15625 119.636719 Z M 263.15625 120.246094 L 263.140625 121.121094 L 288.128906 106.710938 L 287.390625 106.285156 Z M 288.4375 105.765625 L 289.269531 106.246094 L 289.917969 105.855469 L 289.085938 105.390625 Z M 288.4375 105.765625 "/><path style=" stroke:none;fill-rule:nonzero;fill:#1c0140;fill-opacity:1;" d="M 267.046875 120.109375 L 267.921875 119.601562 L 267.921875 123.519531 L 267.046875 124.027344 Z M 265.46875 124.945312 L 266.34375 124.4375 L 266.34375 120.519531 L 265.46875 121.027344 Z M 268.628906 123.113281 L 269.5 122.605469 L 269.5 118.6875 L 268.628906 119.195312 Z M 263.886719 125.859375 L 264.761719 125.351562 L 264.761719 121.433594 L 263.886719 121.941406 Z M 270.207031 122.199219 L 271.082031 121.691406 L 271.082031 117.773438 L 270.207031 118.28125 Z M 271.789062 121.28125 L 272.660156 120.773438 L 272.660156 116.855469 L 271.789062 117.363281 Z M 274.949219 119.453125 L 275.820312 118.945312 L 275.820312 115.027344 L 274.949219 115.535156 Z M 279.6875 116.707031 L 280.5625 116.199219 L 280.5625 112.28125 L 279.6875 112.789062 Z M 278.105469 117.621094 L 278.980469 117.113281 L 278.980469 113.195312 L 278.105469 113.703125 Z M 276.527344 118.535156 L 277.402344 118.027344 L 277.402344 114.109375 L 276.527344 114.617188 Z M 284.425781 113.957031 L 285.300781 113.449219 L 285.300781 109.535156 L 284.425781 110.039062 Z M 286.007812 109.125 L 286.007812 113.042969 L 286.878906 112.535156 C 286.847656 112.410156 286.878906 108.617188 286.878906 108.617188 Z M 273.367188 120.367188 L 274.242188 119.859375 L 274.242188 115.941406 L 273.367188 116.449219 Z M 282.847656 114.875 L 283.722656 114.367188 L 283.722656 110.449219 L 282.847656 110.957031 Z M 281.265625 115.789062 L 282.140625 115.28125 L 282.140625 111.363281 L 281.265625 111.871094 Z M 280.300781 102.816406 C 279.816406 103.066406 279.613281 103.625 279.613281 103.980469 C 279.613281 104.339844 279.96875 104.59375 280.320312 104.394531 C 280.667969 104.195312 280.992188 103.722656 280.992188 103.273438 C 280.992188 102.835938 280.628906 102.640625 280.300781 102.816406 Z M 282.863281 101.648438 L 283.21875 101.441406 L 283.21875 101.191406 L 282.863281 101.398438 Z M 283.507812 101.273438 L 283.863281 101.070312 L 283.863281 100.8125 L 283.507812 101.023438 Z M 282.863281 102.21875 L 283.21875 102.011719 L 283.21875 101.757812 L 282.863281 101.964844 Z M 284.152344 100.898438 L 284.511719 100.691406 L 284.511719 100.4375 L 284.152344 100.644531 Z M 282.21875 102.019531 L 282.574219 101.8125 L 282.574219 101.566406 L 282.21875 101.773438 Z M 281.574219 102.96875 L 281.929688 102.761719 L 281.929688 102.503906 L 281.574219 102.710938 Z M 282.21875 102.59375 L 282.574219 102.386719 L 282.574219 102.128906 L 282.21875 102.335938 Z M 281.574219 102.394531 L 281.929688 102.191406 L 281.929688 101.941406 L 281.574219 102.152344 Z M 284.152344 101.472656 L 284.511719 101.265625 L 284.511719 101.007812 L 284.152344 101.214844 Z M 281.574219 103.546875 L 281.929688 103.339844 L 281.929688 103.074219 L 281.574219 103.28125 Z M 284.152344 102.050781 L 284.511719 101.84375 L 284.511719 101.582031 L 284.152344 101.785156 Z M 283.507812 101.84375 L 283.863281 101.636719 L 283.863281 101.382812 L 283.507812 101.585938 Z M 282.863281 102.800781 L 283.21875 102.59375 L 283.21875 102.328125 L 282.863281 102.535156 Z M 282.21875 103.171875 L 282.574219 102.964844 L 282.574219 102.703125 L 282.21875 102.90625 Z M 283.507812 102.425781 L 283.863281 102.21875 L 283.863281 101.953125 L 283.507812 102.160156 Z M 284.796875 100.515625 L 285.15625 100.308594 L 285.15625 100.054688 L 284.796875 100.265625 Z M 284.796875 101.089844 L 285.15625 100.882812 L 285.15625 100.625 L 284.796875 100.832031 Z M 284.796875 101.664062 L 285.15625 101.460938 L 285.15625 101.195312 L 284.796875 101.402344 Z M 280.320312 106.992188 C 280.667969 106.796875 280.992188 106.320312 280.992188 105.871094 C 280.992188 105.4375 280.625 105.242188 280.300781 105.414062 C 279.816406 105.667969 279.613281 106.222656 279.613281 106.582031 C 279.617188 106.941406 279.972656 107.195312 280.320312 106.992188 Z M 283.21875 103.789062 L 282.863281 104 L 282.863281 104.25 L 283.21875 104.042969 Z M 283.863281 103.414062 L 283.507812 103.625 L 283.507812 103.875 L 283.863281 103.667969 Z M 283.21875 104.355469 L 282.863281 104.5625 L 282.863281 104.820312 L 283.21875 104.613281 Z M 284.511719 103.035156 L 284.152344 103.246094 L 284.152344 103.5 L 284.511719 103.292969 Z M 282.574219 104.167969 L 282.21875 104.375 L 282.21875 104.625 L 282.574219 104.417969 Z M 281.929688 105.105469 L 281.574219 105.3125 L 281.574219 105.566406 L 281.929688 105.363281 Z M 282.574219 104.730469 L 282.21875 104.9375 L 282.21875 105.191406 L 282.574219 104.984375 Z M 281.929688 104.542969 L 281.574219 104.75 L 281.574219 104.996094 L 281.929688 104.789062 Z M 284.511719 103.609375 L 284.152344 103.816406 L 284.152344 104.070312 L 284.511719 103.863281 Z M 281.929688 105.675781 L 281.574219 105.882812 L 281.574219 106.148438 L 281.929688 105.941406 Z M 284.511719 104.179688 L 284.152344 104.386719 L 284.152344 104.652344 L 284.511719 104.445312 Z M 283.863281 103.984375 L 283.507812 104.191406 L 283.507812 104.445312 L 283.863281 104.242188 Z M 283.21875 104.929688 L 282.863281 105.136719 L 282.863281 105.398438 L 283.21875 105.191406 Z M 282.574219 105.300781 L 282.21875 105.507812 L 282.21875 105.773438 L 282.574219 105.566406 Z M 283.863281 104.554688 L 283.507812 104.757812 L 283.507812 105.023438 L 283.863281 104.816406 Z M 285.15625 102.65625 L 284.796875 102.863281 L 284.796875 103.117188 L 285.15625 102.910156 Z M 285.15625 103.226562 L 284.796875 103.433594 L 284.796875 103.6875 L 285.15625 103.480469 Z M 285.15625 103.796875 L 284.796875 104.003906 L 284.796875 104.269531 L 285.15625 104.0625 Z M 280.320312 88.425781 C 280.667969 88.226562 280.992188 87.753906 280.992188 87.304688 C 280.992188 86.871094 280.625 86.671875 280.300781 86.847656 C 279.816406 87.097656 279.613281 87.65625 279.613281 88.011719 C 279.617188 88.371094 279.972656 88.625 280.320312 88.425781 Z M 283.21875 85.222656 L 282.863281 85.429688 L 282.863281 85.679688 L 283.21875 85.472656 Z M 283.863281 84.84375 L 283.507812 85.054688 L 283.507812 85.304688 L 283.863281 85.097656 Z M 283.21875 85.785156 L 282.863281 85.992188 L 282.863281 86.25 L 283.21875 86.042969 Z M 284.511719 84.46875 L 284.152344 84.679688 L 284.152344 84.933594 L 284.511719 84.726562 Z M 282.574219 85.597656 L 282.21875 85.804688 L 282.21875 86.054688 L 282.574219 85.847656 Z M 281.929688 86.535156 L 281.574219 86.742188 L 281.574219 87 L 281.929688 86.792969 Z M 282.574219 86.160156 L 282.21875 86.367188 L 282.21875 86.625 L 282.574219 86.417969 Z M 281.929688 85.972656 L 281.574219 86.183594 L 281.574219 86.425781 L 281.929688 86.21875 Z M 284.511719 85.039062 L 284.152344 85.246094 L 284.152344 85.5 L 284.511719 85.296875 Z M 281.929688 87.105469 L 281.574219 87.3125 L 281.574219 87.578125 L 281.929688 87.371094 Z M 284.511719 85.609375 L 284.152344 85.816406 L 284.152344 86.082031 L 284.511719 85.875 Z M 283.863281 85.414062 L 283.507812 85.621094 L 283.507812 85.878906 L 283.863281 85.671875 Z M 283.21875 86.359375 L 282.863281 86.566406 L 282.863281 86.828125 L 283.21875 86.621094 Z M 282.574219 86.734375 L 282.21875 86.941406 L 282.21875 87.203125 L 282.574219 87 Z M 283.863281 85.984375 L 283.507812 86.191406 L 283.507812 86.457031 L 283.863281 86.25 Z M 285.15625 84.085938 L 284.796875 84.296875 L 284.796875 84.546875 L 285.15625 84.339844 Z M 285.15625 84.65625 L 284.796875 84.863281 L 284.796875 85.117188 L 285.15625 84.914062 Z M 285.15625 85.226562 L 284.796875 85.433594 L 284.796875 85.699219 L 285.15625 85.492188 Z M 280.320312 91.027344 C 280.667969 90.828125 280.992188 90.355469 280.992188 89.90625 C 280.992188 89.46875 280.625 89.273438 280.300781 89.445312 C 279.816406 89.699219 279.613281 90.253906 279.613281 90.613281 C 279.617188 90.972656 279.972656 91.226562 280.320312 91.027344 Z M 283.21875 87.820312 L 282.863281 88.03125 L 282.863281 88.28125 L 283.21875 88.074219 Z M 283.863281 87.445312 L 283.507812 87.652344 L 283.507812 87.90625 L 283.863281 87.699219 Z M 283.21875 88.386719 L 282.863281 88.59375 L 282.863281 88.851562 L 283.21875 88.644531 Z M 284.511719 87.070312 L 284.152344 87.277344 L 284.152344 87.53125 L 284.511719 87.324219 Z M 282.574219 88.199219 L 282.21875 88.40625 L 282.21875 88.652344 L 282.574219 88.445312 Z M 281.929688 89.132812 L 281.574219 89.339844 L 281.574219 89.597656 L 281.929688 89.390625 Z M 282.574219 88.761719 L 282.21875 88.96875 L 282.21875 89.226562 L 282.574219 89.019531 Z M 281.929688 88.574219 L 281.574219 88.785156 L 281.574219 89.027344 L 281.929688 88.820312 Z M 284.511719 87.640625 L 284.152344 87.847656 L 284.152344 88.105469 L 284.511719 87.898438 Z M 281.929688 89.707031 L 281.574219 89.914062 L 281.574219 90.175781 L 281.929688 89.972656 Z M 284.511719 88.210938 L 284.152344 88.417969 L 284.152344 88.683594 L 284.511719 88.476562 Z M 283.863281 88.011719 L 283.507812 88.21875 L 283.507812 88.476562 L 283.863281 88.269531 Z M 283.21875 88.957031 L 282.863281 89.164062 L 282.863281 89.429688 L 283.21875 89.222656 Z M 282.574219 89.332031 L 282.21875 89.539062 L 282.21875 89.804688 L 282.574219 89.597656 Z M 283.863281 88.585938 L 283.507812 88.792969 L 283.507812 89.054688 L 283.863281 88.851562 Z M 285.15625 86.6875 L 284.796875 86.898438 L 284.796875 87.148438 L 285.15625 86.941406 Z M 285.15625 87.253906 L 284.796875 87.460938 L 284.796875 87.71875 L 285.15625 87.511719 Z M 285.15625 87.828125 L 284.796875 88.035156 L 284.796875 88.296875 L 285.15625 88.089844 Z M 262.027344 87.457031 L 288.140625 72.324219 L 289.320312 71.640625 L 289.320312 70.605469 L 263.28125 85.691406 L 263.03125 85.257812 L 263.175781 85.175781 L 263.175781 82.988281 L 262.890625 82.988281 L 262.890625 56.21875 L 294.148438 38.15625 L 294.148438 111.535156 L 294.023438 111.605469 L 262.890625 129.402344 L 262.890625 103.339844 L 263.386719 103.339844 L 263.386719 103.800781 L 289.144531 88.875 C 289.167969 88.863281 289.1875 88.855469 289.210938 88.84375 L 289.007812 88.726562 C 288.8125 88.613281 288.582031 88.613281 288.386719 88.726562 L 266.242188 101.558594 L 265.992188 101.125 L 288.136719 88.292969 L 289.316406 87.609375 L 289.316406 86.574219 L 263.28125 101.660156 L 263.03125 101.226562 L 263.171875 101.140625 L 263.171875 100.523438 L 262.886719 100.523438 L 262.886719 88.683594 L 263.171875 88.683594 L 263.171875 88.289062 L 263.03125 88.039062 L 289.144531 72.90625 C 289.164062 72.894531 289.1875 72.886719 289.207031 72.878906 L 289.003906 72.761719 C 288.808594 72.648438 288.578125 72.648438 288.386719 72.761719 L 262.273438 87.890625 Z M 286.351562 79.726562 L 289.515625 77.894531 C 289.863281 77.691406 290.113281 77.371094 290.242188 76.996094 L 287.101562 78.816406 C 286.90625 78.929688 286.660156 78.789062 286.660156 78.558594 C 286.660156 78.332031 286.777344 78.121094 286.976562 78.007812 L 290.21875 76.128906 C 290.167969 76.054688 290.101562 75.988281 290.019531 75.9375 C 289.828125 75.824219 289.59375 75.824219 289.398438 75.9375 L 286.351562 77.703125 Z M 286.660156 83.953125 C 286.660156 83.726562 286.777344 83.519531 286.976562 83.40625 L 290.222656 81.523438 C 290.171875 81.445312 290.101562 81.375 290.015625 81.328125 C 289.824219 81.214844 289.589844 81.214844 289.398438 81.328125 L 286.351562 83.09375 L 286.351562 85.113281 L 289.144531 83.492188 L 289.511719 83.28125 C 289.855469 83.082031 290.109375 82.765625 290.234375 82.398438 L 287.097656 84.214844 C 286.90625 84.324219 286.660156 84.183594 286.660156 83.953125 Z M 277.859375 80.027344 C 278.300781 80.265625 279.234375 80.742188 279.699219 80.980469 L 285.789062 77.453125 L 285.789062 75.433594 Z M 277.859375 82.628906 C 278.300781 82.863281 279.234375 83.34375 279.699219 83.582031 L 285.789062 80.050781 L 285.789062 78.03125 Z M 263.386719 94.648438 L 288.140625 80.308594 L 289.320312 79.621094 L 289.320312 78.585938 L 263.386719 93.613281 Z M 263.386719 95.816406 L 289.144531 80.890625 C 289.167969 80.878906 289.1875 80.871094 289.210938 80.859375 L 289.007812 80.742188 C 288.8125 80.628906 288.582031 80.628906 288.386719 80.742188 L 263.386719 95.230469 Z M 285.789062 86.015625 L 277.855469 90.609375 C 278.300781 90.847656 279.234375 91.328125 279.699219 91.566406 L 285.789062 88.039062 Z M 285.789062 83.414062 L 277.855469 88.011719 C 278.300781 88.246094 279.234375 88.726562 279.699219 88.964844 L 285.789062 85.4375 Z M 289.515625 85.878906 C 289.863281 85.679688 290.113281 85.355469 290.242188 84.984375 L 287.101562 86.800781 C 286.90625 86.914062 286.660156 86.773438 286.660156 86.542969 C 286.660156 86.316406 286.777344 86.109375 286.976562 85.996094 L 290.21875 84.117188 C 290.167969 84.039062 290.101562 83.976562 290.019531 83.925781 C 289.828125 83.8125 289.59375 83.8125 289.398438 83.925781 L 286.351562 85.691406 L 286.351562 87.710938 Z M 286.351562 93.097656 L 289.144531 91.476562 L 289.511719 91.265625 C 289.855469 91.066406 290.109375 90.75 290.234375 90.382812 L 287.097656 92.199219 C 286.902344 92.3125 286.65625 92.171875 286.65625 91.941406 C 286.65625 91.714844 286.777344 91.503906 286.972656 91.390625 L 290.21875 89.511719 C 290.167969 89.433594 290.101562 89.363281 290.015625 89.3125 C 289.820312 89.203125 289.589844 89.199219 289.394531 89.3125 L 286.347656 91.078125 L 286.347656 93.097656 Z M 286.351562 95.699219 L 289.515625 93.863281 C 289.863281 93.660156 290.113281 93.339844 290.242188 92.964844 L 287.101562 94.785156 C 286.90625 94.898438 286.660156 94.757812 286.660156 94.527344 C 286.660156 94.300781 286.777344 94.09375 286.976562 93.980469 L 290.21875 92.101562 C 290.167969 92.023438 290.101562 91.957031 290.019531 91.910156 C 289.828125 91.796875 289.59375 91.796875 289.398438 91.910156 L 286.351562 93.675781 Z M 286.660156 99.925781 C 286.660156 99.699219 286.777344 99.488281 286.976562 99.375 L 290.222656 97.492188 C 290.171875 97.414062 290.101562 97.34375 290.015625 97.296875 C 289.824219 97.1875 289.589844 97.183594 289.398438 97.296875 L 286.351562 99.0625 L 286.351562 101.082031 L 289.144531 99.464844 L 289.511719 99.253906 C 289.855469 99.054688 290.109375 98.734375 290.234375 98.367188 L 287.097656 100.183594 C 286.90625 100.296875 286.660156 100.152344 286.660156 99.925781 Z M 286.660156 102.515625 C 286.660156 102.289062 286.777344 102.078125 286.976562 101.964844 L 290.21875 100.085938 C 290.167969 100.011719 290.101562 99.945312 290.019531 99.894531 C 289.828125 99.78125 289.59375 99.78125 289.398438 99.894531 L 286.351562 101.660156 L 286.351562 103.679688 L 289.519531 101.847656 C 289.863281 101.644531 290.117188 101.324219 290.242188 100.949219 L 287.101562 102.769531 C 286.90625 102.886719 286.660156 102.742188 286.660156 102.515625 Z M 277.859375 95.996094 C 278.300781 96.234375 279.234375 96.710938 279.699219 96.953125 L 285.789062 93.421875 L 285.789062 91.402344 Z M 277.859375 98.597656 C 278.300781 98.835938 279.234375 99.3125 279.699219 99.550781 L 285.789062 96.023438 L 285.789062 94.003906 Z M 263.386719 110.621094 L 288.140625 96.28125 L 289.320312 95.59375 L 289.320312 94.558594 L 263.386719 109.585938 Z M 263.386719 111.785156 L 289.144531 96.863281 C 289.167969 96.847656 289.1875 96.839844 289.210938 96.828125 L 289.007812 96.710938 C 288.816406 96.597656 288.582031 96.597656 288.386719 96.710938 L 263.386719 111.199219 Z M 285.789062 101.40625 L 285.789062 99.386719 L 277.855469 103.980469 C 278.300781 104.21875 279.234375 104.695312 279.699219 104.9375 Z M 277.859375 106.582031 C 278.300781 106.816406 279.234375 107.296875 279.699219 107.535156 L 285.789062 104.007812 L 285.789062 101.984375 Z M 263.386719 118.332031 L 289.320312 103.308594 L 289.320312 102.539062 L 263.386719 117.5625 Z M 263.386719 119.210938 L 289.828125 103.890625 L 289.570312 103.746094 L 263.386719 118.914062 Z M 263.386719 119.898438 L 287.382812 105.992188 L 287.507812 106.058594 C 287.875 106.257812 288.089844 106.375 288.210938 106.457031 L 288.183594 105.621094 L 289.082031 105.097656 L 290.078125 105.660156 L 290.078125 104.324219 L 263.386719 119.789062 Z M 289.058594 106.125 L 289.441406 105.878906 L 289.085938 105.679688 L 288.6875 105.910156 L 288.6875 105.914062 Z M 288.695312 110.679688 L 288.855469 110.769531 L 288.855469 110.585938 Z M 289.269531 111.160156 L 289.667969 110.925781 L 289.667969 106.328125 L 289.269531 106.585938 Z M 288.378906 106.710938 L 288.378906 110.285156 L 288.628906 110.136719 L 288.628906 106.726562 L 288.332031 106.554688 C 288.378906 106.605469 288.378906 106.644531 288.378906 106.710938 Z M 288.378906 111.675781 L 288.648438 111.519531 L 288.378906 111.363281 Z M 263.386719 120.753906 L 287.636719 106.703125 C 287.558594 106.660156 287.476562 106.617188 287.394531 106.570312 L 263.390625 120.476562 L 263.390625 120.753906 Z M 263.386719 127.011719 L 287.875 112.820312 L 287.875 107.144531 L 263.386719 121.335938 Z M 293.398438 111.386719 L 290.582031 109.757812 L 290.582031 110.976562 L 290.167969 111.214844 L 290.167969 111.351562 L 289.277344 111.882812 L 289.148438 111.804688 L 288.378906 112.253906 L 288.378906 113.109375 L 288.253906 113.179688 L 263.386719 127.585938 L 263.386719 128.539062 Z M 290.269531 40.976562 C 290.324219 41.007812 290.382812 41.042969 290.433594 41.085938 C 290.683594 41.296875 290.828125 41.609375 290.828125 41.941406 C 290.828125 42.542969 290.570312 43.105469 290.144531 43.507812 C 290.183594 43.523438 290.226562 43.546875 290.269531 43.570312 C 290.621094 43.773438 290.828125 44.136719 290.828125 44.542969 C 290.828125 45.28125 290.441406 45.964844 289.820312 46.355469 L 289.820312 48.695312 L 290.246094 48.941406 C 290.253906 48.945312 290.261719 48.949219 290.269531 48.953125 C 290.621094 49.15625 290.828125 49.519531 290.828125 49.925781 C 290.828125 50.523438 290.570312 51.085938 290.144531 51.488281 C 290.183594 51.507812 290.226562 51.527344 290.269531 51.550781 C 290.621094 51.753906 290.828125 52.117188 290.828125 52.523438 C 290.828125 53.261719 290.441406 53.945312 289.820312 54.335938 L 289.820312 56.675781 L 290.246094 56.921875 C 290.253906 56.925781 290.261719 56.929688 290.269531 56.933594 C 290.621094 57.136719 290.828125 57.5 290.828125 57.90625 C 290.828125 58.503906 290.570312 59.070312 290.144531 59.46875 C 290.183594 59.488281 290.226562 59.507812 290.269531 59.53125 C 290.621094 59.738281 290.828125 60.097656 290.828125 60.503906 C 290.828125 61.242188 290.441406 61.929688 289.820312 62.316406 L 289.820312 64.65625 L 290.246094 64.902344 C 290.253906 64.910156 290.261719 64.910156 290.269531 64.914062 C 290.621094 65.117188 290.828125 65.480469 290.828125 65.886719 C 290.828125 66.484375 290.570312 67.050781 290.144531 67.449219 C 290.183594 67.46875 290.226562 67.488281 290.269531 67.515625 C 290.621094 67.71875 290.828125 68.082031 290.828125 68.484375 C 290.828125 69.222656 290.441406 69.910156 289.820312 70.296875 L 289.820312 72.636719 L 290.246094 72.886719 C 290.253906 72.890625 290.261719 72.890625 290.269531 72.894531 C 290.621094 73.097656 290.828125 73.460938 290.828125 73.867188 C 290.828125 74.46875 290.570312 75.03125 290.144531 75.433594 C 290.183594 75.449219 290.226562 75.46875 290.269531 75.496094 C 290.621094 75.699219 290.828125 76.0625 290.828125 76.46875 C 290.828125 77.207031 290.441406 77.890625 289.820312 78.277344 L 289.820312 80.621094 L 290.246094 80.867188 C 290.253906 80.871094 290.261719 80.875 290.269531 80.875 C 290.621094 81.082031 290.828125 81.441406 290.828125 81.847656 C 290.828125 82.449219 290.570312 83.011719 290.144531 83.414062 C 290.183594 83.429688 290.226562 83.449219 290.269531 83.476562 C 290.621094 83.679688 290.828125 84.042969 290.828125 84.449219 C 290.828125 85.1875 290.441406 85.871094 289.820312 86.261719 L 289.820312 88.601562 L 290.246094 88.847656 C 290.253906 88.851562 290.261719 88.855469 290.269531 88.859375 C 290.621094 89.0625 290.828125 89.425781 290.828125 89.828125 C 290.828125 90.429688 290.570312 90.992188 290.144531 91.394531 C 290.183594 91.414062 290.226562 91.433594 290.269531 91.457031 C 290.621094 91.660156 290.828125 92.023438 290.828125 92.429688 C 290.828125 93.167969 290.441406 93.851562 289.820312 94.242188 L 289.820312 96.582031 L 290.246094 96.828125 C 290.253906 96.832031 290.261719 96.835938 290.269531 96.839844 C 290.621094 97.042969 290.828125 97.40625 290.828125 97.8125 C 290.828125 98.410156 290.570312 98.976562 290.144531 99.375 C 290.183594 99.394531 290.226562 99.414062 290.269531 99.4375 C 290.621094 99.644531 290.828125 100.003906 290.828125 100.410156 C 290.828125 101.148438 290.441406 101.835938 289.820312 102.222656 L 289.820312 103.285156 L 290.578125 103.722656 L 290.578125 109.160156 L 293.648438 110.933594 L 293.648438 39.003906 Z M 286.660156 52.015625 C 286.660156 51.789062 286.777344 51.582031 286.976562 51.46875 L 290.222656 49.585938 C 290.171875 49.507812 290.101562 49.4375 290.015625 49.390625 C 289.824219 49.277344 289.589844 49.277344 289.398438 49.390625 L 286.351562 51.15625 L 286.351562 53.175781 L 289.144531 51.554688 L 289.511719 51.34375 C 289.855469 51.144531 290.109375 50.828125 290.234375 50.460938 L 287.097656 52.277344 C 286.90625 52.386719 286.660156 52.246094 286.660156 52.015625 Z M 286.351562 53.753906 L 286.351562 55.773438 L 289.515625 53.941406 C 289.863281 53.738281 290.113281 53.414062 290.242188 53.042969 L 287.101562 54.863281 C 286.90625 54.976562 286.660156 54.835938 286.660156 54.605469 C 286.660156 54.378906 286.777344 54.167969 286.976562 54.054688 L 290.21875 52.175781 C 290.167969 52.101562 290.101562 52.035156 290.019531 51.988281 C 289.828125 51.875 289.59375 51.875 289.398438 51.988281 Z M 289.398438 57.371094 L 286.351562 59.136719 L 286.351562 61.15625 L 289.144531 59.539062 L 289.511719 59.324219 C 289.855469 59.128906 290.109375 58.808594 290.234375 58.441406 L 287.097656 60.257812 C 286.902344 60.371094 286.65625 60.230469 286.65625 60 C 286.65625 59.773438 286.777344 59.566406 286.972656 59.453125 L 290.21875 57.570312 C 290.167969 57.492188 290.101562 57.421875 290.015625 57.375 C 289.824219 57.261719 289.59375 57.261719 289.398438 57.371094 Z M 286.351562 61.738281 L 286.351562 63.757812 L 289.515625 61.921875 C 289.863281 61.722656 290.113281 61.398438 290.242188 61.027344 L 287.101562 62.84375 C 286.90625 62.957031 286.660156 62.816406 286.660156 62.589844 C 286.660156 62.363281 286.777344 62.152344 286.976562 62.039062 L 290.21875 60.160156 C 290.167969 60.085938 290.101562 60.019531 290.019531 59.972656 C 289.828125 59.859375 289.59375 59.859375 289.398438 59.972656 Z M 289.398438 65.355469 L 286.351562 67.125 L 286.351562 69.144531 L 289.144531 67.523438 L 289.511719 67.3125 C 289.855469 67.113281 290.109375 66.796875 290.234375 66.429688 L 287.097656 68.246094 C 286.902344 68.359375 286.65625 68.214844 286.65625 67.988281 C 286.65625 67.761719 286.777344 67.550781 286.972656 67.4375 L 290.21875 65.554688 C 290.167969 65.476562 290.101562 65.40625 290.015625 65.359375 C 289.824219 65.242188 289.59375 65.242188 289.398438 65.355469 Z M 286.351562 45.191406 L 289.144531 43.570312 L 289.511719 43.359375 C 289.855469 43.160156 290.109375 42.84375 290.234375 42.472656 L 287.097656 44.289062 C 286.902344 44.402344 286.65625 44.261719 286.65625 44.035156 C 286.65625 43.808594 286.777344 43.597656 286.972656 43.484375 L 290.21875 41.601562 C 290.1875 41.554688 290.152344 41.507812 290.109375 41.472656 C 289.980469 41.367188 289.824219 41.316406 289.664062 41.324219 L 286.347656 43.242188 L 286.347656 45.191406 Z M 286.351562 47.789062 L 289.515625 45.957031 C 289.863281 45.753906 290.113281 45.433594 290.242188 45.058594 L 287.101562 46.878906 C 286.90625 46.992188 286.660156 46.851562 286.660156 46.621094 C 286.660156 46.394531 286.777344 46.183594 286.976562 46.070312 L 290.21875 44.191406 C 290.167969 44.117188 290.101562 44.050781 290.019531 44 C 289.828125 43.886719 289.59375 43.886719 289.398438 44 L 286.351562 45.765625 Z M 277.910156 48.117188 C 278.371094 48.363281 279.25 48.816406 279.699219 49.042969 L 285.789062 45.515625 L 285.789062 43.566406 Z M 277.859375 50.691406 C 278.300781 50.925781 279.234375 51.40625 279.699219 51.644531 L 285.789062 48.113281 L 285.789062 46.09375 Z M 263.386719 62.710938 L 288.136719 48.371094 L 289.316406 47.6875 L 289.316406 46.652344 L 263.386719 61.675781 Z M 263.386719 63.878906 L 289.144531 48.953125 C 289.167969 48.941406 289.1875 48.933594 289.210938 48.921875 L 289.007812 48.804688 C 288.816406 48.691406 288.582031 48.691406 288.386719 48.804688 L 263.386719 63.292969 Z M 285.789062 53.5 L 285.789062 51.476562 L 277.855469 56.074219 C 278.300781 56.308594 279.234375 56.789062 279.699219 57.027344 Z M 277.859375 58.675781 C 278.300781 58.914062 279.234375 59.390625 279.699219 59.628906 L 285.789062 56.101562 L 285.789062 54.082031 Z M 263.386719 70.695312 L 288.136719 56.355469 L 289.316406 55.671875 L 289.316406 54.636719 L 263.386719 69.660156 Z M 263.386719 71.863281 L 289.144531 56.9375 C 289.167969 56.925781 289.1875 56.917969 289.210938 56.90625 L 289.007812 56.789062 C 288.816406 56.675781 288.582031 56.675781 288.386719 56.789062 L 263.386719 71.273438 Z M 285.789062 61.484375 L 285.789062 59.464844 L 277.855469 64.058594 C 278.300781 64.296875 279.234375 64.773438 279.699219 65.015625 Z M 277.859375 66.660156 C 278.300781 66.898438 279.234375 67.375 279.699219 67.613281 L 285.789062 64.085938 L 285.789062 62.066406 Z M 263.386719 78.679688 L 288.136719 64.339844 L 289.316406 63.652344 L 289.316406 62.617188 L 263.386719 77.644531 Z M 263.386719 79.847656 L 289.144531 64.921875 C 289.167969 64.910156 289.1875 64.902344 289.210938 64.886719 L 289.007812 64.773438 C 288.816406 64.660156 288.582031 64.660156 288.386719 64.773438 L 263.386719 79.257812 Z M 285.789062 70.046875 L 277.855469 74.644531 C 278.300781 74.878906 279.234375 75.359375 279.699219 75.597656 L 285.789062 72.070312 Z M 285.789062 67.449219 L 277.855469 72.042969 C 278.300781 72.28125 279.234375 72.757812 279.699219 73 L 285.789062 69.46875 Z M 289.515625 69.910156 C 289.863281 69.707031 290.113281 69.386719 290.242188 69.011719 L 287.101562 70.832031 C 286.90625 70.945312 286.660156 70.804688 286.660156 70.574219 C 286.660156 70.347656 286.777344 70.140625 286.976562 70.027344 L 290.21875 68.144531 C 290.167969 68.070312 290.101562 68.003906 290.019531 67.957031 C 289.828125 67.84375 289.59375 67.84375 289.398438 67.957031 L 286.351562 69.722656 L 286.351562 71.742188 Z M 286.351562 75.105469 L 286.351562 77.128906 L 289.144531 75.507812 L 289.511719 75.296875 C 289.855469 75.097656 290.109375 74.78125 290.234375 74.410156 L 287.097656 76.226562 C 286.902344 76.339844 286.65625 76.199219 286.65625 75.972656 C 286.65625 75.746094 286.777344 75.535156 286.972656 75.421875 L 290.21875 73.539062 C 290.167969 73.460938 290.101562 73.390625 290.015625 73.34375 C 289.820312 73.230469 289.589844 73.230469 289.394531 73.34375 Z M 280.320312 80.441406 C 280.667969 80.242188 280.992188 79.769531 280.992188 79.320312 C 280.992188 78.886719 280.625 78.691406 280.300781 78.863281 C 279.816406 79.117188 279.613281 79.671875 279.613281 80.03125 C 279.617188 80.386719 279.972656 80.640625 280.320312 80.441406 Z M 283.21875 77.234375 L 282.863281 77.445312 L 282.863281 77.695312 L 283.21875 77.488281 Z M 283.863281 76.859375 L 283.507812 77.070312 L 283.507812 77.320312 L 283.863281 77.113281 Z M 283.21875 77.800781 L 282.863281 78.007812 L 282.863281 78.265625 L 283.21875 78.058594 Z M 284.511719 76.484375 L 284.152344 76.691406 L 284.152344 76.945312 L 284.511719 76.738281 Z M 282.574219 77.613281 L 282.21875 77.824219 L 282.21875 78.070312 L 282.574219 77.863281 Z M 281.929688 78.550781 L 281.574219 78.757812 L 281.574219 79.015625 L 281.929688 78.808594 Z M 282.574219 78.175781 L 282.21875 78.382812 L 282.21875 78.640625 L 282.574219 78.433594 Z M 281.929688 77.988281 L 281.574219 78.199219 L 281.574219 78.441406 L 281.929688 78.234375 Z M 284.511719 77.054688 L 284.152344 77.261719 L 284.152344 77.519531 L 284.511719 77.3125 Z M 281.929688 79.121094 L 281.574219 79.328125 L 281.574219 79.59375 L 281.929688 79.386719 Z M 284.511719 77.625 L 284.152344 77.832031 L 284.152344 78.097656 L 284.511719 77.890625 Z M 283.863281 77.429688 L 283.507812 77.636719 L 283.507812 77.894531 L 283.863281 77.6875 Z M 283.21875 78.375 L 282.863281 78.582031 L 282.863281 78.847656 L 283.21875 78.640625 Z M 282.574219 78.746094 L 282.21875 78.953125 L 282.21875 79.21875 L 282.574219 79.011719 Z M 283.863281 78 L 283.507812 78.207031 L 283.507812 78.472656 L 283.863281 78.265625 Z M 285.15625 76.101562 L 284.796875 76.3125 L 284.796875 76.5625 L 285.15625 76.355469 Z M 285.15625 76.671875 L 284.796875 76.878906 L 284.796875 77.136719 L 285.15625 76.929688 Z M 285.15625 77.242188 L 284.796875 77.449219 L 284.796875 77.714844 L 285.15625 77.507812 Z M 280.320312 83.042969 C 280.667969 82.84375 280.992188 82.371094 280.992188 81.921875 C 280.992188 81.484375 280.625 81.289062 280.300781 81.464844 C 279.816406 81.714844 279.613281 82.273438 279.613281 82.628906 C 279.617188 82.988281 279.972656 83.242188 280.320312 83.042969 Z M 283.21875 79.835938 L 282.863281 80.042969 L 282.863281 80.292969 L 283.21875 80.085938 Z M 283.863281 79.460938 L 283.507812 79.667969 L 283.507812 79.921875 L 283.863281 79.714844 Z M 283.21875 80.402344 L 282.863281 80.609375 L 282.863281 80.867188 L 283.21875 80.660156 Z M 284.511719 79.082031 L 284.152344 79.292969 L 284.152344 79.546875 L 284.511719 79.339844 Z M 282.574219 80.214844 L 282.21875 80.421875 L 282.21875 80.667969 L 282.574219 80.464844 Z M 281.929688 81.152344 L 281.574219 81.359375 L 281.574219 81.613281 L 281.929688 81.40625 Z M 282.574219 80.777344 L 282.21875 80.984375 L 282.21875 81.242188 L 282.574219 81.035156 Z M 281.929688 80.589844 L 281.574219 80.796875 L 281.574219 81.042969 L 281.929688 80.835938 Z M 284.511719 79.65625 L 284.152344 79.859375 L 284.152344 80.117188 L 284.511719 79.910156 Z M 281.929688 81.722656 L 281.574219 81.929688 L 281.574219 82.195312 L 281.929688 81.988281 Z M 284.511719 80.226562 L 284.152344 80.433594 L 284.152344 80.699219 L 284.511719 80.492188 Z M 283.863281 80.03125 L 283.507812 80.238281 L 283.507812 80.492188 L 283.863281 80.285156 Z M 283.21875 80.972656 L 282.863281 81.179688 L 282.863281 81.445312 L 283.21875 81.238281 Z M 282.574219 81.351562 L 282.21875 81.554688 L 282.21875 81.820312 L 282.574219 81.613281 Z M 283.863281 80.601562 L 283.507812 80.808594 L 283.507812 81.074219 L 283.863281 80.867188 Z M 285.15625 78.703125 L 284.796875 78.910156 L 284.796875 79.164062 L 285.15625 78.957031 Z M 285.15625 79.273438 L 284.796875 79.476562 L 284.796875 79.734375 L 285.15625 79.527344 Z M 285.15625 79.84375 L 284.796875 80.050781 L 284.796875 80.316406 L 285.15625 80.109375 Z M 280.320312 72.457031 C 280.667969 72.257812 280.992188 71.785156 280.992188 71.335938 C 280.992188 70.898438 280.625 70.703125 280.300781 70.878906 C 279.816406 71.128906 279.613281 71.6875 279.613281 72.042969 C 279.617188 72.402344 279.972656 72.65625 280.320312 72.457031 Z M 283.21875 69.253906 L 282.863281 69.460938 L 282.863281 69.710938 L 283.21875 69.503906 Z M 283.863281 68.875 L 283.507812 69.085938 L 283.507812 69.335938 L 283.863281 69.132812 Z M 283.21875 69.820312 L 282.863281 70.027344 L 282.863281 70.28125 L 283.21875 70.074219 Z M 284.511719 68.5 L 284.152344 68.707031 L 284.152344 68.960938 L 284.511719 68.753906 Z M 282.574219 69.628906 L 282.21875 69.835938 L 282.21875 70.082031 L 282.574219 69.875 Z M 281.929688 70.566406 L 281.574219 70.773438 L 281.574219 71.03125 L 281.929688 70.824219 Z M 282.574219 70.191406 L 282.21875 70.398438 L 282.21875 70.65625 L 282.574219 70.449219 Z M 281.929688 70.003906 L 281.574219 70.214844 L 281.574219 70.457031 L 281.929688 70.253906 Z M 284.511719 69.070312 L 284.152344 69.277344 L 284.152344 69.535156 L 284.511719 69.328125 Z M 281.929688 71.136719 L 281.574219 71.34375 L 281.574219 71.609375 L 281.929688 71.402344 Z M 284.511719 69.644531 L 284.152344 69.847656 L 284.152344 70.113281 L 284.511719 69.90625 Z M 283.863281 69.445312 L 283.507812 69.648438 L 283.507812 69.90625 L 283.863281 69.699219 Z M 283.21875 70.390625 L 282.863281 70.597656 L 282.863281 70.863281 L 283.21875 70.65625 Z M 282.574219 70.765625 L 282.21875 70.96875 L 282.21875 71.234375 L 282.574219 71.027344 Z M 283.863281 70.015625 L 283.507812 70.222656 L 283.507812 70.488281 L 283.863281 70.28125 Z M 285.15625 68.117188 L 284.796875 68.328125 L 284.796875 68.578125 L 285.15625 68.371094 Z M 285.15625 68.6875 L 284.796875 68.894531 L 284.796875 69.152344 L 285.15625 68.945312 Z M 285.15625 69.257812 L 284.796875 69.464844 L 284.796875 69.730469 L 285.15625 69.523438 Z M 280.320312 75.058594 C 280.667969 74.859375 280.992188 74.382812 280.992188 73.9375 C 280.992188 73.5 280.625 73.304688 280.300781 73.476562 C 279.816406 73.730469 279.613281 74.285156 279.613281 74.644531 C 279.617188 75.003906 279.972656 75.253906 280.320312 75.058594 Z M 283.21875 71.851562 L 282.863281 72.0625 L 282.863281 72.3125 L 283.21875 72.105469 Z M 283.863281 71.476562 L 283.507812 71.6875 L 283.507812 71.9375 L 283.863281 71.730469 Z M 283.21875 72.417969 L 282.863281 72.625 L 282.863281 72.882812 L 283.21875 72.675781 Z M 284.511719 71.097656 L 284.152344 71.308594 L 284.152344 71.5625 L 284.511719 71.355469 Z M 282.574219 72.230469 L 282.21875 72.4375 L 282.21875 72.6875 L 282.574219 72.480469 Z M 281.929688 73.167969 L 281.574219 73.375 L 281.574219 73.628906 L 281.929688 73.425781 Z M 282.574219 72.792969 L 282.21875 73 L 282.21875 73.253906 L 282.574219 73.046875 Z M 281.929688 72.605469 L 281.574219 72.816406 L 281.574219 73.058594 L 281.929688 72.851562 Z M 284.511719 71.671875 L 284.152344 71.878906 L 284.152344 72.132812 L 284.511719 71.925781 Z M 281.929688 73.738281 L 281.574219 73.945312 L 281.574219 74.210938 L 281.929688 74.003906 Z M 284.511719 72.242188 L 284.152344 72.449219 L 284.152344 72.714844 L 284.511719 72.507812 Z M 283.863281 72.046875 L 283.507812 72.253906 L 283.507812 72.507812 L 283.863281 72.304688 Z M 283.21875 72.992188 L 282.863281 73.199219 L 282.863281 73.460938 L 283.21875 73.253906 Z M 282.574219 73.363281 L 282.21875 73.570312 L 282.21875 73.835938 L 282.574219 73.628906 Z M 283.863281 72.617188 L 283.507812 72.820312 L 283.507812 73.085938 L 283.863281 72.878906 Z M 285.15625 70.71875 L 284.796875 70.925781 L 284.796875 71.179688 L 285.15625 70.972656 Z M 285.15625 71.289062 L 284.796875 71.496094 L 284.796875 71.75 L 285.15625 71.542969 Z M 285.15625 71.859375 L 284.796875 72.066406 L 284.796875 72.332031 L 285.15625 72.125 Z M 280.300781 62.890625 C 279.816406 63.144531 279.613281 63.699219 279.613281 64.058594 C 279.613281 64.417969 279.96875 64.667969 280.320312 64.46875 C 280.667969 64.269531 280.992188 63.796875 280.992188 63.347656 C 280.992188 62.917969 280.628906 62.71875 280.300781 62.890625 Z M 282.863281 61.726562 L 283.21875 61.519531 L 283.21875 61.269531 L 282.863281 61.476562 Z M 283.507812 61.351562 L 283.863281 61.144531 L 283.863281 60.890625 L 283.507812 61.097656 Z M 282.863281 62.296875 L 283.21875 62.089844 L 283.21875 61.832031 L 282.863281 62.039062 Z M 284.152344 60.980469 L 284.511719 60.773438 L 284.511719 60.515625 L 284.152344 60.722656 Z M 282.21875 62.101562 L 282.574219 61.894531 L 282.574219 61.644531 L 282.21875 61.851562 Z M 281.574219 63.042969 L 281.929688 62.839844 L 281.929688 62.582031 L 281.574219 62.789062 Z M 282.21875 62.671875 L 282.574219 62.464844 L 282.574219 62.207031 L 282.21875 62.414062 Z M 281.574219 62.472656 L 281.929688 62.265625 L 281.929688 62.019531 L 281.574219 62.226562 Z M 284.152344 61.550781 L 284.511719 61.34375 L 284.511719 61.085938 L 284.152344 61.292969 Z M 281.574219 63.625 L 281.929688 63.417969 L 281.929688 63.152344 L 281.574219 63.359375 Z M 284.152344 62.128906 L 284.511719 61.921875 L 284.511719 61.65625 L 284.152344 61.863281 Z M 283.507812 61.921875 L 283.863281 61.71875 L 283.863281 61.460938 L 283.507812 61.667969 Z M 282.863281 62.875 L 283.21875 62.667969 L 283.21875 62.40625 L 282.863281 62.609375 Z M 282.21875 63.25 L 282.574219 63.042969 L 282.574219 62.78125 L 282.21875 62.988281 Z M 283.507812 62.503906 L 283.863281 62.296875 L 283.863281 62.03125 L 283.507812 62.238281 Z M 284.796875 60.59375 L 285.15625 60.386719 L 285.15625 60.132812 L 284.796875 60.339844 Z M 284.796875 61.164062 L 285.15625 60.957031 L 285.15625 60.703125 L 284.796875 60.90625 Z M 284.796875 61.746094 L 285.15625 61.539062 L 285.15625 61.273438 L 284.796875 61.480469 Z M 280.320312 67.074219 C 280.667969 66.875 280.992188 66.398438 280.992188 65.953125 C 280.992188 65.515625 280.625 65.320312 280.300781 65.492188 C 279.816406 65.746094 279.613281 66.300781 279.613281 66.660156 C 279.617188 67.019531 279.972656 67.273438 280.320312 67.074219 Z M 283.21875 63.867188 L 282.863281 64.078125 L 282.863281 64.328125 L 283.21875 64.121094 Z M 283.863281 63.492188 L 283.507812 63.699219 L 283.507812 63.953125 L 283.863281 63.746094 Z M 283.21875 64.433594 L 282.863281 64.640625 L 282.863281 64.898438 L 283.21875 64.691406 Z M 284.511719 63.113281 L 284.152344 63.324219 L 284.152344 63.578125 L 284.511719 63.371094 Z M 282.574219 64.242188 L 282.21875 64.453125 L 282.21875 64.699219 L 282.574219 64.492188 Z M 281.929688 65.179688 L 281.574219 65.386719 L 281.574219 65.644531 L 281.929688 65.4375 Z M 282.574219 64.808594 L 282.21875 65.015625 L 282.21875 65.273438 L 282.574219 65.066406 Z M 281.929688 64.621094 L 281.574219 64.832031 L 281.574219 65.074219 L 281.929688 64.867188 Z M 284.511719 63.6875 L 284.152344 63.894531 L 284.152344 64.152344 L 284.511719 63.945312 Z M 281.929688 65.753906 L 281.574219 65.960938 L 281.574219 66.222656 L 281.929688 66.015625 Z M 284.511719 64.257812 L 284.152344 64.464844 L 284.152344 64.730469 L 284.511719 64.523438 Z M 283.863281 64.058594 L 283.507812 64.265625 L 283.507812 64.523438 L 283.863281 64.316406 Z M 283.21875 65.007812 L 282.863281 65.214844 L 282.863281 65.476562 L 283.21875 65.273438 Z M 282.574219 65.378906 L 282.21875 65.585938 L 282.21875 65.851562 L 282.574219 65.644531 Z M 283.863281 64.632812 L 283.507812 64.839844 L 283.507812 65.101562 L 283.863281 64.894531 Z M 285.15625 62.734375 L 284.796875 62.945312 L 284.796875 63.195312 L 285.15625 62.988281 Z M 285.15625 63.304688 L 284.796875 63.511719 L 284.796875 63.765625 L 285.15625 63.5625 Z M 285.15625 63.875 L 284.796875 64.078125 L 284.796875 64.34375 L 285.15625 64.136719 Z M 280.300781 54.90625 C 279.816406 55.160156 279.613281 55.714844 279.613281 56.074219 C 279.613281 56.433594 279.96875 56.6875 280.320312 56.488281 C 280.667969 56.289062 280.992188 55.8125 280.992188 55.367188 C 280.992188 54.933594 280.628906 54.734375 280.300781 54.90625 Z M 282.863281 53.742188 L 283.21875 53.535156 L 283.21875 53.28125 L 282.863281 53.492188 Z M 283.507812 53.367188 L 283.863281 53.160156 L 283.863281 52.90625 L 283.507812 53.117188 Z M 282.863281 54.3125 L 283.21875 54.105469 L 283.21875 53.847656 L 282.863281 54.054688 Z M 284.152344 52.992188 L 284.511719 52.785156 L 284.511719 52.527344 L 284.152344 52.738281 Z M 282.21875 54.117188 L 282.574219 53.910156 L 282.574219 53.660156 L 282.21875 53.867188 Z M 281.574219 55.0625 L 281.929688 54.855469 L 281.929688 54.597656 L 281.574219 54.804688 Z M 282.21875 54.6875 L 282.574219 54.480469 L 282.574219 54.222656 L 282.21875 54.429688 Z M 281.574219 54.488281 L 281.929688 54.28125 L 281.929688 54.035156 L 281.574219 54.246094 Z M 284.152344 53.5625 L 284.511719 53.359375 L 284.511719 53.101562 L 284.152344 53.308594 Z M 281.574219 55.640625 L 281.929688 55.433594 L 281.929688 55.167969 L 281.574219 55.375 Z M 284.152344 54.144531 L 284.511719 53.9375 L 284.511719 53.671875 L 284.152344 53.878906 Z M 283.507812 53.941406 L 283.863281 53.734375 L 283.863281 53.476562 L 283.507812 53.683594 Z M 282.863281 54.890625 L 283.21875 54.683594 L 283.21875 54.421875 L 282.863281 54.628906 Z M 282.21875 55.265625 L 282.574219 55.058594 L 282.574219 54.792969 L 282.21875 55 Z M 283.507812 54.515625 L 283.863281 54.308594 L 283.863281 54.046875 L 283.507812 54.253906 Z M 284.796875 52.609375 L 285.15625 52.402344 L 285.15625 52.148438 L 284.796875 52.359375 Z M 284.796875 53.179688 L 285.15625 52.976562 L 285.15625 52.71875 L 284.796875 52.925781 Z M 284.796875 53.761719 L 285.15625 53.554688 L 285.15625 53.289062 L 284.796875 53.496094 Z M 280.320312 59.089844 C 280.667969 58.890625 280.992188 58.417969 280.992188 57.96875 C 280.992188 57.53125 280.625 57.335938 280.300781 57.507812 C 279.816406 57.761719 279.613281 58.316406 279.613281 58.675781 C 279.617188 59.035156 279.972656 59.289062 280.320312 59.089844 Z M 283.21875 55.882812 L 282.863281 56.09375 L 282.863281 56.34375 L 283.21875 56.136719 Z M 283.863281 55.507812 L 283.507812 55.714844 L 283.507812 55.96875 L 283.863281 55.761719 Z M 283.21875 56.449219 L 282.863281 56.65625 L 282.863281 56.914062 L 283.21875 56.707031 Z M 284.511719 55.132812 L 284.152344 55.339844 L 284.152344 55.59375 L 284.511719 55.386719 Z M 282.574219 56.261719 L 282.21875 56.46875 L 282.21875 56.714844 L 282.574219 56.507812 Z M 281.929688 57.195312 L 281.574219 57.402344 L 281.574219 57.660156 L 281.929688 57.453125 Z M 282.574219 56.824219 L 282.21875 57.03125 L 282.21875 57.289062 L 282.574219 57.082031 Z M 281.929688 56.636719 L 281.574219 56.847656 L 281.574219 57.089844 L 281.929688 56.886719 Z M 284.511719 55.703125 L 284.152344 55.910156 L 284.152344 56.167969 L 284.511719 55.960938 Z M 281.929688 57.769531 L 281.574219 57.976562 L 281.574219 58.238281 L 281.929688 58.035156 Z M 284.511719 56.273438 L 284.152344 56.480469 L 284.152344 56.742188 L 284.511719 56.535156 Z M 283.863281 56.074219 L 283.507812 56.28125 L 283.507812 56.539062 L 283.863281 56.332031 Z M 283.21875 57.019531 L 282.863281 57.226562 L 282.863281 57.492188 L 283.21875 57.285156 Z M 282.574219 57.394531 L 282.21875 57.601562 L 282.21875 57.867188 L 282.574219 57.660156 Z M 283.863281 56.648438 L 283.507812 56.855469 L 283.507812 57.117188 L 283.863281 56.914062 Z M 285.15625 54.75 L 284.796875 54.957031 L 284.796875 55.210938 L 285.15625 55.003906 Z M 285.15625 55.316406 L 284.796875 55.523438 L 284.796875 55.78125 L 285.15625 55.574219 Z M 285.15625 55.890625 L 284.796875 56.097656 L 284.796875 56.359375 L 285.15625 56.152344 Z M 280.320312 48.503906 C 280.667969 48.304688 280.992188 47.832031 280.992188 47.382812 C 280.992188 46.945312 280.625 46.75 280.300781 46.921875 C 279.816406 47.175781 279.613281 47.730469 279.613281 48.089844 C 279.617188 48.449219 279.972656 48.703125 280.320312 48.503906 Z M 283.21875 45.296875 L 282.863281 45.507812 L 282.863281 45.757812 L 283.21875 45.550781 Z M 283.863281 44.921875 L 283.507812 45.132812 L 283.507812 45.382812 L 283.863281 45.175781 Z M 283.21875 45.867188 L 282.863281 46.070312 L 282.863281 46.328125 L 283.21875 46.121094 Z M 284.511719 44.546875 L 284.152344 44.753906 L 284.152344 45.007812 L 284.511719 44.800781 Z M 282.574219 45.675781 L 282.21875 45.886719 L 282.21875 46.132812 L 282.574219 45.925781 Z M 281.929688 46.613281 L 281.574219 46.820312 L 281.574219 47.078125 L 281.929688 46.871094 Z M 282.574219 46.238281 L 282.21875 46.445312 L 282.21875 46.703125 L 282.574219 46.496094 Z M 281.929688 46.050781 L 281.574219 46.261719 L 281.574219 46.503906 L 281.929688 46.296875 Z M 284.511719 45.117188 L 284.152344 45.324219 L 284.152344 45.582031 L 284.511719 45.375 Z M 281.929688 47.183594 L 281.574219 47.390625 L 281.574219 47.65625 L 281.929688 47.449219 Z M 284.511719 45.6875 L 284.152344 45.894531 L 284.152344 46.160156 L 284.511719 45.953125 Z M 283.863281 45.492188 L 283.507812 45.699219 L 283.507812 45.957031 L 283.863281 45.75 Z M 283.21875 46.4375 L 282.863281 46.644531 L 282.863281 46.910156 L 283.21875 46.703125 Z M 282.574219 46.808594 L 282.21875 47.015625 L 282.21875 47.28125 L 282.574219 47.074219 Z M 283.863281 46.0625 L 283.507812 46.269531 L 283.507812 46.53125 L 283.863281 46.328125 Z M 285.15625 44.164062 L 284.796875 44.375 L 284.796875 44.625 L 285.15625 44.417969 Z M 285.15625 44.734375 L 284.796875 44.941406 L 284.796875 45.199219 L 285.15625 44.992188 Z M 285.15625 45.304688 L 284.796875 45.511719 L 284.796875 45.777344 L 285.15625 45.570312 Z M 280.320312 51.105469 C 280.667969 50.90625 280.992188 50.433594 280.992188 49.984375 C 280.992188 49.546875 280.625 49.351562 280.300781 49.527344 C 279.816406 49.777344 279.613281 50.335938 279.613281 50.691406 C 279.617188 51.050781 279.972656 51.304688 280.320312 51.105469 Z M 283.21875 47.898438 L 282.863281 48.109375 L 282.863281 48.355469 L 283.21875 48.148438 Z M 283.863281 47.523438 L 283.507812 47.730469 L 283.507812 47.984375 L 283.863281 47.777344 Z M 283.21875 48.464844 L 282.863281 48.671875 L 282.863281 48.929688 L 283.21875 48.722656 Z M 284.511719 47.144531 L 284.152344 47.355469 L 284.152344 47.609375 L 284.511719 47.402344 Z M 282.574219 48.277344 L 282.21875 48.484375 L 282.21875 48.730469 L 282.574219 48.527344 Z M 281.929688 49.214844 L 281.574219 49.421875 L 281.574219 49.675781 L 281.929688 49.46875 Z M 282.574219 48.839844 L 282.21875 49.042969 L 282.21875 49.300781 L 282.574219 49.09375 Z M 281.929688 48.652344 L 281.574219 48.859375 L 281.574219 49.105469 L 281.929688 48.898438 Z M 284.511719 47.71875 L 284.152344 47.921875 L 284.152344 48.179688 L 284.511719 47.972656 Z M 281.929688 49.785156 L 281.574219 49.992188 L 281.574219 50.257812 L 281.929688 50.050781 Z M 284.511719 48.289062 L 284.152344 48.496094 L 284.152344 48.761719 L 284.511719 48.554688 Z M 283.863281 48.09375 L 283.507812 48.300781 L 283.507812 48.554688 L 283.863281 48.347656 Z M 283.21875 49.035156 L 282.863281 49.242188 L 282.863281 49.507812 L 283.21875 49.300781 Z M 282.574219 49.410156 L 282.21875 49.617188 L 282.21875 49.882812 L 282.574219 49.675781 Z M 283.863281 48.664062 L 283.507812 48.871094 L 283.507812 49.136719 L 283.863281 48.929688 Z M 285.15625 46.765625 L 284.796875 46.972656 L 284.796875 47.226562 L 285.15625 47.019531 Z M 285.15625 47.335938 L 284.796875 47.539062 L 284.796875 47.796875 L 285.15625 47.589844 Z M 285.15625 47.90625 L 284.796875 48.113281 L 284.796875 48.378906 L 285.15625 48.171875 Z M 280.320312 96.410156 C 280.667969 96.210938 280.992188 95.738281 280.992188 95.289062 C 280.992188 94.851562 280.625 94.65625 280.300781 94.832031 C 279.816406 95.082031 279.613281 95.640625 279.613281 95.996094 C 279.617188 96.359375 279.972656 96.609375 280.320312 96.410156 Z M 283.21875 93.207031 L 282.863281 93.414062 L 282.863281 93.664062 L 283.21875 93.457031 Z M 283.863281 92.828125 L 283.507812 93.035156 L 283.507812 93.289062 L 283.863281 93.082031 Z M 283.21875 93.773438 L 282.863281 93.980469 L 282.863281 94.234375 L 283.21875 94.03125 Z M 284.511719 92.453125 L 284.152344 92.660156 L 284.152344 92.917969 L 284.511719 92.710938 Z M 282.574219 93.582031 L 282.21875 93.789062 L 282.21875 94.039062 L 282.574219 93.832031 Z M 281.929688 94.519531 L 281.574219 94.726562 L 281.574219 94.980469 L 281.929688 94.777344 Z M 282.574219 94.144531 L 282.21875 94.351562 L 282.21875 94.609375 L 282.574219 94.402344 Z M 281.929688 93.960938 L 281.574219 94.167969 L 281.574219 94.414062 L 281.929688 94.207031 Z M 284.511719 93.023438 L 284.152344 93.230469 L 284.152344 93.488281 L 284.511719 93.28125 Z M 281.929688 95.089844 L 281.574219 95.296875 L 281.574219 95.5625 L 281.929688 95.355469 Z M 284.511719 93.597656 L 284.152344 93.804688 L 284.152344 94.066406 L 284.511719 93.859375 Z M 283.863281 93.398438 L 283.507812 93.605469 L 283.507812 93.859375 L 283.863281 93.65625 Z M 283.21875 94.34375 L 282.863281 94.546875 L 282.863281 94.8125 L 283.21875 94.605469 Z M 282.574219 94.71875 L 282.21875 94.925781 L 282.21875 95.1875 L 282.574219 94.980469 Z M 283.863281 93.96875 L 283.507812 94.175781 L 283.507812 94.441406 L 283.863281 94.234375 Z M 285.15625 92.070312 L 284.796875 92.28125 L 284.796875 92.535156 L 285.15625 92.328125 Z M 285.15625 92.640625 L 284.796875 92.847656 L 284.796875 93.105469 L 285.15625 92.898438 Z M 285.15625 93.210938 L 284.796875 93.417969 L 284.796875 93.683594 L 285.15625 93.476562 Z M 280.320312 99.011719 C 280.667969 98.8125 280.992188 98.335938 280.992188 97.890625 C 280.992188 97.453125 280.625 97.257812 280.300781 97.429688 C 279.816406 97.683594 279.613281 98.238281 279.613281 98.597656 C 279.617188 98.957031 279.972656 99.210938 280.320312 99.011719 Z M 283.21875 95.804688 L 282.863281 96.015625 L 282.863281 96.265625 L 283.21875 96.058594 Z M 283.863281 95.429688 L 283.507812 95.636719 L 283.507812 95.890625 L 283.863281 95.683594 Z M 283.21875 96.371094 L 282.863281 96.578125 L 282.863281 96.835938 L 283.21875 96.628906 Z M 284.511719 95.050781 L 284.152344 95.261719 L 284.152344 95.515625 L 284.511719 95.308594 Z M 282.574219 96.179688 L 282.21875 96.390625 L 282.21875 96.636719 L 282.574219 96.429688 Z M 281.929688 97.121094 L 281.574219 97.328125 L 281.574219 97.585938 L 281.929688 97.378906 Z M 282.574219 96.746094 L 282.21875 96.953125 L 282.21875 97.210938 L 282.574219 97.003906 Z M 281.929688 96.558594 L 281.574219 96.769531 L 281.574219 97.011719 L 281.929688 96.804688 Z M 284.511719 95.625 L 284.152344 95.832031 L 284.152344 96.089844 L 284.511719 95.882812 Z M 281.929688 97.691406 L 281.574219 97.898438 L 281.574219 98.160156 L 281.929688 97.953125 Z M 284.511719 96.195312 L 284.152344 96.402344 L 284.152344 96.667969 L 284.511719 96.460938 Z M 283.863281 95.996094 L 283.507812 96.203125 L 283.507812 96.460938 L 283.863281 96.253906 Z M 283.21875 96.945312 L 282.863281 97.152344 L 282.863281 97.414062 L 283.21875 97.210938 Z M 282.574219 97.316406 L 282.21875 97.523438 L 282.21875 97.789062 L 282.574219 97.582031 Z M 283.863281 96.570312 L 283.507812 96.777344 L 283.507812 97.039062 L 283.863281 96.832031 Z M 285.15625 94.671875 L 284.796875 94.882812 L 284.796875 95.132812 L 285.15625 94.925781 Z M 285.15625 95.242188 L 284.796875 95.449219 L 284.796875 95.703125 L 285.15625 95.5 Z M 285.15625 95.8125 L 284.796875 96.019531 L 284.796875 96.285156 L 285.15625 96.078125 Z M 293.898438 118.261719 L 296.773438 116.59375 L 296.765625 113.046875 L 260.261719 134.296875 L 260.261719 137.730469 L 263.140625 136.0625 C 263.140625 135.054688 263.675781 134.121094 264.546875 133.617188 L 292.488281 117.449219 C 293.113281 117.085938 293.894531 117.539062 293.898438 118.261719 Z M 293.898438 118.261719 "/><path style=" stroke:none;fill-rule:nonzero;fill:#9fcdff;fill-opacity:1;" d="M 277.660156 105.277344 C 277.660156 105.566406 277.503906 105.835938 277.253906 105.980469 L 263.175781 114.109375 L 263.175781 112.917969 L 277.015625 104.902344 C 277.304688 104.738281 277.660156 104.945312 277.660156 105.277344 Z M 277.015625 107.503906 L 263.179688 115.523438 L 263.179688 116.710938 L 277.253906 108.582031 C 277.503906 108.433594 277.660156 108.164062 277.660156 107.875 C 277.660156 107.542969 277.304688 107.335938 277.015625 107.503906 Z M 277.015625 72.964844 L 263.179688 80.984375 L 263.179688 82.171875 L 277.253906 74.042969 C 277.503906 73.898438 277.660156 73.628906 277.660156 73.339844 C 277.660156 73.007812 277.304688 72.800781 277.015625 72.964844 Z M 277.015625 75.566406 L 263.179688 83.585938 L 263.179688 84.773438 L 277.253906 76.644531 C 277.503906 76.496094 277.660156 76.226562 277.660156 75.9375 C 277.660156 75.605469 277.304688 75.398438 277.015625 75.566406 Z M 277.015625 64.980469 L 263.179688 73 L 263.179688 74.1875 L 277.253906 66.058594 C 277.503906 65.914062 277.660156 65.644531 277.660156 65.355469 C 277.660156 65.023438 277.304688 64.8125 277.015625 64.980469 Z M 277.015625 67.578125 L 263.179688 75.597656 L 263.179688 76.789062 L 277.253906 68.660156 C 277.503906 68.515625 277.660156 68.246094 277.660156 67.953125 C 277.660156 67.621094 277.304688 67.414062 277.015625 67.578125 Z M 277.015625 56.996094 L 263.179688 65.015625 L 263.179688 66.203125 L 277.253906 58.074219 C 277.503906 57.929688 277.660156 57.660156 277.660156 57.367188 C 277.660156 57.035156 277.304688 56.828125 277.015625 56.996094 Z M 277.015625 59.59375 L 263.179688 67.613281 L 263.179688 68.804688 L 277.253906 60.675781 C 277.503906 60.53125 277.660156 60.261719 277.660156 59.972656 C 277.660156 59.636719 277.304688 59.429688 277.015625 59.59375 Z M 277.660156 49.382812 C 277.660156 49.050781 277.300781 48.84375 277.015625 49.011719 L 263.175781 57.03125 L 263.175781 58.21875 L 277.253906 50.089844 C 277.507812 49.945312 277.660156 49.675781 277.660156 49.382812 Z M 277.015625 51.613281 L 263.179688 59.628906 L 263.179688 60.820312 L 277.253906 52.691406 C 277.503906 52.542969 277.660156 52.273438 277.660156 51.984375 C 277.660156 51.652344 277.304688 51.445312 277.015625 51.613281 Z M 277.015625 80.839844 L 264.433594 88.128906 L 265.339844 88.886719 L 265.273438 88.835938 L 277.253906 81.917969 C 277.503906 81.773438 277.660156 81.503906 277.660156 81.214844 C 277.660156 80.882812 277.304688 80.671875 277.015625 80.839844 Z M 277.015625 83.550781 L 265.339844 90.316406 L 265.339844 91.507812 L 277.253906 84.628906 C 277.503906 84.480469 277.660156 84.210938 277.660156 83.921875 C 277.660156 83.589844 277.304688 83.382812 277.015625 83.550781 Z M 277.015625 88.933594 L 265.339844 95.699219 L 265.339844 96.890625 L 277.253906 90.015625 C 277.503906 89.867188 277.660156 89.597656 277.660156 89.308594 C 277.660156 88.976562 277.304688 88.765625 277.015625 88.933594 Z M 277.015625 91.53125 L 265.339844 98.300781 L 265.339844 99.492188 L 277.253906 92.613281 C 277.503906 92.46875 277.660156 92.199219 277.660156 91.910156 C 277.660156 91.574219 277.304688 91.367188 277.015625 91.53125 Z M 263.945312 99.105469 L 263.175781 99.550781 L 263.175781 100.742188 L 263.945312 100.296875 Z M 263.945312 96.507812 L 263.175781 96.953125 L 263.175781 98.140625 L 263.945312 97.695312 Z M 263.945312 91.121094 L 263.175781 91.566406 L 263.175781 92.757812 L 263.945312 92.3125 Z M 263.28125 88.792969 L 263.175781 88.859375 L 263.175781 90.046875 L 263.945312 89.601562 Z M 277.015625 96.917969 L 263.179688 104.9375 L 263.179688 106.125 L 277.253906 97.996094 C 277.503906 97.851562 277.660156 97.582031 277.660156 97.292969 C 277.660156 96.960938 277.304688 96.75 277.015625 96.917969 Z M 277.015625 99.515625 L 263.179688 107.535156 L 263.179688 108.726562 L 277.253906 100.597656 C 277.503906 100.453125 277.660156 100.183594 277.660156 99.890625 C 277.660156 99.558594 277.304688 99.351562 277.015625 99.515625 Z M 277.015625 99.515625 "/><g clip-rule="nonzero" clip-path="url(#ccc6e1bcd1)"><path style=" stroke:none;fill-rule:nonzero;fill:#f0f7fe;fill-opacity:1;" d="M 223.785156 33.484375 L 260.269531 54.617188 L 260.261719 134.292969 L 223.785156 112.941406 Z M 263.015625 83.984375 L 260.285156 84.65625 L 260.285156 86.175781 L 263.945312 89.375 L 263.945312 100.0625 L 260.285156 102.183594 L 260.285156 103.730469 L 265.339844 102.949219 L 266.980469 101.007812 L 268.214844 87.246094 Z M 263.015625 83.984375 "/></g><g clip-rule="nonzero" clip-path="url(#214d0a4c4f)"><path style=" stroke:none;fill-rule:nonzero;fill:#5284ff;fill-opacity:1;" d="M 268.214844 87.246094 C 268.214844 87.246094 268.214844 101.105469 268.214844 101.28125 C 268.214844 101.460938 265.339844 102.949219 265.339844 102.949219 C 265.339844 102.949219 265.339844 89.011719 265.339844 88.890625 Z M 260.261719 134.292969 L 223.785156 113.152344 L 223.785156 116.585938 L 226.660156 118.253906 C 226.660156 117.53125 227.441406 117.078125 228.066406 117.441406 L 255.980469 133.617188 C 256.851562 134.121094 257.386719 135.050781 257.386719 136.058594 L 260.261719 137.726562 Z M 260.261719 134.292969 "/></g><g clip-rule="nonzero" clip-path="url(#ffeb6033da)"><path style=" stroke:none;fill-rule:nonzero;fill:#9fcdff;fill-opacity:1;" d="M 260.292969 12.347656 L 296.765625 33.492188 L 260.265625 54.617188 L 223.785156 33.484375 Z M 260.285156 84.65625 L 265.339844 88.886719 C 265.339844 88.886719 268.292969 87.3125 268.214844 87.246094 C 268.136719 87.179688 263.164062 82.988281 263.164062 82.988281 Z M 260.285156 84.65625 "/></g><g clip-rule="nonzero" clip-path="url(#be848e9210)"><path style=" stroke:none;fill-rule:nonzero;fill:#1c0140;fill-opacity:1;" d="M 232.382812 52.414062 L 233.429688 53.019531 L 233.429688 54.90625 L 232.382812 54.300781 Z M 232.382812 51.632812 L 233.429688 52.238281 L 233.429688 50.351562 L 232.382812 49.746094 Z M 232.382812 59.503906 L 233.429688 60.105469 L 233.429688 58.21875 L 232.382812 57.617188 Z M 232.382812 56.964844 L 233.429688 57.570312 L 233.429688 55.683594 L 232.382812 55.078125 Z M 232.382812 48.96875 L 233.429688 49.574219 L 233.429688 47.6875 L 232.382812 47.082031 Z M 234.289062 113.207031 L 235.335938 113.8125 L 235.335938 111.925781 L 234.289062 111.320312 Z M 232.382812 46.304688 L 233.429688 46.910156 L 233.429688 45.007812 L 232.382812 44.402344 Z M 232.382812 104.105469 L 233.429688 104.710938 L 233.429688 102.820312 L 232.382812 102.21875 Z M 232.382812 101.4375 L 233.429688 102.042969 L 233.429688 100.15625 L 232.382812 99.550781 Z M 234.289062 110.410156 L 235.335938 111.015625 L 235.335938 109.128906 L 234.289062 108.523438 Z M 232.382812 106.769531 L 233.429688 107.375 L 233.429688 105.488281 L 232.382812 104.882812 Z M 232.382812 96.109375 L 233.429688 96.710938 L 233.429688 94.8125 L 232.382812 94.207031 Z M 232.382812 98.773438 L 233.429688 99.378906 L 233.429688 97.492188 L 232.382812 96.886719 Z M 232.382812 109.308594 L 233.429688 109.910156 L 233.429688 108.023438 L 232.382812 107.417969 Z M 232.382812 62.296875 L 233.429688 62.902344 L 233.429688 61.015625 L 232.382812 60.410156 Z M 234.289062 47.40625 L 235.335938 48.011719 L 235.335938 46.113281 L 234.289062 45.507812 Z M 234.289062 52.738281 L 235.335938 53.34375 L 235.335938 51.457031 L 234.289062 50.851562 Z M 234.289062 55.402344 L 235.335938 56.007812 L 235.335938 54.121094 L 234.289062 53.515625 Z M 234.289062 107.875 L 235.335938 108.480469 L 235.335938 106.59375 L 234.289062 105.988281 Z M 236.195312 114.308594 L 237.238281 114.914062 L 237.238281 113.027344 L 236.195312 112.421875 Z M 236.195312 108.980469 L 237.238281 109.585938 L 237.238281 107.695312 L 236.195312 107.09375 Z M 236.195312 111.515625 L 237.238281 112.121094 L 237.238281 110.234375 L 236.195312 109.628906 Z M 234.289062 58.070312 L 235.335938 58.671875 L 235.335938 56.785156 L 234.289062 56.183594 Z M 234.289062 99.878906 L 235.335938 100.480469 L 235.335938 98.59375 L 234.289062 97.988281 Z M 234.289062 60.605469 L 235.335938 61.210938 L 235.335938 59.324219 L 234.289062 58.71875 Z M 234.289062 105.210938 L 235.335938 105.816406 L 235.335938 103.929688 L 234.289062 103.324219 Z M 234.289062 102.546875 L 235.335938 103.148438 L 235.335938 101.261719 L 234.289062 100.65625 Z M 234.289062 63.402344 L 235.335938 64.007812 L 235.335938 62.121094 L 234.289062 61.515625 Z M 234.289062 97.210938 L 235.335938 97.816406 L 235.335938 95.917969 L 234.289062 95.3125 Z M 234.289062 50.074219 L 235.335938 50.675781 L 235.335938 48.789062 L 234.289062 48.183594 Z M 228.574219 57.296875 L 229.617188 57.898438 L 229.617188 56.011719 L 228.574219 55.410156 Z M 228.574219 60.089844 L 229.617188 60.695312 L 229.617188 58.808594 L 228.574219 58.203125 Z M 228.574219 44.09375 L 229.617188 44.699219 L 229.617188 42.800781 L 228.574219 42.195312 Z M 228.574219 49.425781 L 229.617188 50.03125 L 229.617188 48.144531 L 228.574219 47.539062 Z M 228.574219 46.761719 L 229.617188 47.367188 L 229.617188 45.480469 L 228.574219 44.875 Z M 228.574219 93.902344 L 229.617188 94.503906 L 229.617188 92.605469 L 228.574219 92 Z M 228.574219 52.09375 L 229.617188 52.699219 L 229.617188 50.8125 L 228.574219 50.207031 Z M 228.574219 54.757812 L 229.617188 55.363281 L 229.617188 53.476562 L 228.574219 52.871094 Z M 228.574219 107.101562 L 229.617188 107.703125 L 229.617188 105.816406 L 228.574219 105.214844 Z M 228.574219 109.894531 L 229.617188 110.5 L 229.617188 108.613281 L 228.574219 108.007812 Z M 236.195312 106.3125 L 237.238281 106.917969 L 237.238281 105.03125 L 236.195312 104.425781 Z M 228.574219 96.566406 L 229.617188 97.171875 L 229.617188 95.285156 L 228.574219 94.679688 Z M 228.574219 99.230469 L 229.617188 99.835938 L 229.617188 97.949219 L 228.574219 97.34375 Z M 228.574219 101.898438 L 229.617188 102.503906 L 229.617188 100.613281 L 228.574219 100.011719 Z M 228.574219 104.5625 L 229.617188 105.167969 L 229.617188 103.28125 L 228.574219 102.675781 Z M 230.480469 45.199219 L 231.523438 45.804688 L 231.523438 43.90625 L 230.480469 43.300781 Z M 230.480469 55.863281 L 231.523438 56.464844 L 231.523438 54.578125 L 230.480469 53.976562 Z M 230.480469 58.398438 L 231.523438 59.003906 L 231.523438 57.117188 L 230.480469 56.511719 Z M 230.480469 53.195312 L 231.523438 53.800781 L 231.523438 51.914062 L 230.480469 51.308594 Z M 230.480469 61.191406 L 231.523438 61.796875 L 231.523438 59.910156 L 230.480469 59.304688 Z M 230.480469 111 L 231.523438 111.605469 L 231.523438 109.71875 L 230.480469 109.113281 Z M 230.480469 50.53125 L 231.523438 51.136719 L 231.523438 49.25 L 230.480469 48.644531 Z M 230.480469 47.867188 L 231.523438 48.46875 L 231.523438 46.582031 L 230.480469 45.980469 Z M 232.382812 112.101562 L 233.429688 112.707031 L 233.429688 110.820312 L 232.382812 110.214844 Z M 230.480469 103 L 231.523438 103.605469 L 231.523438 101.71875 L 230.480469 101.113281 Z M 230.480469 105.667969 L 231.523438 106.269531 L 231.523438 104.382812 L 230.480469 103.78125 Z M 230.480469 95.003906 L 231.523438 95.609375 L 231.523438 93.710938 L 230.480469 93.105469 Z M 230.480469 108.203125 L 231.523438 108.808594 L 231.523438 106.921875 L 230.480469 106.316406 Z M 230.480469 100.335938 L 231.523438 100.941406 L 231.523438 99.054688 L 230.480469 98.449219 Z M 230.480469 97.671875 L 231.523438 98.273438 L 231.523438 96.386719 L 230.480469 95.78125 Z M 240.003906 61.382812 L 241.050781 61.988281 L 241.050781 60.097656 L 240.003906 59.496094 Z M 241.910156 67.820312 L 242.957031 68.421875 L 242.957031 66.535156 L 241.910156 65.933594 Z M 241.910156 101.628906 L 242.957031 102.234375 L 242.957031 100.332031 L 241.910156 99.726562 Z M 241.910156 104.292969 L 242.957031 104.898438 L 242.957031 103.011719 L 241.910156 102.40625 Z M 241.910156 106.960938 L 242.957031 107.566406 L 242.957031 105.679688 L 241.910156 105.074219 Z M 241.910156 65.023438 L 242.957031 65.625 L 242.957031 63.738281 L 241.910156 63.136719 Z M 241.910156 62.484375 L 242.957031 63.089844 L 242.957031 61.203125 L 241.910156 60.597656 Z M 241.910156 57.15625 L 242.957031 57.757812 L 242.957031 55.871094 L 241.910156 55.265625 Z M 241.910156 59.820312 L 242.957031 60.425781 L 242.957031 58.539062 L 241.910156 57.933594 Z M 240.003906 53.386719 L 241.050781 53.988281 L 241.050781 52.101562 L 240.003906 51.5 Z M 241.910156 109.625 L 242.957031 110.230469 L 242.957031 108.34375 L 241.910156 107.738281 Z M 241.910156 54.488281 L 242.957031 55.09375 L 242.957031 53.207031 L 241.910156 52.601562 Z M 240.003906 56.050781 L 241.050781 56.65625 L 241.050781 54.769531 L 240.003906 54.164062 Z M 240.003906 50.71875 L 241.050781 51.324219 L 241.050781 49.425781 L 240.003906 48.820312 Z M 241.910156 112.292969 L 242.957031 112.898438 L 242.957031 111.011719 L 241.910156 110.40625 Z M 241.910156 114.828125 L 242.957031 115.433594 L 242.957031 113.546875 L 241.910156 112.941406 Z M 241.910156 117.625 L 242.957031 118.226562 L 242.957031 116.339844 L 241.910156 115.734375 Z M 243.816406 58.261719 L 244.859375 58.863281 L 244.859375 56.976562 L 243.816406 56.375 Z M 236.195312 103.648438 L 237.238281 104.253906 L 237.238281 102.367188 L 236.195312 101.761719 Z M 243.816406 60.925781 L 244.859375 61.53125 L 244.859375 59.644531 L 243.816406 59.039062 Z M 243.816406 63.589844 L 244.859375 64.195312 L 244.859375 62.308594 L 243.816406 61.703125 Z M 243.816406 66.128906 L 244.859375 66.734375 L 244.859375 64.847656 L 243.816406 64.242188 Z M 240.003906 58.714844 L 241.050781 59.320312 L 241.050781 57.433594 L 240.003906 56.828125 Z M 297.023438 116.738281 L 293.648438 118.695312 L 293.648438 118.261719 C 293.648438 118.261719 293.644531 117.550781 293.640625 117.070312 L 264.671875 133.832031 C 263.878906 134.289062 263.390625 135.140625 263.390625 136.058594 L 263.390625 136.203125 L 260.261719 138.015625 L 257.136719 136.203125 L 257.136719 136.058594 C 257.136719 135.144531 256.644531 134.289062 255.855469 133.832031 L 227.941406 117.660156 C 227.726562 117.53125 227.46875 117.53125 227.253906 117.660156 C 227.039062 117.78125 226.910156 118.007812 226.910156 118.253906 L 226.910156 118.6875 L 223.535156 116.734375 L 223.535156 33.335938 L 260.292969 12.058594 L 260.417969 12.132812 L 297.015625 33.347656 Z M 296.515625 33.925781 L 260.542969 54.75 L 260.539062 84.21875 L 263.191406 82.683594 L 268.46875 87.128906 L 268.46875 101.425781 L 265.425781 103.191406 L 260.539062 103.941406 L 260.535156 133.839844 L 296.515625 112.824219 L 296.519531 112.832031 Z M 267.78125 87.207031 L 263.136719 83.292969 L 260.722656 84.691406 L 265.367188 88.582031 Z M 265.589844 89.035156 L 265.589844 102.515625 L 267.96875 101.136719 L 267.96875 87.675781 Z M 260.539062 85.195312 L 260.539062 86.066406 L 264.195312 89.261719 L 264.195312 101.753906 L 260.539062 102.394531 L 260.539062 103.433594 L 265.089844 102.734375 L 265.089844 89.007812 Z M 260.539062 86.730469 L 260.539062 101.75 L 263.699219 99.917969 L 263.699219 89.488281 Z M 224.285156 33.484375 L 257.398438 52.664062 C 259.632812 51.371094 289.671875 33.980469 293.394531 31.828125 L 260.292969 12.636719 Z M 224.03125 113.011719 L 257.050781 132.140625 L 257.140625 53.097656 L 224.03125 33.917969 Z M 260.039062 134.453125 L 224.03125 113.589844 L 224.03125 116.445312 L 226.476562 117.859375 C 226.566406 117.59375 226.75 117.371094 227.003906 117.226562 C 227.375 117.011719 227.820312 117.011719 228.191406 117.226562 L 256.105469 133.398438 C 257.003906 133.921875 257.578125 134.875 257.628906 135.914062 L 260.035156 137.308594 Z M 260.042969 54.777344 L 257.640625 53.386719 L 257.550781 132.433594 L 260.039062 133.871094 L 260.039062 84.507812 Z M 260.269531 54.328125 L 296.269531 33.492188 L 293.894531 32.113281 C 291.703125 33.382812 261.625 50.796875 257.894531 52.953125 Z M 296.523438 116.449219 L 296.523438 113.402344 L 260.535156 134.421875 L 260.535156 137.277344 L 262.894531 135.914062 C 262.945312 134.875 263.519531 133.921875 264.421875 133.398438 L 294.140625 116.203125 L 294.140625 116.636719 C 294.140625 116.707031 294.140625 117.371094 294.144531 117.828125 Z M 243.816406 55.59375 L 244.859375 56.199219 L 244.859375 54.3125 L 243.816406 53.707031 Z M 241.910156 51.824219 L 242.957031 52.429688 L 242.957031 50.527344 L 241.910156 49.925781 Z M 243.816406 52.925781 L 244.859375 53.53125 L 244.859375 51.632812 L 243.816406 51.027344 Z M 243.816406 115.933594 L 244.859375 116.539062 L 244.859375 114.648438 L 243.816406 114.046875 Z M 243.816406 102.734375 L 244.859375 103.339844 L 244.859375 101.4375 L 243.816406 100.835938 Z M 243.816406 118.726562 L 244.859375 119.332031 L 244.859375 117.445312 L 243.816406 116.839844 Z M 243.816406 113.394531 L 244.859375 114 L 244.859375 112.113281 L 243.816406 111.507812 Z M 243.816406 110.730469 L 244.859375 111.335938 L 244.859375 109.449219 L 243.816406 108.84375 Z M 243.816406 105.398438 L 244.859375 106.003906 L 244.859375 104.117188 L 243.816406 103.511719 Z M 243.816406 108.066406 L 244.859375 108.667969 L 244.859375 106.78125 L 243.816406 106.179688 Z M 243.816406 68.921875 L 244.859375 69.527344 L 244.859375 67.640625 L 243.816406 67.035156 Z M 238.101562 112.621094 L 239.144531 113.222656 L 239.144531 111.335938 L 238.101562 110.734375 Z M 238.101562 115.417969 L 239.144531 116.019531 L 239.144531 114.132812 L 238.101562 113.527344 Z M 236.195312 48.511719 L 237.238281 49.113281 L 237.238281 47.214844 L 236.195312 46.609375 Z M 238.101562 110.082031 L 239.144531 110.6875 L 239.144531 108.800781 L 238.101562 108.195312 Z M 238.101562 107.417969 L 239.144531 108.023438 L 239.144531 106.136719 L 238.101562 105.53125 Z M 240.003906 63.917969 L 241.050781 64.523438 L 241.050781 62.636719 L 240.003906 62.03125 Z M 238.101562 104.75 L 239.144531 105.355469 L 239.144531 103.46875 L 238.101562 102.863281 Z M 236.195312 51.179688 L 237.238281 51.78125 L 237.238281 49.894531 L 236.195312 49.292969 Z M 236.195312 100.984375 L 237.238281 101.585938 L 237.238281 99.699219 L 236.195312 99.097656 Z M 236.195312 98.316406 L 237.238281 98.921875 L 237.238281 97.023438 L 236.195312 96.417969 Z M 238.101562 99.421875 L 239.144531 100.027344 L 239.144531 98.125 L 238.101562 97.519531 Z M 236.195312 64.503906 L 237.238281 65.109375 L 237.238281 63.222656 L 236.195312 62.617188 Z M 236.195312 61.710938 L 237.238281 62.316406 L 237.238281 60.429688 L 236.195312 59.824219 Z M 236.195312 53.84375 L 237.238281 54.449219 L 237.238281 52.5625 L 236.195312 51.957031 Z M 236.195312 56.507812 L 237.238281 57.113281 L 237.238281 55.226562 L 236.195312 54.621094 Z M 236.195312 59.175781 L 237.238281 59.78125 L 237.238281 57.890625 L 236.195312 57.289062 Z M 238.101562 102.085938 L 239.144531 102.691406 L 239.144531 100.804688 L 238.101562 100.199219 Z M 240.003906 108.519531 L 241.050781 109.125 L 241.050781 107.238281 L 240.003906 106.632812 Z M 240.003906 111.1875 L 241.050781 111.789062 L 241.050781 109.902344 L 240.003906 109.300781 Z M 238.101562 65.609375 L 239.144531 66.214844 L 239.144531 64.328125 L 238.101562 63.722656 Z M 240.003906 100.523438 L 241.050781 101.128906 L 241.050781 99.230469 L 240.003906 98.625 Z M 240.003906 66.714844 L 241.050781 67.320312 L 241.050781 65.433594 L 240.003906 64.828125 Z M 240.003906 113.722656 L 241.050781 114.328125 L 241.050781 112.441406 L 240.003906 111.835938 Z M 240.003906 103.191406 L 241.050781 103.792969 L 241.050781 101.90625 L 240.003906 101.304688 Z M 240.003906 105.855469 L 241.050781 106.460938 L 241.050781 104.574219 L 240.003906 103.96875 Z M 238.101562 60.277344 L 239.144531 60.882812 L 239.144531 58.996094 L 238.101562 58.390625 Z M 238.101562 57.613281 L 239.144531 58.21875 L 239.144531 56.332031 L 238.101562 55.726562 Z M 238.101562 62.816406 L 239.144531 63.417969 L 239.144531 61.53125 L 238.101562 60.929688 Z M 240.003906 116.519531 L 241.050781 117.125 L 241.050781 115.238281 L 240.003906 114.632812 Z M 238.101562 49.617188 L 239.144531 50.222656 L 239.144531 48.320312 L 238.101562 47.71875 Z M 238.101562 52.28125 L 239.144531 52.886719 L 239.144531 51 L 238.101562 50.394531 Z M 238.101562 54.949219 L 239.144531 55.550781 L 239.144531 53.664062 L 238.101562 53.058594 Z M 238.101562 54.949219 "/></g></g></svg>