<svg xmlns="http://www.w3.org/2000/svg" xmlns:xlink="http://www.w3.org/1999/xlink" width="1080" zoomAndPan="magnify" viewBox="0 0 810 809.999993" height="1080" preserveAspectRatio="xMidYMid meet" version="1.2"><defs><clipPath id="10e3d7320b"><path d="M 223 113.527344 L 616 113.527344 L 616 696.277344 L 223 696.277344 Z M 223 113.527344 "/></clipPath></defs><g id="be1dc6b9d7"><rect x="0" width="810" y="0" height="809.999993" style="fill:#ffffff;fill-opacity:1;stroke:none;"/><rect x="0" width="810" y="0" height="809.999993" style="fill:#ffffff;fill-opacity:1;stroke:none;"/><path style=" stroke:none;fill-rule:nonzero;fill:#1800ad;fill-opacity:1;" d="M 114.894531 181.839844 L 205.523438 652.199219 L 205.523438 555.921875 L 132.65625 178.652344 C 132.554688 178.074219 132.511719 177.496094 132.523438 176.910156 C 132.535156 176.324219 132.601562 175.746094 132.722656 175.175781 C 132.847656 174.605469 133.023438 174.050781 133.253906 173.511719 C 133.484375 172.972656 133.761719 172.464844 134.089844 171.980469 C 134.417969 171.496094 134.789062 171.046875 135.203125 170.632812 C 135.621094 170.222656 136.070312 169.851562 136.554688 169.527344 C 137.042969 169.203125 137.554688 168.925781 138.09375 168.699219 C 138.632812 168.472656 139.1875 168.296875 139.757812 168.175781 L 205.523438 155.5625 L 205.523438 140.851562 C 205.523438 139.53125 205.523438 138.257812 205.523438 136.980469 L 136.34375 149.960938 C 135.472656 150.136719 134.613281 150.351562 133.761719 150.613281 C 132.914062 150.871094 132.078125 151.171875 131.257812 151.511719 C 130.4375 151.855469 129.636719 152.234375 128.851562 152.652344 C 128.066406 153.070312 127.308594 153.527344 126.566406 154.019531 C 125.828125 154.515625 125.117188 155.042969 124.429688 155.605469 C 123.742188 156.167969 123.082031 156.761719 122.453125 157.390625 C 121.824219 158.019531 121.226562 158.675781 120.660156 159.359375 C 120.097656 160.042969 119.566406 160.757812 119.070312 161.492188 C 118.574219 162.230469 118.113281 162.988281 117.691406 163.773438 C 117.269531 164.554688 116.886719 165.355469 116.542969 166.171875 C 116.199219 166.992188 115.898438 167.828125 115.632812 168.675781 C 115.371094 169.523438 115.152344 170.382812 114.972656 171.253906 C 114.792969 172.125 114.660156 173 114.566406 173.886719 C 114.472656 174.769531 114.421875 175.65625 114.414062 176.542969 C 114.410156 177.429688 114.445312 178.316406 114.527344 179.203125 C 114.605469 180.089844 114.726562 180.96875 114.894531 181.839844 Z M 114.894531 181.839844 "/><path style=" stroke:none;fill-rule:nonzero;fill:#1800ad;fill-opacity:1;" d="M 547.085938 332.128906 C 547.085938 331.53125 547.027344 330.9375 546.910156 330.351562 C 546.796875 329.765625 546.621094 329.195312 546.394531 328.644531 C 546.164062 328.089844 545.882812 327.566406 545.550781 327.066406 C 545.21875 326.570312 544.84375 326.109375 544.417969 325.6875 C 543.996094 325.265625 543.535156 324.886719 543.039062 324.554688 C 542.542969 324.222656 542.015625 323.941406 541.464844 323.714844 C 540.910156 323.484375 540.34375 323.3125 539.753906 323.195312 C 539.167969 323.078125 538.578125 323.019531 537.980469 323.019531 L 292.050781 323.019531 C 291.453125 323.019531 290.863281 323.078125 290.273438 323.195312 C 289.6875 323.3125 289.117188 323.484375 288.566406 323.714844 C 288.015625 323.941406 287.488281 324.222656 286.992188 324.554688 C 286.496094 324.886719 286.035156 325.265625 285.609375 325.6875 C 285.1875 326.109375 284.8125 326.570312 284.480469 327.066406 C 284.144531 327.566406 283.867188 328.089844 283.636719 328.644531 C 283.40625 329.195312 283.234375 329.765625 283.117188 330.351562 C 283 330.9375 282.945312 331.53125 282.945312 332.128906 C 282.945312 332.726562 283 333.320312 283.117188 333.90625 C 283.234375 334.492188 283.40625 335.0625 283.636719 335.613281 C 283.867188 336.167969 284.144531 336.691406 284.480469 337.1875 C 284.8125 337.6875 285.1875 338.144531 285.609375 338.570312 C 286.035156 338.992188 286.496094 339.371094 286.992188 339.703125 C 287.488281 340.035156 288.015625 340.316406 288.566406 340.542969 C 289.117188 340.773438 289.6875 340.945312 290.273438 341.0625 C 290.863281 341.179688 291.453125 341.238281 292.050781 341.238281 L 537.980469 341.238281 C 538.578125 341.238281 539.167969 341.179688 539.753906 341.0625 C 540.34375 340.945312 540.910156 340.773438 541.464844 340.542969 C 542.015625 340.316406 542.542969 340.035156 543.039062 339.703125 C 543.535156 339.371094 543.996094 338.992188 544.417969 338.570312 C 544.84375 338.144531 545.21875 337.6875 545.550781 337.1875 C 545.882812 336.691406 546.164062 336.167969 546.394531 335.613281 C 546.621094 335.0625 546.796875 334.492188 546.910156 333.90625 C 547.027344 333.320312 547.085938 332.726562 547.085938 332.128906 Z M 547.085938 332.128906 "/><path style=" stroke:none;fill-rule:nonzero;fill:#1800ad;fill-opacity:1;" d="M 282.945312 414.105469 C 282.945312 414.703125 283 415.292969 283.117188 415.882812 C 283.234375 416.46875 283.40625 417.035156 283.636719 417.589844 C 283.867188 418.140625 284.144531 418.667969 284.480469 419.164062 C 284.8125 419.660156 285.1875 420.121094 285.609375 420.542969 C 286.035156 420.96875 286.496094 421.34375 286.992188 421.675781 C 287.488281 422.007812 288.015625 422.289062 288.566406 422.519531 C 289.117188 422.746094 289.6875 422.921875 290.273438 423.039062 C 290.863281 423.152344 291.453125 423.210938 292.050781 423.210938 L 479.683594 423.210938 L 495.671875 404.996094 L 292.050781 404.996094 C 291.453125 404.996094 290.863281 405.054688 290.273438 405.171875 C 289.6875 405.289062 289.117188 405.460938 288.566406 405.6875 C 288.015625 405.917969 287.488281 406.199219 286.992188 406.53125 C 286.496094 406.863281 286.035156 407.242188 285.613281 407.664062 C 285.1875 408.085938 284.8125 408.546875 284.480469 409.042969 C 284.144531 409.539062 283.867188 410.066406 283.636719 410.617188 C 283.40625 411.171875 283.234375 411.742188 283.117188 412.328125 C 283 412.914062 282.945312 413.507812 282.945312 414.105469 Z M 282.945312 414.105469 "/><path style=" stroke:none;fill-rule:nonzero;fill:#1800ad;fill-opacity:1;" d="M 531.558594 364.007812 L 292.050781 364.007812 C 291.453125 364.007812 290.863281 364.066406 290.273438 364.183594 C 289.6875 364.300781 289.117188 364.472656 288.566406 364.699219 C 288.015625 364.929688 287.488281 365.210938 286.992188 365.542969 C 286.496094 365.875 286.035156 366.253906 285.609375 366.675781 C 285.1875 367.097656 284.8125 367.558594 284.480469 368.054688 C 284.144531 368.554688 283.867188 369.078125 283.636719 369.628906 C 283.40625 370.183594 283.234375 370.753906 283.117188 371.339844 C 283 371.925781 282.945312 372.519531 282.945312 373.117188 C 282.945312 373.714844 283 374.304688 283.117188 374.894531 C 283.234375 375.480469 283.40625 376.050781 283.636719 376.601562 C 283.867188 377.15625 284.144531 377.679688 284.480469 378.175781 C 284.8125 378.671875 285.1875 379.132812 285.609375 379.558594 C 286.035156 379.980469 286.496094 380.355469 286.992188 380.691406 C 287.488281 381.023438 288.015625 381.300781 288.566406 381.53125 C 289.117188 381.761719 289.6875 381.933594 290.273438 382.050781 C 290.863281 382.167969 291.453125 382.222656 292.050781 382.222656 L 515.617188 382.222656 Z M 531.558594 364.007812 "/><g clip-rule="nonzero" clip-path="url(#10e3d7320b)"><path style=" stroke:none;fill-rule:nonzero;fill:#1800ad;fill-opacity:1;" d="M 597.183594 669.140625 C 597.183594 669.738281 597.125 670.328125 597.007812 670.914062 C 596.890625 671.503906 596.71875 672.070312 596.488281 672.625 C 596.261719 673.175781 595.980469 673.703125 595.648438 674.199219 C 595.316406 674.695312 594.9375 675.15625 594.515625 675.578125 C 594.09375 676.003906 593.632812 676.378906 593.136719 676.710938 C 592.636719 677.042969 592.113281 677.324219 591.558594 677.554688 C 591.007812 677.78125 590.4375 677.957031 589.851562 678.074219 C 589.265625 678.1875 588.671875 678.246094 588.074219 678.246094 L 251.0625 678.246094 C 250.464844 678.246094 249.875 678.1875 249.289062 678.074219 C 248.699219 677.957031 248.132812 677.78125 247.578125 677.554688 C 247.027344 677.324219 246.5 677.042969 246.003906 676.710938 C 245.507812 676.378906 245.046875 676.003906 244.625 675.578125 C 244.199219 675.15625 243.824219 674.695312 243.492188 674.199219 C 243.160156 673.703125 242.878906 673.175781 242.648438 672.625 C 242.421875 672.070312 242.246094 671.503906 242.128906 670.914062 C 242.015625 670.328125 241.957031 669.738281 241.957031 669.140625 L 241.957031 140.851562 C 241.957031 140.253906 242.015625 139.660156 242.128906 139.074219 C 242.246094 138.488281 242.421875 137.917969 242.648438 137.367188 C 242.878906 136.8125 243.160156 136.289062 243.492188 135.792969 C 243.824219 135.292969 244.199219 134.835938 244.625 134.410156 C 245.046875 133.988281 245.507812 133.609375 246.003906 133.277344 C 246.5 132.945312 247.027344 132.664062 247.578125 132.4375 C 248.132812 132.207031 248.699219 132.035156 249.289062 131.917969 C 249.875 131.800781 250.464844 131.742188 251.0625 131.742188 L 443.296875 131.742188 L 446.894531 138.984375 L 446.894531 236.488281 C 446.894531 256.621094 458.644531 268.371094 478.773438 268.371094 L 597.183594 268.371094 L 597.183594 289.183594 L 601.738281 283.898438 C 605.621094 279.53125 610.171875 276.039062 615.398438 273.425781 L 615.398438 260.171875 L 451.449219 113.527344 L 451.449219 114.621094 L 450.21875 113.527344 L 251.0625 113.527344 C 250.167969 113.527344 249.277344 113.570312 248.386719 113.660156 C 247.496094 113.746094 246.609375 113.878906 245.734375 114.050781 C 244.855469 114.226562 243.988281 114.445312 243.132812 114.703125 C 242.277344 114.964844 241.433594 115.265625 240.605469 115.605469 C 239.78125 115.949219 238.972656 116.332031 238.183594 116.753906 C 237.394531 117.175781 236.628906 117.632812 235.882812 118.132812 C 235.140625 118.628906 234.421875 119.160156 233.730469 119.730469 C 233.039062 120.296875 232.375 120.898438 231.742188 121.53125 C 231.109375 122.164062 230.507812 122.824219 229.941406 123.515625 C 229.375 124.207031 228.839844 124.925781 228.34375 125.671875 C 227.847656 126.414062 227.386719 127.183594 226.964844 127.972656 C 226.542969 128.761719 226.160156 129.566406 225.820312 130.394531 C 225.476562 131.222656 225.175781 132.0625 224.914062 132.921875 C 224.65625 133.777344 224.4375 134.644531 224.265625 135.519531 C 224.089844 136.398438 223.957031 137.28125 223.871094 138.171875 C 223.78125 139.0625 223.738281 139.957031 223.738281 140.851562 L 223.738281 669.140625 C 223.738281 670.035156 223.78125 670.925781 223.871094 671.816406 C 223.957031 672.707031 224.089844 673.59375 224.265625 674.46875 C 224.4375 675.347656 224.65625 676.214844 224.914062 677.070312 C 225.175781 677.925781 225.476562 678.769531 225.820312 679.597656 C 226.160156 680.421875 226.542969 681.230469 226.964844 682.019531 C 227.386719 682.808594 227.847656 683.574219 228.34375 684.320312 C 228.839844 685.0625 229.375 685.78125 229.941406 686.472656 C 230.507812 687.164062 231.109375 687.828125 231.742188 688.460938 C 232.375 689.09375 233.039062 689.695312 233.730469 690.261719 C 234.421875 690.828125 235.140625 691.363281 235.882812 691.859375 C 236.628906 692.355469 237.394531 692.816406 238.183594 693.238281 C 238.972656 693.660156 239.78125 694.042969 240.605469 694.382812 C 241.433594 694.726562 242.277344 695.027344 243.132812 695.289062 C 243.988281 695.546875 244.855469 695.765625 245.734375 695.9375 C 246.609375 696.113281 247.496094 696.246094 248.386719 696.332031 C 249.277344 696.421875 250.167969 696.464844 251.0625 696.464844 L 588.074219 696.464844 C 588.96875 696.464844 589.863281 696.421875 590.753906 696.332031 C 591.644531 696.246094 592.527344 696.113281 593.40625 695.9375 C 594.285156 695.765625 595.152344 695.546875 596.007812 695.289062 C 596.863281 695.027344 597.703125 694.726562 598.53125 694.382812 C 599.359375 694.042969 600.167969 693.660156 600.957031 693.238281 C 601.746094 692.816406 602.511719 692.355469 603.257812 691.859375 C 604 691.363281 604.71875 690.828125 605.410156 690.261719 C 606.101562 689.695312 606.765625 689.09375 607.398438 688.460938 C 608.03125 687.828125 608.628906 687.164062 609.199219 686.472656 C 609.765625 685.78125 610.296875 685.0625 610.792969 684.320312 C 611.292969 683.574219 611.75 682.808594 612.171875 682.019531 C 612.59375 681.230469 612.976562 680.421875 613.320312 679.597656 C 613.664062 678.769531 613.964844 677.925781 614.222656 677.070312 C 614.484375 676.214844 614.699219 675.347656 614.875 674.46875 C 615.050781 673.59375 615.179688 672.707031 615.269531 671.816406 C 615.355469 670.925781 615.398438 670.035156 615.398438 669.140625 L 615.398438 474.902344 L 597.183594 495.667969 Z M 478.773438 250.152344 C 468.710938 250.152344 465.113281 246.554688 465.113281 236.488281 L 465.113281 154.242188 L 576.871094 250.152344 Z M 478.773438 250.152344 "/></g><path style=" stroke:none;fill-rule:nonzero;fill:#1800ad;fill-opacity:1;" d="M 697.375 341.738281 C 697.269531 339.957031 696.992188 338.207031 696.539062 336.480469 C 696.085938 334.757812 695.46875 333.09375 694.6875 331.492188 C 693.90625 329.886719 692.976562 328.378906 691.894531 326.960938 C 690.8125 325.542969 689.605469 324.242188 688.265625 323.066406 L 654.15625 293.28125 C 653.484375 292.683594 652.785156 292.117188 652.054688 291.585938 C 651.328125 291.058594 650.574219 290.5625 649.800781 290.109375 C 649.023438 289.652344 648.226562 289.238281 647.40625 288.859375 C 646.589844 288.484375 645.753906 288.148438 644.902344 287.855469 C 644.050781 287.558594 643.1875 287.308594 642.3125 287.097656 C 641.4375 286.890625 640.554688 286.722656 639.660156 286.601562 C 638.769531 286.480469 637.871094 286.40625 636.972656 286.371094 C 636.074219 286.339844 635.171875 286.351562 634.273438 286.40625 C 633.375 286.460938 632.480469 286.5625 631.59375 286.707031 C 630.703125 286.851562 629.824219 287.039062 628.953125 287.269531 C 628.085938 287.5 627.226562 287.773438 626.382812 288.089844 C 625.542969 288.40625 624.714844 288.761719 623.90625 289.160156 C 623.101562 289.558594 622.3125 289.996094 621.546875 290.46875 C 620.785156 290.945312 620.042969 291.457031 619.332031 292.007812 C 618.617188 292.554688 617.929688 293.136719 617.273438 293.753906 C 616.617188 294.371094 615.992188 295.015625 615.398438 295.695312 L 394.75 547.769531 C 393.808594 548.84375 393.152344 550.074219 392.789062 551.457031 L 369.792969 639.535156 C 369.578125 640.355469 369.476562 641.1875 369.496094 642.035156 C 369.511719 642.878906 369.644531 643.707031 369.890625 644.515625 C 370.140625 645.324219 370.492188 646.085938 370.953125 646.796875 C 371.410156 647.507812 371.957031 648.140625 372.59375 648.699219 C 373.230469 649.257812 373.929688 649.71875 374.695312 650.078125 C 375.460938 650.441406 376.257812 650.695312 377.09375 650.835938 C 377.929688 650.972656 378.765625 650.996094 379.605469 650.90625 C 380.449219 650.8125 381.257812 650.605469 382.042969 650.285156 L 466.433594 615.808594 C 467.761719 615.273438 468.898438 614.46875 469.847656 613.394531 L 690.636719 361.503906 C 691.824219 360.160156 692.871094 358.714844 693.773438 357.167969 C 694.675781 355.617188 695.414062 353.996094 695.992188 352.296875 C 696.570312 350.601562 696.976562 348.863281 697.210938 347.085938 C 697.441406 345.308594 697.496094 343.527344 697.375 341.738281 Z M 392.246094 626.511719 L 407.457031 568.261719 L 449.355469 603.195312 Z M 464.519531 592.082031 L 415.878906 551.550781 L 603.558594 337.136719 L 652.199219 377.671875 Z M 677.199219 349.480469 L 664.222656 364.007812 L 615.398438 323.429688 L 629.0625 307.855469 C 629.457031 307.410156 629.886719 307.011719 630.359375 306.652344 C 630.828125 306.292969 631.332031 305.984375 631.863281 305.722656 C 632.394531 305.460938 632.945312 305.253906 633.515625 305.101562 C 634.089844 304.945312 634.671875 304.851562 635.261719 304.808594 C 635.851562 304.769531 636.441406 304.785156 637.027344 304.863281 C 637.617188 304.9375 638.191406 305.066406 638.753906 305.253906 C 639.3125 305.441406 639.851562 305.679688 640.367188 305.972656 C 640.882812 306.265625 641.367188 306.601562 641.8125 306.988281 L 676.0625 336.683594 C 676.5 337.074219 676.894531 337.503906 677.246094 337.972656 C 677.601562 338.441406 677.90625 338.941406 678.164062 339.46875 C 678.417969 339.996094 678.625 340.542969 678.773438 341.109375 C 678.925781 341.675781 679.023438 342.253906 679.0625 342.835938 C 679.101562 343.421875 679.085938 344.007812 679.011719 344.589844 C 678.941406 345.171875 678.8125 345.742188 678.628906 346.296875 C 678.445312 346.855469 678.210938 347.390625 677.925781 347.902344 C 677.640625 348.414062 677.304688 348.894531 676.925781 349.34375 Z M 677.199219 349.480469 "/><path style=" stroke:none;fill-rule:nonzero;fill:#1800ad;fill-opacity:1;" d="M 310.269531 269.597656 C 310.269531 270.199219 310.210938 270.789062 310.09375 271.375 C 309.976562 271.960938 309.804688 272.53125 309.574219 273.085938 C 309.347656 273.636719 309.066406 274.164062 308.734375 274.660156 C 308.402344 275.15625 308.023438 275.617188 307.601562 276.039062 C 307.179688 276.460938 306.71875 276.839844 306.21875 277.171875 C 305.722656 277.503906 305.199219 277.785156 304.644531 278.015625 C 304.09375 278.242188 303.523438 278.414062 302.9375 278.53125 C 302.351562 278.648438 301.757812 278.707031 301.160156 278.707031 C 300.5625 278.707031 299.96875 278.648438 299.382812 278.53125 C 298.796875 278.414062 298.226562 278.242188 297.675781 278.015625 C 297.121094 277.785156 296.597656 277.503906 296.101562 277.171875 C 295.601562 276.839844 295.144531 276.460938 294.71875 276.039062 C 294.296875 275.617188 293.917969 275.15625 293.585938 274.660156 C 293.253906 274.164062 292.972656 273.636719 292.746094 273.085938 C 292.515625 272.53125 292.34375 271.960938 292.226562 271.375 C 292.109375 270.789062 292.050781 270.199219 292.050781 269.597656 C 292.050781 269 292.109375 268.410156 292.226562 267.820312 C 292.34375 267.234375 292.515625 266.667969 292.746094 266.113281 C 292.972656 265.5625 293.253906 265.035156 293.585938 264.539062 C 293.917969 264.042969 294.296875 263.582031 294.71875 263.160156 C 295.144531 262.734375 295.601562 262.359375 296.101562 262.027344 C 296.597656 261.695312 297.121094 261.414062 297.675781 261.183594 C 298.226562 260.957031 298.796875 260.78125 299.382812 260.664062 C 299.96875 260.550781 300.5625 260.492188 301.160156 260.492188 C 301.757812 260.492188 302.351562 260.550781 302.9375 260.664062 C 303.523438 260.78125 304.09375 260.957031 304.644531 261.183594 C 305.199219 261.414062 305.722656 261.695312 306.21875 262.027344 C 306.71875 262.359375 307.179688 262.734375 307.601562 263.160156 C 308.023438 263.582031 308.402344 264.042969 308.734375 264.539062 C 309.066406 265.035156 309.347656 265.5625 309.574219 266.113281 C 309.804688 266.667969 309.976562 267.234375 310.09375 267.820312 C 310.210938 268.410156 310.269531 269 310.269531 269.597656 Z M 310.269531 269.597656 "/><path style=" stroke:none;fill-rule:nonzero;fill:#1800ad;fill-opacity:1;" d="M 346.703125 269.597656 C 346.703125 270.199219 346.644531 270.789062 346.527344 271.375 C 346.410156 271.960938 346.238281 272.53125 346.007812 273.085938 C 345.78125 273.636719 345.5 274.164062 345.167969 274.660156 C 344.835938 275.15625 344.457031 275.617188 344.035156 276.039062 C 343.613281 276.460938 343.152344 276.839844 342.652344 277.171875 C 342.15625 277.503906 341.632812 277.785156 341.078125 278.015625 C 340.527344 278.242188 339.957031 278.414062 339.371094 278.53125 C 338.785156 278.648438 338.191406 278.707031 337.59375 278.707031 C 336.996094 278.707031 336.402344 278.648438 335.816406 278.53125 C 335.230469 278.414062 334.660156 278.242188 334.109375 278.015625 C 333.554688 277.785156 333.03125 277.503906 332.535156 277.171875 C 332.035156 276.839844 331.578125 276.460938 331.152344 276.039062 C 330.730469 275.617188 330.351562 275.15625 330.019531 274.660156 C 329.6875 274.164062 329.40625 273.636719 329.179688 273.085938 C 328.949219 272.53125 328.777344 271.960938 328.660156 271.375 C 328.542969 270.789062 328.484375 270.199219 328.484375 269.597656 C 328.484375 269 328.542969 268.410156 328.660156 267.820312 C 328.777344 267.234375 328.949219 266.667969 329.179688 266.113281 C 329.40625 265.5625 329.6875 265.035156 330.019531 264.539062 C 330.351562 264.042969 330.730469 263.582031 331.152344 263.160156 C 331.578125 262.734375 332.035156 262.359375 332.535156 262.027344 C 333.03125 261.695312 333.554688 261.414062 334.109375 261.183594 C 334.660156 260.957031 335.230469 260.78125 335.816406 260.664062 C 336.402344 260.550781 336.996094 260.492188 337.59375 260.492188 C 338.191406 260.492188 338.785156 260.550781 339.371094 260.664062 C 339.957031 260.78125 340.527344 260.957031 341.078125 261.183594 C 341.632812 261.414062 342.15625 261.695312 342.652344 262.027344 C 343.152344 262.359375 343.613281 262.734375 344.035156 263.160156 C 344.457031 263.582031 344.835938 264.042969 345.167969 264.539062 C 345.5 265.035156 345.78125 265.5625 346.007812 266.113281 C 346.238281 266.667969 346.410156 267.234375 346.527344 267.820312 C 346.644531 268.410156 346.703125 269 346.703125 269.597656 Z M 346.703125 269.597656 "/><path style=" stroke:none;fill-rule:nonzero;fill:#1800ad;fill-opacity:1;" d="M 282.945312 455.089844 C 282.945312 455.691406 283 456.28125 283.117188 456.867188 C 283.234375 457.457031 283.40625 458.023438 283.636719 458.578125 C 283.867188 459.128906 284.144531 459.65625 284.480469 460.152344 C 284.8125 460.648438 285.1875 461.109375 285.609375 461.53125 C 286.035156 461.957031 286.496094 462.332031 286.992188 462.664062 C 287.488281 462.996094 288.015625 463.277344 288.566406 463.507812 C 289.117188 463.734375 289.6875 463.910156 290.273438 464.023438 C 290.863281 464.140625 291.453125 464.199219 292.050781 464.199219 L 443.753906 464.199219 L 459.738281 445.984375 L 292.050781 445.984375 C 291.453125 445.984375 290.863281 446.042969 290.273438 446.160156 C 289.6875 446.273438 289.117188 446.449219 288.566406 446.675781 C 288.015625 446.90625 287.488281 447.1875 286.992188 447.519531 C 286.496094 447.851562 286.035156 448.226562 285.613281 448.652344 C 285.1875 449.074219 284.8125 449.535156 284.480469 450.03125 C 284.144531 450.527344 283.867188 451.054688 283.636719 451.605469 C 283.40625 452.160156 283.234375 452.726562 283.117188 453.316406 C 283 453.902344 282.945312 454.492188 282.945312 455.089844 Z M 282.945312 455.089844 "/><path style=" stroke:none;fill-rule:nonzero;fill:#1800ad;fill-opacity:1;" d="M 282.945312 496.078125 C 282.945312 496.675781 283 497.269531 283.117188 497.855469 C 283.234375 498.441406 283.40625 499.011719 283.636719 499.566406 C 283.867188 500.117188 284.144531 500.640625 284.480469 501.140625 C 284.8125 501.636719 285.1875 502.097656 285.609375 502.519531 C 286.035156 502.941406 286.496094 503.320312 286.992188 503.652344 C 287.488281 503.984375 288.015625 504.265625 288.566406 504.496094 C 289.117188 504.722656 289.6875 504.894531 290.273438 505.011719 C 290.863281 505.128906 291.453125 505.1875 292.050781 505.1875 L 407.820312 505.1875 L 423.804688 486.972656 L 292.050781 486.972656 C 291.453125 486.972656 290.863281 487.03125 290.273438 487.144531 C 289.6875 487.261719 289.117188 487.4375 288.566406 487.664062 C 288.015625 487.894531 287.488281 488.175781 286.992188 488.507812 C 286.496094 488.839844 286.035156 489.214844 285.613281 489.640625 C 285.1875 490.0625 284.8125 490.523438 284.480469 491.019531 C 284.144531 491.515625 283.867188 492.042969 283.636719 492.59375 C 283.40625 493.144531 283.234375 493.714844 283.117188 494.300781 C 283 494.890625 282.945312 495.480469 282.945312 496.078125 Z M 282.945312 496.078125 "/><path style=" stroke:none;fill-rule:nonzero;fill:#1800ad;fill-opacity:1;" d="M 282.945312 537.066406 C 282.945312 537.664062 283 538.257812 283.117188 538.84375 C 283.234375 539.429688 283.40625 540 283.636719 540.554688 C 283.867188 541.105469 284.144531 541.628906 284.480469 542.128906 C 284.8125 542.625 285.1875 543.085938 285.609375 543.507812 C 286.035156 543.929688 286.496094 544.308594 286.992188 544.640625 C 287.488281 544.972656 288.015625 545.253906 288.566406 545.480469 C 289.117188 545.710938 289.6875 545.882812 290.273438 546 C 290.863281 546.117188 291.453125 546.175781 292.050781 546.175781 L 375.347656 546.175781 C 376.472656 542.277344 378.367188 538.800781 381.039062 535.746094 L 387.691406 527.957031 L 292.050781 527.957031 C 291.453125 527.957031 290.863281 528.015625 290.273438 528.132812 C 289.6875 528.25 289.117188 528.421875 288.566406 528.652344 C 288.015625 528.882812 287.488281 529.160156 286.992188 529.492188 C 286.496094 529.828125 286.035156 530.203125 285.613281 530.625 C 285.1875 531.050781 284.8125 531.507812 284.480469 532.007812 C 284.144531 532.503906 283.867188 533.027344 283.636719 533.582031 C 283.40625 534.132812 283.234375 534.703125 283.117188 535.289062 C 283 535.875 282.945312 536.46875 282.945312 537.066406 Z M 282.945312 537.066406 "/><path style=" stroke:none;fill-rule:nonzero;fill:#1800ad;fill-opacity:1;" d="M 369.472656 568.945312 L 292.050781 568.945312 C 291.453125 568.945312 290.863281 569.003906 290.273438 569.121094 C 289.6875 569.238281 289.117188 569.410156 288.566406 569.640625 C 288.015625 569.867188 287.488281 570.148438 286.992188 570.480469 C 286.496094 570.8125 286.035156 571.191406 285.609375 571.613281 C 285.1875 572.039062 284.8125 572.496094 284.480469 572.996094 C 284.144531 573.492188 283.867188 574.015625 283.636719 574.570312 C 283.40625 575.121094 283.234375 575.691406 283.117188 576.277344 C 283 576.863281 282.945312 577.457031 282.945312 578.054688 C 282.945312 578.652344 283 579.246094 283.117188 579.832031 C 283.234375 580.417969 283.40625 580.988281 283.636719 581.539062 C 283.867188 582.09375 284.144531 582.617188 284.480469 583.117188 C 284.8125 583.613281 285.1875 584.074219 285.609375 584.496094 C 286.035156 584.917969 286.496094 585.296875 286.992188 585.628906 C 287.488281 585.960938 288.015625 586.242188 288.566406 586.46875 C 289.117188 586.699219 289.6875 586.871094 290.273438 586.988281 C 290.863281 587.105469 291.453125 587.164062 292.050781 587.164062 L 364.601562 587.164062 Z M 369.472656 568.945312 "/><path style=" stroke:none;fill-rule:nonzero;fill:#1800ad;fill-opacity:1;" d="M 547.085938 578.054688 C 547.085938 577.457031 547.027344 576.863281 546.910156 576.277344 C 546.796875 575.691406 546.621094 575.121094 546.394531 574.570312 C 546.164062 574.015625 545.882812 573.492188 545.550781 572.996094 C 545.21875 572.496094 544.84375 572.039062 544.417969 571.613281 C 543.996094 571.191406 543.535156 570.8125 543.039062 570.480469 C 542.542969 570.148438 542.015625 569.867188 541.464844 569.640625 C 540.910156 569.410156 540.34375 569.238281 539.753906 569.121094 C 539.167969 569.003906 538.578125 568.945312 537.980469 568.945312 L 532.96875 568.945312 L 516.984375 587.164062 L 537.980469 587.164062 C 538.578125 587.164062 539.167969 587.105469 539.753906 586.988281 C 540.34375 586.871094 540.910156 586.699219 541.464844 586.46875 C 542.015625 586.242188 542.542969 585.960938 543.039062 585.628906 C 543.535156 585.296875 543.996094 584.917969 544.417969 584.496094 C 544.84375 584.074219 545.21875 583.613281 545.550781 583.117188 C 545.882812 582.617188 546.164062 582.09375 546.394531 581.539062 C 546.621094 580.988281 546.796875 580.417969 546.910156 579.832031 C 547.027344 579.246094 547.085938 578.652344 547.085938 578.054688 Z M 547.085938 578.054688 "/><path style=" stroke:none;fill-rule:nonzero;fill:#1800ad;fill-opacity:1;" d="M 282.945312 619.042969 C 282.945312 619.640625 283 620.234375 283.117188 620.820312 C 283.234375 621.40625 283.40625 621.976562 283.636719 622.527344 C 283.867188 623.082031 284.144531 623.605469 284.480469 624.101562 C 284.8125 624.601562 285.1875 625.0625 285.609375 625.484375 C 286.035156 625.90625 286.496094 626.285156 286.992188 626.617188 C 287.488281 626.949219 288.015625 627.230469 288.566406 627.457031 C 289.117188 627.6875 289.6875 627.859375 290.273438 627.976562 C 290.863281 628.09375 291.453125 628.152344 292.050781 628.152344 L 353.898438 628.152344 L 358.453125 609.933594 L 292.050781 609.933594 C 291.453125 609.933594 290.863281 609.992188 290.273438 610.109375 C 289.6875 610.226562 289.117188 610.398438 288.566406 610.628906 C 288.015625 610.855469 287.488281 611.136719 286.992188 611.46875 C 286.496094 611.800781 286.035156 612.179688 285.613281 612.601562 C 285.1875 613.023438 284.8125 613.484375 284.480469 613.984375 C 284.144531 614.480469 283.867188 615.003906 283.636719 615.558594 C 283.40625 616.109375 283.234375 616.679688 283.117188 617.265625 C 283 617.851562 282.945312 618.445312 282.945312 619.042969 Z M 282.945312 619.042969 "/><path style=" stroke:none;fill-rule:nonzero;fill:#1800ad;fill-opacity:1;" d="M 547.085938 619.042969 C 547.085938 618.445312 547.027344 617.851562 546.910156 617.265625 C 546.796875 616.679688 546.621094 616.109375 546.394531 615.558594 C 546.164062 615.003906 545.882812 614.480469 545.550781 613.984375 C 545.21875 613.484375 544.84375 613.023438 544.417969 612.601562 C 543.996094 612.179688 543.535156 611.800781 543.039062 611.46875 C 542.542969 611.136719 542.015625 610.855469 541.464844 610.628906 C 540.910156 610.398438 540.34375 610.226562 539.753906 610.109375 C 539.167969 609.992188 538.578125 609.933594 537.980469 609.933594 L 496.992188 609.933594 L 483.328125 625.375 C 482.425781 626.371094 481.453125 627.296875 480.414062 628.152344 L 537.980469 628.152344 C 538.578125 628.152344 539.167969 628.09375 539.753906 627.976562 C 540.34375 627.859375 540.910156 627.6875 541.464844 627.457031 C 542.015625 627.230469 542.542969 626.949219 543.039062 626.617188 C 543.535156 626.285156 543.996094 625.90625 544.417969 625.484375 C 544.84375 625.0625 545.21875 624.601562 545.550781 624.101562 C 545.882812 623.605469 546.164062 623.082031 546.394531 622.527344 C 546.621094 621.976562 546.796875 621.40625 546.910156 620.820312 C 547.027344 620.234375 547.085938 619.640625 547.085938 619.042969 Z M 547.085938 619.042969 "/></g></svg>