<svg xmlns="http://www.w3.org/2000/svg" xmlns:xlink="http://www.w3.org/1999/xlink" width="1080" zoomAndPan="magnify" viewBox="0 0 810 809.999993" height="1080" preserveAspectRatio="xMidYMid meet" version="1.2"><defs><clipPath id="9b79fcf084"><path d="M 78.792969 73.976562 L 729 73.976562 L 729 736 L 78.792969 736 Z M 78.792969 73.976562 "/></clipPath><clipPath id="49af2c1c39"><path d="M 78.792969 148.976562 L 78.792969 661.023438 C 78.792969 702.445312 112.371094 736.023438 153.792969 736.023438 L 656.207031 736.023438 C 697.628906 736.023438 731.207031 702.445312 731.207031 661.023438 L 731.207031 148.976562 C 731.207031 107.554688 697.628906 73.976562 656.207031 73.976562 L 153.792969 73.976562 C 112.371094 73.976562 78.792969 107.554688 78.792969 148.976562 Z M 78.792969 148.976562 "/></clipPath></defs><g id="d200daf267"><rect x="0" width="810" y="0" height="809.999993" style="fill:#ffffff;fill-opacity:1;stroke:none;"/><rect x="0" width="810" y="0" height="809.999993" style="fill:#c4e1e6;fill-opacity:1;stroke:none;"/><g clip-rule="nonzero" clip-path="url(#9b79fcf084)"><g clip-rule="nonzero" clip-path="url(#49af2c1c39)"><path style=" stroke:none;fill-rule:nonzero;fill:#ffffff;fill-opacity:1;" d="M 78.578125 73.621094 L 728.933594 73.621094 L 728.933594 735.660156 L 78.578125 735.660156 Z M 78.578125 73.621094 "/></g></g><g style="fill:#3d2e88;fill-opacity:1;"><g transform="translate(94.775003, 470.737941)"><path style="stroke:none" d="M 75.796875 1.75 C 66.660156 1.75 58.179688 0.234375 50.359375 -2.796875 C 42.546875 -5.835938 35.707031 -10.238281 29.84375 -16 C 23.988281 -21.769531 19.4375 -28.765625 16.1875 -36.984375 C 12.9375 -45.203125 11.3125 -54.488281 11.3125 -64.84375 C 11.3125 -75.15625 12.9375 -84.414062 16.1875 -92.625 C 19.4375 -100.84375 23.988281 -107.816406 29.84375 -113.546875 C 35.707031 -119.285156 42.546875 -123.671875 50.359375 -126.703125 C 58.179688 -129.742188 66.660156 -131.265625 75.796875 -131.265625 C 84.316406 -131.265625 92.285156 -129.898438 99.703125 -127.171875 C 107.128906 -124.441406 113.691406 -120.515625 119.390625 -115.390625 C 125.097656 -110.273438 129.640625 -104.097656 133.015625 -96.859375 L 117.84375 -90.609375 C 115.195312 -95.941406 111.757812 -100.460938 107.53125 -104.171875 C 103.300781 -107.878906 98.503906 -110.695312 93.140625 -112.625 C 87.773438 -114.5625 81.992188 -115.53125 75.796875 -115.53125 C 69.109375 -115.53125 62.851562 -114.410156 57.03125 -112.171875 C 51.207031 -109.941406 46.085938 -106.648438 41.671875 -102.296875 C 37.253906 -97.941406 33.816406 -92.632812 31.359375 -86.375 C 28.910156 -80.125 27.6875 -72.945312 27.6875 -64.84375 C 27.6875 -56.75 28.910156 -49.546875 31.359375 -43.234375 C 33.816406 -36.921875 37.253906 -31.585938 41.671875 -27.234375 C 46.085938 -22.878906 51.207031 -19.582031 57.03125 -17.34375 C 62.851562 -15.101562 69.109375 -13.984375 75.796875 -13.984375 C 81.992188 -13.984375 87.773438 -14.929688 93.140625 -16.828125 C 98.503906 -18.734375 103.300781 -21.539062 107.53125 -25.25 C 111.757812 -28.957031 115.195312 -33.476562 117.84375 -38.8125 L 133.015625 -32.65625 C 129.640625 -25.414062 125.097656 -19.21875 119.390625 -14.0625 C 113.691406 -8.914062 107.128906 -4.992188 99.703125 -2.296875 C 92.285156 0.398438 84.316406 1.75 75.796875 1.75 Z M 75.796875 1.75 "/></g><g transform="translate(235.694596, 470.737941)"><path style="stroke:none" d="M 99.984375 -129.515625 L 117.375 -129.515625 L 69.90625 0 L 52.984375 0 L 5.515625 -129.515625 L 22.8125 -129.515625 L 61.453125 -20.609375 Z M 99.984375 -129.515625 "/></g></g><g style="fill:#4da1d8;fill-opacity:1;"><g transform="translate(358.585314, 470.737941)"><path style="stroke:none" d="M 5.25 0 L 55.75 -67.609375 L 7.546875 -129.515625 L 27.5 -129.515625 L 65.5 -79.296875 L 103.390625 -129.515625 L 123.359375 -129.515625 L 75.25 -67.609375 L 125.65625 0 L 104.859375 0 L 65.5 -54.921875 L 26.125 0 Z M 5.25 0 "/></g></g><g style="fill:#3d2e88;fill-opacity:1;"><g transform="translate(489.478643, 470.737941)"><path style="stroke:none" d="M 92.90625 -121.796875 C 102.164062 -115.847656 106.796875 -105.878906 106.796875 -91.890625 C 106.796875 -84.898438 105.707031 -78.691406 103.53125 -73.265625 C 101.351562 -67.835938 98.054688 -63.40625 93.640625 -59.96875 C 86.222656 -53.53125 75.0625 -50.3125 60.15625 -50.3125 L 36.796875 -50.3125 L 36.796875 0 L 20.328125 0 L 20.328125 -129.515625 L 60.15625 -129.515625 C 74.570312 -129.515625 85.488281 -126.941406 92.90625 -121.796875 Z M 83.34375 -71.75 C 85.488281 -73.832031 87.128906 -76.453125 88.265625 -79.609375 C 89.398438 -82.773438 89.96875 -86.65625 89.96875 -91.25 C 89.96875 -95.664062 89.351562 -99.375 88.125 -102.375 C 86.894531 -105.382812 85.207031 -107.78125 83.0625 -109.5625 C 80.300781 -111.820312 76.847656 -113.335938 72.703125 -114.109375 C 68.566406 -114.878906 63.679688 -115.265625 58.046875 -115.265625 L 36.796875 -115.265625 L 36.796875 -64.671875 L 58.046875 -64.671875 C 63.867188 -64.671875 68.878906 -65.191406 73.078125 -66.234375 C 77.285156 -67.273438 80.707031 -69.113281 83.34375 -71.75 Z M 83.34375 -71.75 "/></g><g transform="translate(605.102616, 470.737941)"><path style="stroke:none" d="M 46.828125 0 L 46.828125 -61.625 L 4.140625 -129.515625 L 22.90625 -129.515625 L 55.09375 -76.625 L 87.296875 -129.515625 L 105.96875 -129.515625 L 63.375 -61.8125 L 63.375 0 Z M 46.828125 0 "/></g></g></g></svg>