<svg xmlns="http://www.w3.org/2000/svg" xmlns:xlink="http://www.w3.org/1999/xlink" width="1080" zoomAndPan="magnify" viewBox="0 0 810 809.999993" height="1080" preserveAspectRatio="xMidYMid meet" version="1.2"><defs><clipPath id="b628dbe166"><path d="M 56 171 L 263 171 L 263 729.75 L 56 729.75 Z M 56 171 "/></clipPath><clipPath id="0e2a83f979"><path d="M 198 545 L 754 545 L 754 729.75 L 198 729.75 Z M 198 545 "/></clipPath></defs><g id="f6d8a4615c"><rect x="0" width="810" y="0" height="809.999993" style="fill:#ffffff;fill-opacity:1;stroke:none;"/><rect x="0" width="810" y="0" height="809.999993" style="fill:#c4e1e6;fill-opacity:1;stroke:none;"/><path style=" stroke:none;fill-rule:nonzero;fill:#fdf151;fill-opacity:1;" d="M 254.0625 642.816406 L 111.902344 179.882812 L 603.0625 90.429688 L 745.214844 553.363281 Z M 254.0625 642.816406 "/><path style=" stroke:none;fill-rule:nonzero;fill:#0b122d;fill-opacity:1;" d="M 254.054688 651.15625 C 250.457031 651.15625 247.1875 648.816406 246.09375 645.265625 L 103.941406 182.332031 C 103.238281 180.058594 103.546875 177.589844 104.785156 175.554688 C 106.019531 173.523438 108.070312 172.113281 110.410156 171.683594 L 601.570312 82.226562 C 605.726562 81.476562 609.785156 83.941406 611.027344 87.980469 L 753.183594 550.914062 C 753.882812 553.1875 753.574219 555.65625 752.335938 557.691406 C 751.101562 559.722656 749.050781 561.132812 746.710938 561.5625 L 255.558594 651.015625 C 255.054688 651.105469 254.550781 651.152344 254.058594 651.152344 Z M 122.625 186.40625 L 259.851562 633.292969 L 734.5 546.84375 L 597.269531 99.957031 Z M 122.625 186.40625 "/><path style=" stroke:none;fill-rule:nonzero;fill:#0b122d;fill-opacity:1;" d="M 539.445312 467.914062 C 553.324219 480.648438 567.835938 492.628906 589.570312 488.667969 C 607.824219 485.34375 614.777344 475.050781 611.144531 463.21875 C 606.796875 449.058594 595.347656 445.835938 572.734375 441.25 L 560.367188 438.832031 C 524.691406 431.914062 498.667969 419.84375 488.339844 386.21875 C 478.824219 355.226562 496.753906 327.058594 536.089844 319.894531 C 564.097656 314.792969 587.03125 320.273438 608.898438 341.570312 L 580.945312 368.480469 C 569.5 357.152344 559.804688 353.632812 547.160156 355.9375 C 534.253906 358.289062 528.4375 367.453125 531.515625 377.484375 C 535.324219 389.878906 545.046875 393.40625 566.300781 397.640625 L 578.667969 400.058594 C 620.738281 408.265625 646.570312 419.777344 657.167969 454.289062 C 668.589844 491.480469 643.6875 517.539062 601.855469 525.152344 C 560.9375 532.605469 531.761719 517.484375 511.472656 495.882812 L 539.445312 467.910156 Z M 539.445312 467.914062 "/><path style=" stroke:none;fill-rule:nonzero;fill:#0b122d;fill-opacity:1;" d="M 581.628906 535.378906 C 552.410156 535.378906 526.363281 523.914062 505.402344 501.59375 C 502.320312 498.3125 502.402344 493.175781 505.582031 489.992188 L 533.554688 462.019531 C 536.707031 458.859375 541.789062 458.75 545.078125 461.769531 C 558.75 474.316406 570.605469 483.65625 588.078125 480.46875 C 595.390625 479.140625 600.574219 476.503906 602.667969 473.054688 C 603.910156 471.011719 604.078125 468.59375 603.179688 465.667969 C 600.390625 456.574219 593.832031 454.03125 571.078125 449.421875 L 558.765625 447.015625 C 525.375 440.539062 492.757812 428.988281 480.375 388.664062 C 475.308594 372.167969 477.039062 355.640625 485.246094 342.140625 C 494.703125 326.578125 512.230469 315.769531 534.597656 311.695312 C 566.535156 305.882812 591.992188 313.46875 614.710938 335.601562 C 616.328125 337.175781 617.238281 339.339844 617.230469 341.597656 C 617.222656 343.851562 616.304688 346.011719 614.675781 347.578125 L 586.722656 374.492188 C 583.464844 377.625 578.304688 377.59375 575.085938 374.410156 C 564.324219 363.757812 557.246094 362.582031 548.652344 364.144531 C 544.460938 364.90625 541.371094 366.617188 539.945312 368.960938 C 538.917969 370.648438 538.761719 372.695312 539.484375 375.042969 C 541.667969 382.15625 545.875 385.074219 567.933594 389.46875 L 580.273438 391.882812 C 623.910156 400.402344 653.332031 413.40625 665.136719 451.847656 C 670.507812 469.332031 668.9375 485.832031 660.59375 499.558594 C 650.289062 516.511719 629.960938 528.515625 603.351562 533.363281 C 595.945312 534.710938 588.695312 535.386719 581.632812 535.386719 Z M 523.289062 495.859375 C 544.546875 515.308594 570.4375 522.410156 600.363281 516.957031 C 622.222656 512.976562 638.554688 503.71875 646.351562 490.894531 C 652.230469 481.21875 653.191406 469.726562 649.203125 456.742188 C 639.75 425.964844 616.5625 415.949219 577.074219 408.242188 L 564.703125 405.824219 C 543.980469 401.695312 528.917969 397.425781 523.550781 379.933594 C 521.433594 373.042969 522.199219 366.066406 525.703125 360.296875 C 529.636719 353.828125 536.722656 349.367188 545.664062 347.738281 C 558.796875 345.351562 569.625 348.164062 580.742188 357.109375 L 596.652344 341.789062 C 579.570312 327.847656 561.453125 323.742188 537.578125 328.097656 C 519.960938 331.300781 506.433594 339.367188 499.484375 350.800781 C 493.703125 360.3125 492.601562 371.714844 496.300781 383.769531 C 505.554688 413.90625 529.238281 424.304688 561.945312 430.648438 L 574.328125 433.070312 C 595.109375 437.285156 613.007812 440.914062 619.105469 460.769531 C 621.417969 468.300781 620.660156 475.542969 616.90625 481.714844 C 613.648438 487.074219 606.523438 494.054688 591.0625 496.871094 C 568.152344 501.035156 551.59375 489.683594 539.746094 479.394531 L 523.289062 495.855469 Z M 523.289062 495.859375 "/><path style=" stroke:none;fill-rule:nonzero;fill:#0b122d;fill-opacity:1;" d="M 381.699219 497.757812 C 392.179688 508.152344 405.421875 515.203125 420.511719 512.457031 C 434.949219 509.828125 441.605469 502.941406 435.1875 482.042969 L 393.375 345.875 L 438.847656 337.59375 L 482.683594 480.34375 C 495.980469 523.640625 475.382812 548.195312 436.472656 555.277344 C 401.3125 561.683594 369.042969 543.851562 352.296875 524.875 L 381.699219 497.753906 Z M 381.699219 497.757812 "/><path style=" stroke:none;fill-rule:nonzero;fill:#0b122d;fill-opacity:1;" d="M 421.472656 564.976562 C 388.695312 564.976562 361.066406 547.414062 346.050781 530.398438 C 343.050781 527 343.316406 521.824219 346.648438 518.753906 L 376.050781 491.632812 C 379.324219 488.609375 384.398438 488.699219 387.566406 491.839844 C 397.824219 502.015625 408.40625 506.1875 419.019531 504.253906 C 424.101562 503.328125 427.25 501.917969 428.378906 500.0625 C 429.277344 498.582031 430.324219 494.589844 427.222656 484.492188 L 385.410156 348.324219 C 384.710938 346.046875 385.019531 343.582031 386.253906 341.546875 C 387.488281 339.511719 389.539062 338.105469 391.878906 337.675781 L 437.351562 329.394531 C 441.519531 328.632812 445.570312 331.109375 446.808594 335.148438 L 490.648438 477.898438 C 497.511719 500.253906 496.386719 519.167969 487.300781 534.113281 C 478.1875 549.109375 461.125 559.261719 437.960938 563.484375 C 432.347656 564.507812 426.839844 564.980469 421.46875 564.980469 Z M 364.269531 525.171875 C 380.894531 540.382812 407.453125 552.089844 434.984375 547.078125 C 453.324219 543.738281 466.496094 536.257812 473.066406 525.449219 C 479.570312 514.746094 480.125 500.394531 474.722656 482.789062 L 433.058594 347.117188 L 404.097656 352.390625 L 443.15625 479.589844 C 447.089844 492.394531 446.914062 501.648438 442.617188 508.714844 C 437.605469 516.964844 428.453125 519.476562 422.007812 520.648438 C 408.171875 523.171875 394.394531 519.15625 381.789062 509.011719 L 364.273438 525.171875 Z M 364.269531 525.171875 "/><path style=" stroke:none;fill-rule:nonzero;fill:#fdf151;fill-opacity:1;" d="M 111.902344 179.882812 L 64.429688 257.765625 L 206.585938 720.699219 L 254.0625 642.816406 Z M 111.902344 179.882812 "/><g clip-rule="nonzero" clip-path="url(#b628dbe166)"><path style=" stroke:none;fill-rule:nonzero;fill:#0b122d;fill-opacity:1;" d="M 206.589844 729.035156 C 206.246094 729.035156 205.898438 729.011719 205.546875 728.96875 C 202.296875 728.5625 199.585938 726.28125 198.621094 723.144531 L 56.464844 260.210938 C 55.765625 257.933594 56.074219 255.460938 57.316406 253.421875 L 104.789062 175.542969 C 106.496094 172.742188 109.671875 171.203125 112.9375 171.609375 C 116.191406 172.019531 118.902344 174.296875 119.867188 177.433594 L 262.023438 640.367188 C 262.722656 642.644531 262.414062 645.117188 261.175781 647.152344 L 213.699219 725.035156 C 212.175781 727.535156 209.464844 729.03125 206.585938 729.03125 Z M 73.496094 258.902344 L 209.113281 700.542969 L 244.996094 641.679688 L 109.378906 200.039062 L 73.5 258.902344 Z M 73.496094 258.902344 "/></g><path style=" stroke:none;fill-rule:nonzero;fill:#fdf151;fill-opacity:1;" d="M 745.214844 553.363281 L 697.746094 631.246094 L 206.585938 720.699219 L 254.0625 642.816406 Z M 745.214844 553.363281 "/><g clip-rule="nonzero" clip-path="url(#0e2a83f979)"><path style=" stroke:none;fill-rule:nonzero;fill:#0b122d;fill-opacity:1;" d="M 206.585938 729.035156 C 203.871094 729.035156 201.289062 727.707031 199.71875 725.414062 C 197.859375 722.707031 197.761719 719.160156 199.472656 716.359375 L 246.949219 638.476562 C 248.1875 636.449219 250.230469 635.042969 252.570312 634.613281 L 743.726562 545.160156 C 746.953125 544.566406 750.230469 545.9375 752.085938 548.640625 C 753.941406 551.351562 754.039062 554.894531 752.328125 557.699219 L 704.855469 635.582031 C 703.617188 637.609375 701.574219 639.015625 699.234375 639.441406 L 208.082031 728.898438 C 207.582031 728.988281 207.082031 729.03125 206.585938 729.03125 Z M 259.230469 650.347656 L 223.375 709.167969 L 692.574219 623.714844 L 728.429688 564.894531 Z M 259.230469 650.347656 "/></g></g></svg>