<svg xmlns="http://www.w3.org/2000/svg" xmlns:xlink="http://www.w3.org/1999/xlink" width="1080" zoomAndPan="magnify" viewBox="0 0 810 809.999993" height="1080" preserveAspectRatio="xMidYMid meet" version="1.2"><defs><clipPath id="9226837115"><path d="M 78.792969 73.976562 L 729 73.976562 L 729 736 L 78.792969 736 Z M 78.792969 73.976562 "/></clipPath><clipPath id="7cc7226b6e"><path d="M 78.792969 148.976562 L 78.792969 661.023438 C 78.792969 702.445312 112.371094 736.023438 153.792969 736.023438 L 656.207031 736.023438 C 697.628906 736.023438 731.207031 702.445312 731.207031 661.023438 L 731.207031 148.976562 C 731.207031 107.554688 697.628906 73.976562 656.207031 73.976562 L 153.792969 73.976562 C 112.371094 73.976562 78.792969 107.554688 78.792969 148.976562 Z M 78.792969 148.976562 "/></clipPath><clipPath id="37a7de88c2"><path d="M 99 318.617188 L 581 318.617188 L 581 491 L 99 491 Z M 99 318.617188 "/></clipPath></defs><g id="323fd72608"><rect x="0" width="810" y="0" height="809.999993" style="fill:#ffffff;fill-opacity:1;stroke:none;"/><rect x="0" width="810" y="0" height="809.999993" style="fill:#c4e1e6;fill-opacity:1;stroke:none;"/><g clip-rule="nonzero" clip-path="url(#9226837115)"><g clip-rule="nonzero" clip-path="url(#7cc7226b6e)"><path style=" stroke:none;fill-rule:nonzero;fill:#ffffff;fill-opacity:1;" d="M 78.578125 73.621094 L 728.933594 73.621094 L 728.933594 735.660156 L 78.578125 735.660156 Z M 78.578125 73.621094 "/></g></g><path style=" stroke:none;fill-rule:nonzero;fill:#83cd29;fill-opacity:1;" d="M 661.363281 379.675781 C 659.878906 379.675781 658.433594 379.984375 657.152344 380.707031 L 616.675781 404.035156 C 614.058594 405.542969 612.464844 408.386719 612.464844 411.414062 L 612.464844 457.992188 C 612.464844 461.015625 614.058594 463.855469 616.675781 465.367188 L 627.246094 471.445312 C 632.382812 473.972656 634.277344 473.933594 636.613281 473.933594 C 644.21875 473.933594 648.558594 469.328125 648.558594 461.324219 L 648.558594 415.371094 C 648.558594 414.71875 647.996094 414.253906 647.355469 414.253906 L 642.285156 414.253906 C 641.636719 414.253906 641.082031 414.730469 641.082031 415.371094 L 641.082031 461.34375 C 641.082031 464.890625 637.378906 468.460938 631.371094 465.460938 L 620.382812 459.027344 C 619.996094 458.816406 619.695312 458.433594 619.695312 458 L 619.695312 411.421875 C 619.695312 410.980469 619.992188 410.53125 620.382812 410.308594 L 660.777344 387.0625 C 661.152344 386.84375 661.605469 386.84375 661.976562 387.0625 L 702.371094 410.308594 C 702.753906 410.539062 703.058594 410.96875 703.058594 411.421875 L 703.058594 458 C 703.058594 458.445312 702.832031 458.898438 702.457031 459.113281 L 661.980469 482.363281 C 661.621094 482.566406 661.144531 482.566406 660.777344 482.363281 L 650.378906 476.1875 C 650.066406 476.003906 649.644531 476.019531 649.347656 476.1875 C 646.476562 477.808594 645.9375 478 643.246094 478.929688 C 642.582031 479.160156 641.574219 479.519531 643.589844 480.648438 L 657.167969 488.632812 C 658.460938 489.382812 659.902344 489.75 661.378906 489.75 C 662.878906 489.75 664.296875 489.390625 665.589844 488.632812 L 706.066406 465.386719 C 708.6875 463.867188 710.277344 461.035156 710.277344 458.011719 L 710.277344 411.433594 C 710.277344 408.410156 708.6875 405.570312 706.066406 404.058594 L 665.589844 380.726562 C 664.324219 380.003906 662.867188 379.699219 661.378906 379.699219 Z M 672.191406 412.960938 C 660.667969 412.960938 653.800781 417.855469 653.800781 425.996094 C 653.800781 434.820312 660.617188 437.253906 671.679688 438.347656 C 684.910156 439.640625 685.945312 441.582031 685.945312 444.179688 C 685.945312 448.691406 682.339844 450.613281 673.828125 450.613281 C 663.128906 450.613281 660.777344 447.949219 659.992188 442.625 C 659.898438 442.054688 659.457031 441.597656 658.875 441.597656 L 653.617188 441.597656 C 653.460938 441.601562 653.308594 441.632812 653.164062 441.695312 C 653.015625 441.757812 652.886719 441.84375 652.777344 441.957031 C 652.664062 442.070312 652.578125 442.199219 652.515625 442.34375 C 652.453125 442.488281 652.417969 442.640625 652.414062 442.796875 C 652.414062 449.597656 656.121094 457.636719 673.816406 457.636719 C 686.621094 457.636719 694.007812 452.628906 694.007812 443.828125 C 694.007812 435.125 688.042969 432.773438 675.621094 431.128906 C 663.078125 429.460938 661.871094 428.664062 661.871094 425.726562 C 661.871094 423.304688 662.886719 420.0625 672.183594 420.0625 C 680.488281 420.0625 683.554688 421.851562 684.816406 427.441406 C 684.925781 427.964844 685.386719 428.394531 685.933594 428.394531 L 691.1875 428.394531 C 691.511719 428.394531 691.824219 428.195312 692.046875 427.964844 C 692.265625 427.71875 692.421875 427.441406 692.390625 427.105469 C 691.578125 417.480469 685.148438 412.953125 672.195312 412.953125 Z M 672.191406 412.960938 "/><g clip-rule="nonzero" clip-path="url(#37a7de88c2)"><path style=" stroke:none;fill-rule:nonzero;fill:#404137;fill-opacity:1;" d="M 423.402344 318.621094 C 422.945312 318.621094 422.515625 318.734375 422.113281 318.964844 C 421.71875 319.195312 421.40625 319.511719 421.175781 319.90625 C 420.945312 320.304688 420.828125 320.734375 420.828125 321.195312 L 420.828125 386.8125 C 420.828125 387.457031 420.523438 388.03125 419.964844 388.355469 C 419.6875 388.515625 419.386719 388.597656 419.0625 388.597656 C 418.742188 388.597656 418.441406 388.515625 418.160156 388.355469 L 407.417969 382.179688 C 406.621094 381.71875 405.761719 381.488281 404.839844 381.488281 C 403.917969 381.488281 403.058594 381.71875 402.261719 382.179688 L 359.382812 406.882812 C 357.78125 407.804688 356.804688 409.582031 356.804688 411.429688 L 356.804688 460.832031 C 356.804688 461.753906 357.03125 462.613281 357.492188 463.410156 C 357.953125 464.207031 358.582031 464.835938 359.382812 465.292969 L 402.265625 489.996094 C 403.0625 490.460938 403.921875 490.691406 404.84375 490.691406 C 405.765625 490.691406 406.625 490.460938 407.421875 489.996094 L 450.304688 465.292969 C 451.101562 464.835938 451.734375 464.207031 452.195312 463.410156 C 452.65625 462.613281 452.882812 461.753906 452.882812 460.832031 L 452.882812 337.660156 C 452.882812 335.789062 451.859375 334.027344 450.21875 333.117188 L 424.695312 318.871094 C 424.292969 318.648438 423.847656 318.609375 423.40625 318.613281 Z M 147.546875 380.292969 C 146.726562 380.324219 145.957031 380.464844 145.222656 380.890625 L 102.34375 405.59375 C 101.542969 406.054688 100.914062 406.679688 100.453125 407.476562 C 99.992188 408.277344 99.761719 409.132812 99.765625 410.054688 L 99.851562 476.359375 C 99.851562 477.28125 100.332031 478.140625 101.140625 478.589844 C 101.9375 479.066406 102.925781 479.066406 103.71875 478.589844 L 129.15625 464.007812 C 130.769531 463.054688 131.820312 461.390625 131.820312 459.546875 L 131.820312 428.582031 C 131.820312 426.734375 132.792969 425.039062 134.402344 424.121094 L 145.230469 417.859375 C 146.027344 417.398438 146.886719 417.167969 147.804688 417.175781 C 148.730469 417.167969 149.589844 417.398438 150.386719 417.859375 L 161.207031 424.117188 C 162.8125 425.035156 163.785156 426.730469 163.785156 428.578125 L 163.785156 459.542969 C 163.785156 461.382812 164.863281 463.058594 166.449219 464 L 191.886719 478.582031 C 192.6875 479.058594 193.671875 479.058594 194.464844 478.582031 C 195.253906 478.128906 195.753906 477.273438 195.753906 476.351562 L 195.839844 410.050781 C 195.847656 409.128906 195.617188 408.269531 195.15625 407.472656 C 194.695312 406.671875 194.066406 406.046875 193.261719 405.589844 L 150.382812 380.894531 C 149.65625 380.472656 148.886719 380.328125 148.0625 380.296875 L 147.546875 380.296875 Z M 532.882812 380.890625 C 531.960938 380.890625 531.101562 381.117188 530.304688 381.578125 L 487.421875 406.28125 C 485.820312 407.207031 484.839844 408.894531 484.839844 410.742188 L 484.839844 460.148438 C 484.839844 462.003906 485.890625 463.6875 487.503906 464.605469 L 530.042969 488.804688 C 531.613281 489.699219 533.53125 489.769531 535.113281 488.890625 L 560.894531 474.566406 C 561.714844 474.113281 562.265625 473.265625 562.269531 472.335938 C 562.269531 471.40625 561.785156 470.570312 560.976562 470.105469 L 517.835938 445.402344 C 517.03125 444.941406 516.464844 444.011719 516.464844 443.085938 L 516.464844 427.636719 C 516.464844 426.714844 517.035156 425.867188 517.835938 425.40625 L 531.242188 417.6875 C 532.039062 417.226562 533.019531 417.226562 533.824219 417.6875 L 547.257812 425.40625 C 547.660156 425.636719 547.972656 425.949219 548.203125 426.347656 C 548.433594 426.746094 548.550781 427.175781 548.546875 427.636719 L 548.546875 439.816406 C 548.546875 440.277344 548.660156 440.707031 548.890625 441.105469 C 549.121094 441.503906 549.4375 441.816406 549.835938 442.046875 C 550.640625 442.507812 551.613281 442.511719 552.417969 442.046875 L 578.109375 427.121094 C 579.703125 426.195312 580.6875 424.5 580.6875 422.660156 L 580.6875 410.738281 C 580.6875 409.820312 580.457031 408.960938 579.996094 408.164062 C 579.535156 407.367188 578.90625 406.742188 578.109375 406.28125 L 535.484375 381.578125 C 534.6875 381.117188 533.828125 380.886719 532.90625 380.890625 Z M 404.664062 417.777344 C 404.90625 417.777344 405.136719 417.832031 405.351562 417.949219 L 420.046875 426.4375 C 420.445312 426.667969 420.734375 427.09375 420.734375 427.554688 L 420.734375 444.539062 C 420.734375 445 420.449219 445.421875 420.046875 445.652344 L 405.351562 454.144531 C 404.953125 454.371094 404.464844 454.371094 404.0625 454.144531 L 389.367188 445.652344 C 388.96875 445.421875 388.679688 444.996094 388.679688 444.539062 L 388.679688 427.558594 C 388.679688 427.097656 388.96875 426.675781 389.367188 426.445312 L 404.0625 417.953125 C 404.261719 417.839844 404.4375 417.785156 404.664062 417.785156 Z M 404.664062 417.777344 "/></g><path style=" stroke:none;fill-rule:nonzero;fill:#83cd29;fill-opacity:1;" d="M 276.359375 380.632812 C 275.441406 380.632812 274.578125 380.859375 273.78125 381.320312 L 230.898438 405.9375 C 229.296875 406.859375 228.320312 408.636719 228.320312 410.484375 L 228.320312 459.890625 C 228.320312 460.808594 228.546875 461.667969 229.007812 462.464844 C 229.46875 463.261719 230.097656 463.890625 230.898438 464.347656 L 273.78125 489.050781 C 274.578125 489.515625 275.4375 489.746094 276.359375 489.746094 C 277.28125 489.746094 278.140625 489.515625 278.9375 489.050781 L 321.820312 464.347656 C 322.617188 463.890625 323.25 463.261719 323.710938 462.464844 C 324.171875 461.667969 324.398438 460.808594 324.398438 459.886719 L 324.398438 410.484375 C 324.398438 408.636719 323.425781 406.863281 321.820312 405.941406 L 278.9375 381.324219 C 278.136719 380.859375 277.277344 380.632812 276.355469 380.636719 Z M 532.800781 424.722656 C 532.628906 424.722656 532.4375 424.722656 532.28125 424.804688 L 524.035156 429.609375 C 523.695312 429.796875 523.523438 430.082031 523.515625 430.46875 L 523.515625 439.902344 C 523.515625 440.257812 523.722656 440.582031 524.035156 440.761719 L 532.28125 445.480469 C 532.597656 445.671875 532.910156 445.671875 533.226562 445.480469 L 541.476562 440.761719 C 541.78125 440.585938 541.992188 440.257812 541.992188 439.902344 L 541.992188 430.46875 C 541.992188 430.113281 541.785156 429.789062 541.476562 429.609375 L 533.226562 424.804688 C 533.074219 424.714844 532.96875 424.722656 532.796875 424.722656 Z M 532.800781 424.722656 "/></g></svg>