<svg xmlns="http://www.w3.org/2000/svg" xmlns:xlink="http://www.w3.org/1999/xlink" width="1080" zoomAndPan="magnify" viewBox="0 0 810 809.999993" height="1080" preserveAspectRatio="xMidYMid meet" version="1.2"><defs><clipPath id="1eb02706c7"><path d="M 178 108.726562 L 634 108.726562 L 634 585 L 178 585 Z M 178 108.726562 "/></clipPath><clipPath id="bb0df0e0d8"><path d="M 177 624.199219 L 696 624.199219 L 696 702.949219 L 177 702.949219 Z M 177 624.199219 "/></clipPath></defs><g id="49b6f1b606"><rect x="0" width="810" y="0" height="809.999993" style="fill:#ffffff;fill-opacity:1;stroke:none;"/><rect x="0" width="810" y="0" height="809.999993" style="fill:#c4e1e6;fill-opacity:1;stroke:none;"/><path style=" stroke:none;fill-rule:nonzero;fill:#000000;fill-opacity:1;" d="M 602.75 404.140625 C 602.75 404.167969 602.738281 404.179688 602.710938 404.179688 C 602.683594 404.179688 602.671875 404.167969 602.671875 404.140625 C 602.671875 404.113281 602.683594 404.101562 602.710938 404.101562 C 602.738281 404.101562 602.75 404.113281 602.75 404.140625 Z M 602.75 404.140625 "/><path style=" stroke:none;fill-rule:nonzero;fill:#32648d;fill-opacity:1;" d="M 544.113281 400.378906 L 544.152344 400.417969 L 544.152344 400.4375 L 544.09375 400.457031 C 541.226562 401.503906 538.851562 401.941406 536.855469 402.832031 C 534.816406 403.644531 533.175781 405.128906 532.207031 407.03125 L 532.183594 407.070312 C 530.957031 409.347656 529.890625 413.386719 530.207031 420.261719 C 531.019531 420.855469 532.007812 421.308594 533.015625 421.625 L 533.09375 421.644531 C 536.4375 422.675781 542.039062 423.347656 548.289062 423.25 C 560.75 423.113281 576.101562 420.160156 584.253906 416.320312 C 591.277344 412.972656 597.289062 408.933594 602.652344 404.140625 C 575.429688 409.84375 560.058594 408.316406 550.621094 404.378906 C 548.171875 403.308594 546.011719 401.980469 544.113281 400.378906 Z M 544.113281 400.378906 "/><path style=" stroke:none;fill-rule:nonzero;fill:#32648d;fill-opacity:1;" d="M 516.199219 190.933594 L 516.320312 191.109375 L 516.457031 191.269531 Z M 516.199219 190.933594 "/><path style=" stroke:none;fill-rule:nonzero;fill:#32648d;fill-opacity:1;" d="M 412.085938 490.917969 C 412.066406 490.425781 412.085938 489.910156 412.066406 489.414062 C 412.066406 489.214844 412.042969 489.078125 412.042969 488.878906 Z M 412.085938 490.917969 "/><path style=" stroke:none;fill-rule:nonzero;fill:#32648d;fill-opacity:1;" d="M 391.214844 403.527344 C 390.066406 402.953125 388.722656 402.535156 387.277344 402.335938 L 387.21875 402.335938 L 387.21875 402.296875 L 386.800781 402.296875 C 385.773438 402.398438 384.269531 402.753906 381.34375 406.019531 C 374.535156 413.746094 372.164062 418.597656 366.542969 423.132812 C 360.925781 427.648438 353.644531 430.0625 339.085938 433.09375 C 334.476562 434.042969 331.824219 435.09375 330.085938 435.945312 C 330.660156 436.417969 330.597656 436.539062 331.449219 436.992188 C 333.585938 438.183594 336.316406 439.230469 338.53125 439.804688 C 344.785156 441.390625 355.070312 443.230469 365.792969 441.390625 C 376.515625 439.527344 387.671875 434.320312 397.1875 420.792969 C 398.828125 418.457031 399.007812 415.011719 397.664062 411.308594 C 396.316406 407.605469 393.3125 404.417969 391.214844 403.527344 Z M 391.214844 403.527344 "/><path style=" stroke:none;fill-rule:nonzero;fill:#32648d;fill-opacity:1;" d="M 471.097656 138.472656 L 469.96875 138.691406 C 470.34375 138.613281 470.761719 138.570312 471.136719 138.492188 C 471.117188 138.492188 471.117188 138.472656 471.097656 138.472656 Z M 471.097656 138.472656 "/><path style=" stroke:none;fill-rule:nonzero;fill:#32648d;fill-opacity:1;" d="M 526.132812 245.375 C 512.859375 245.550781 505.417969 249.015625 501.503906 253.550781 C 495.964844 259.988281 495.449219 271.277344 498.890625 285.179688 C 502.3125 299.101562 509.375 314.667969 516.023438 327.597656 C 519.347656 334.074219 522.570312 339.894531 525.164062 344.628906 C 527.773438 349.382812 529.691406 352.75 530.859375 355.621094 C 531.929688 358.273438 533.136719 360.609375 534.34375 362.789062 C 539.484375 351.796875 540.394531 341.003906 539.882812 329.757812 C 539.207031 315.835938 536.003906 301.597656 536.476562 287.179688 C 537.011719 270.324219 540.296875 259.355469 540.574219 246.324219 C 536.242188 245.730469 531.214844 245.375 526.132812 245.375 Z M 528.585938 255.394531 L 528.566406 255.550781 C 528.566406 255.613281 528.566406 255.671875 528.566406 255.75 C 528.566406 256.660156 528.308594 257.53125 527.851562 258.246094 L 527.871094 258.226562 C 527.257812 259.355469 526.546875 260.34375 525.714844 261.195312 C 523.777344 263.355469 521.1875 264.859375 518.257812 265.375 L 518.179688 265.394531 C 517.765625 265.453125 517.289062 265.472656 516.792969 265.472656 C 514.300781 265.472656 512.007812 264.683594 510.128906 263.335938 L 510.167969 263.355469 C 509.199219 262.683594 508.347656 261.910156 507.65625 261.039062 L 507.636719 261.019531 C 507.023438 260.34375 506.585938 259.472656 506.410156 258.542969 L 506.410156 258.503906 C 506.410156 258.402344 506.390625 258.304688 506.390625 258.207031 C 506.390625 257.355469 506.707031 256.5625 507.238281 255.96875 C 507.871094 255.234375 508.625 254.640625 509.496094 254.207031 L 509.535156 254.1875 C 511.414062 253.117188 513.945312 252.324219 516.8125 251.890625 C 517.882812 251.730469 518.949219 251.652344 519.941406 251.632812 L 519.941406 251.691406 L 520.910156 251.691406 C 522.195312 251.730469 523.382812 251.867188 524.429688 252.125 C 525.480469 252.363281 526.390625 252.71875 527.121094 253.214844 C 527.851562 253.710938 528.40625 254.464844 528.585938 255.394531 Z M 528.585938 255.394531 "/><path style=" stroke:none;fill-rule:nonzero;fill:#32648d;fill-opacity:1;" d="M 308.421875 332.648438 C 308.421875 329.082031 308.699219 325.597656 309.214844 322.171875 L 309.175781 322.546875 C 311.191406 307.914062 311.46875 294.230469 311.230469 283.417969 C 310.996094 272.878906 310.242188 265.871094 310.242188 261.492188 C 310.242188 261.433594 310.242188 261.375 310.242188 261.316406 C 310.242188 261.257812 310.242188 261.175781 310.242188 261.117188 L 310.242188 261.019531 L 310.222656 260.898438 L 310.222656 260.878906 C 310.222656 260.839844 310.222656 260.820312 310.222656 260.78125 C 310.222656 237.332031 314.335938 214.855469 321.796875 194.003906 C 327.277344 179.269531 335.425781 164.316406 347.632812 152.195312 C 335.625 148.195312 314.335938 142.097656 291.269531 140.949219 C 289.054688 140.828125 286.464844 140.75 283.871094 140.75 L 283.851562 140.75 L 283.851562 140.769531 C 281.378906 140.769531 278.886719 140.847656 276.433594 140.988281 C 256.691406 142.136719 238.015625 147.9375 224.683594 162.277344 C 211.308594 176.613281 202.507812 200.121094 204.425781 239.035156 C 204.800781 246.402344 207.964844 267.039062 213.386719 291.554688 C 218.828125 316.074219 226.484375 344.925781 235.703125 370.414062 C 244.941406 395.902344 256.136719 418.082031 266.78125 428.578125 C 272.140625 433.824219 276.789062 435.945312 281.003906 435.765625 C 285.238281 435.566406 290.339844 433.09375 296.574219 425.507812 C 308.820312 410.574219 320.390625 397.367188 332.339844 384.535156 L 331.945312 384.949219 C 317.503906 372.175781 308.421875 353.5 308.421875 332.648438 Z M 308.421875 332.648438 "/><path style=" stroke:none;fill-rule:nonzero;fill:#32648d;fill-opacity:1;" d="M 413.648438 139.78125 L 413.648438 139.742188 C 390.539062 139.800781 373.984375 146.871094 361.402344 157.464844 C 348.441406 168.417969 339.757812 183.40625 334.042969 198.753906 C 327.257812 216.976562 324.941406 234.601562 324.011719 246.5625 L 324.269531 246.402344 C 331.253906 242.441406 340.410156 238.480469 350.222656 236.183594 C 360.035156 233.886719 370.601562 233.195312 380.175781 236.957031 C 389.75 240.71875 397.664062 249.570312 400.53125 263 C 414.28125 327.5 396.257812 351.480469 389.609375 369.582031 C 387.496094 374.789062 385.296875 381.484375 383.457031 388.316406 L 383.140625 389.644531 C 383.972656 389.445312 384.824219 389.207031 385.65625 389.128906 C 390.34375 388.734375 394.023438 390.316406 396.199219 391.265625 C 402.886719 394.078125 407.476562 399.980469 409.949219 406.714844 C 410.601562 408.476562 411.054688 410.378906 411.332031 412.339844 C 411.589844 413.011719 411.726562 413.804688 411.726562 414.617188 C 411.726562 414.695312 411.726562 414.773438 411.726562 414.855469 C 411.410156 424.753906 411.214844 436.378906 411.214844 448.0625 C 411.214844 461.90625 411.492188 475.691406 412.003906 489.414062 C 412.460938 499.832031 413.113281 509.058594 413.925781 516.328125 C 414.773438 523.734375 415.960938 529.339844 416.714844 531.238281 C 419.207031 537.578125 422.867188 545.875 429.472656 551.519531 C 436.082031 557.144531 445.558594 560.90625 462.867188 557.144531 C 477.882812 553.875 487.140625 549.339844 493.332031 542.824219 C 499.523438 536.308594 503.203125 527.238281 505.558594 513.355469 C 509.097656 492.5625 516.199219 432.261719 517.070312 420.914062 C 516.675781 412.359375 517.921875 405.785156 520.632812 400.773438 C 523.402344 395.625 527.714844 392.476562 531.414062 390.773438 C 533.273438 389.921875 535.015625 389.347656 536.4375 388.929688 C 534.699219 386.414062 533.136719 384.316406 531.511719 382.277344 L 531.691406 382.496094 C 526.566406 376.234375 522.195312 369.046875 518.890625 361.304688 L 518.675781 360.730469 C 516.675781 356.589844 514.996094 353.460938 513.234375 350.390625 L 513.648438 351.164062 C 511.058594 346.410156 507.773438 340.472656 504.332031 333.796875 C 497.445312 320.429688 489.96875 304.230469 486.070312 288.445312 C 482.195312 272.683594 481.640625 256.363281 491.570312 244.859375 C 500.355469 234.640625 515.804688 230.402344 538.972656 232.777344 C 538.296875 230.699219 537.882812 228.976562 536.714844 226.203125 C 531.078125 212.933594 524.292969 201.488281 516.242188 191.109375 C 496.597656 165.722656 464.84375 140.59375 415.824219 139.78125 Z M 413.648438 139.78125 "/><path style=" stroke:none;fill-rule:nonzero;fill:#32648d;fill-opacity:1;" d="M 323.734375 262.601562 L 323.773438 262.582031 L 323.832031 262.523438 Z M 323.734375 262.601562 "/><path style=" stroke:none;fill-rule:nonzero;fill:#32648d;fill-opacity:1;" d="M 352.816406 249.195312 L 353.011719 249.175781 L 353.171875 249.117188 Z M 352.816406 249.195312 "/><path style=" stroke:none;fill-rule:nonzero;fill:#32648d;fill-opacity:1;" d="M 377.324219 364.929688 C 385.257812 343.261719 400.867188 327.460938 387.730469 265.789062 C 385.574219 255.691406 381.320312 251.613281 375.464844 249.3125 C 372.617188 248.265625 369.3125 247.652344 365.851562 247.652344 C 365.632812 247.652344 365.398438 247.652344 365.179688 247.652344 L 365.21875 247.652344 C 361.003906 247.691406 356.929688 248.226562 353.011719 249.175781 C 344.703125 251.273438 337.382812 254.246094 330.578125 258.046875 C 328.027344 259.453125 325.832031 260.917969 323.773438 262.5625 L 323.398438 262.917969 C 323.515625 265.8125 324.070312 272.820312 324.308594 283.140625 C 324.546875 294.425781 324.269531 308.824219 322.113281 324.410156 C 317.445312 358.273438 341.699219 386.316406 370.183594 386.355469 C 371.867188 379.40625 374.597656 372.355469 377.324219 364.929688 Z M 360.492188 266.523438 C 359.5625 265.574219 358.808594 264.503906 358.195312 263.335938 L 358.15625 263.257812 C 357.640625 262.425781 357.34375 261.414062 357.34375 260.324219 C 357.34375 260.128906 357.367188 259.929688 357.386719 259.730469 L 357.386719 259.75 C 357.683594 257.613281 359.421875 256.503906 361.105469 255.890625 C 362.667969 255.375 364.40625 255.078125 366.265625 255.078125 C 366.542969 255.078125 366.820312 255.078125 367.136719 255.097656 L 367.117188 255.019531 C 368.148438 255.019531 369.253906 255.117188 370.363281 255.273438 C 373.351562 255.691406 376.019531 256.503906 378.039062 257.691406 C 379.046875 258.246094 379.917969 258.9375 380.609375 259.769531 L 380.628906 259.789062 C 381.300781 260.5625 381.699219 261.574219 381.699219 262.703125 C 381.699219 262.859375 381.699219 263.019531 381.679688 263.175781 L 381.679688 263.15625 C 381.480469 264.34375 380.945312 265.375 380.214844 266.207031 C 379.402344 267.195312 378.492188 268.046875 377.464844 268.761719 L 377.425781 268.78125 C 375.425781 270.246094 372.914062 271.117188 370.203125 271.117188 C 369.671875 271.117188 369.136719 271.078125 368.621094 271.019531 L 368.679688 271.019531 C 365.398438 270.464844 362.589844 268.839844 360.492188 266.523438 Z M 360.492188 266.523438 "/><path style=" stroke:none;fill-rule:nonzero;fill:#32648d;fill-opacity:1;" d="M 330.183594 258.246094 C 330.320312 258.167969 330.460938 258.125 330.578125 258.046875 C 330.597656 258.046875 330.617188 258.027344 330.640625 258.007812 Z M 330.183594 258.246094 "/><path style=" stroke:none;fill-rule:nonzero;fill:#32648d;fill-opacity:1;" d="M 526.785156 183.03125 C 535.351562 194.023438 542.769531 206.539062 548.488281 219.964844 L 548.902344 221.054688 C 551.058594 226.28125 552.503906 230.699219 553.3125 234.125 C 553.730469 235.847656 554.007812 237.292969 554.105469 238.796875 C 554.144531 239.550781 554.183594 240.324219 553.867188 241.648438 C 553.867188 241.710938 553.769531 241.847656 553.75 241.90625 C 554.34375 259.253906 550.089844 271.019531 549.59375 287.574219 C 549.199219 299.574219 552.226562 313.675781 552.976562 329.0625 C 553.6875 343.519531 551.96875 359.402344 542.691406 374.988281 C 543.480469 375.9375 544.175781 376.890625 544.925781 377.839844 C 569.4375 338.726562 587.101562 295.457031 596.519531 258.5625 C 601.5625 238.699219 604.234375 220.699219 604.472656 206.4375 C 604.667969 192.179688 602.039062 181.84375 598.714844 177.527344 C 572.484375 143.542969 537.011719 134.886719 507.257812 134.652344 L 507.257812 134.671875 L 504.410156 134.671875 C 492.9375 134.847656 481.859375 136.175781 471.15625 138.492188 C 495.449219 149.425781 513.847656 166.257812 526.785156 183.03125 Z M 526.785156 183.03125 "/><g clip-rule="nonzero" clip-path="url(#1eb02706c7)"><path style=" stroke:none;fill-rule:nonzero;fill:#000000;fill-opacity:1;" d="M 416.910156 113.835938 L 416.714844 113.835938 C 393.6875 113.441406 373.921875 119.105469 357.957031 128.53125 C 342.25 123.007812 309.667969 113.480469 275.304688 115.382812 C 251.390625 116.707031 225.277344 124.074219 205.929688 144.769531 C 186.640625 165.464844 176.453125 197.488281 178.589844 241.054688 C 179.183594 253.078125 182.566406 272.683594 188.164062 298.070312 C 193.78125 323.460938 201.65625 353.183594 211.488281 380.296875 C 221.320312 407.425781 232.082031 431.785156 248.917969 448.339844 C 257.324219 456.640625 268.898438 463.609375 282.527344 463.035156 C 292.101562 462.640625 300.746094 458.382812 308.226562 452.105469 C 311.863281 456.957031 315.742188 459.074219 319.285156 461.035156 C 323.734375 463.511719 328.066406 465.195312 332.558594 466.304688 C 340.628906 468.34375 354.4375 471.078125 370.621094 468.285156 C 376.140625 467.351562 381.933594 465.53125 387.710938 462.9375 C 387.929688 469.472656 388.1875 475.867188 388.425781 482.34375 C 389.234375 502.859375 389.730469 521.8125 395.804688 538.429688 C 396.773438 541.140625 399.464844 555.125 410.007812 567.460938 C 420.550781 579.820312 441.246094 587.523438 464.785156 582.414062 C 481.402344 578.808594 502.511719 572.3125 516.558594 552.074219 C 530.425781 532.070312 536.675781 503.375 537.921875 456.835938 C 538.238281 454.324219 538.613281 452.183594 538.992188 450.183594 L 542.292969 450.480469 L 542.691406 450.480469 C 560.414062 451.292969 579.644531 448.738281 595.707031 441.171875 C 609.933594 434.5 620.695312 427.746094 628.546875 415.765625 C 630.507812 412.792969 632.640625 409.210938 633.234375 403.03125 C 633.828125 396.851562 630.328125 387.1875 624.511719 382.730469 C 612.878906 373.78125 605.578125 377.1875 597.746094 378.832031 C 590.761719 380.472656 582.691406 381.503906 574.421875 381.722656 L 574.261719 381.722656 C 596.855469 343.164062 613.058594 302.210938 622.296875 265.96875 C 627.777344 244.582031 630.84375 224.855469 631.078125 207.609375 C 631.335938 190.359375 629.953125 175.089844 619.742188 161.878906 C 587.875 120.609375 543.066406 109.203125 508.386719 108.808594 C 507.320312 108.785156 506.230469 108.765625 505.164062 108.785156 L 505.164062 108.726562 C 486.289062 108.886719 468.128906 111.738281 450.9375 116.828125 L 450.125 117.105469 C 440.195312 115.242188 428.664062 114.054688 416.910156 113.835938 Z M 463.777344 126.453125 C 475.882812 123.460938 489.8125 121.660156 504.132812 121.480469 L 504.253906 121.480469 L 504.273438 121.402344 C 537.070312 121.085938 578.953125 130.414062 609.042969 169.367188 C 615.808594 178.121094 617.824219 190.914062 617.585938 206.675781 C 617.332031 222.421875 614.460938 241.273438 609.199219 261.929688 C 598.992188 301.933594 579.722656 348.570312 552.582031 390.414062 C 553.472656 391.070312 554.5 391.644531 555.570312 392.078125 L 555.667969 392.117188 C 561.324219 394.496094 574.242188 396.535156 600.019531 391.167969 C 606.507812 389.78125 611.257812 388.851562 616.183594 392.652344 C 618.398438 394.554688 619.785156 397.367188 619.785156 400.515625 C 619.785156 400.714844 619.785156 400.910156 619.765625 401.109375 L 619.765625 401.089844 C 619.46875 403.605469 618.578125 405.863281 617.210938 407.742188 C 612.226562 415.328125 602.394531 422.515625 589.8125 428.4375 C 578.65625 433.707031 562.652344 436.460938 548.464844 436.617188 C 541.34375 436.695312 534.796875 436.140625 529.21875 434.378906 L 528.863281 434.242188 C 526.707031 455.234375 521.761719 496.683594 518.535156 515.59375 C 515.964844 530.84375 511.453125 542.964844 502.828125 552.035156 C 494.222656 561.105469 482.054688 566.570312 465.675781 570.132812 C 445.398438 574.550781 430.601562 569.796875 421.066406 561.660156 C 411.550781 553.539062 407.199219 542.765625 404.566406 536.171875 C 402.765625 531.617188 401.835938 525.714844 400.925781 517.832031 C 400.015625 509.949219 399.363281 500.304688 398.910156 489.433594 C 398.472656 478.382812 398.238281 465.390625 398.238281 452.34375 C 398.238281 448.042969 398.277344 443.765625 398.316406 439.46875 C 390.144531 447.074219 379.820312 452.421875 368.34375 454.460938 L 367.988281 454.519531 C 354.515625 456.835938 342.507812 454.558594 335.328125 452.738281 C 331.507812 451.769531 328.1875 450.402344 325.058594 448.699219 C 321.777344 446.914062 318.652344 444.875 316.554688 440.894531 C 315.722656 439.371094 315.226562 437.527344 315.226562 435.589844 C 315.226562 434.816406 315.308594 434.042969 315.464844 433.332031 C 316.175781 430.675781 317.660156 428.417969 319.699219 426.835938 L 319.71875 426.816406 C 323.597656 423.625 328.699219 421.84375 336.433594 420.21875 C 350.480469 417.289062 355.386719 415.289062 358.375 412.894531 C 360.90625 410.832031 363.792969 406.675781 368.859375 400.574219 C 368.839844 400.398438 368.820312 400.101562 368.800781 399.824219 L 368.800781 399.761719 C 359.226562 399.484375 350.304688 396.890625 342.507812 392.515625 L 342.804688 392.671875 C 339.878906 395.800781 324.902344 411.84375 306.660156 434.101562 C 298.988281 443.410156 290.5 448.757812 281.558594 449.132812 C 272.617188 449.511719 264.523438 444.957031 257.640625 438.203125 C 243.890625 424.675781 232.933594 401.40625 223.375 375.109375 C 213.839844 348.808594 206.085938 319.519531 200.566406 294.566406 C 195.027344 269.613281 191.785156 249.492188 191.308594 239.789062 C 189.25 198.558594 198.765625 170.773438 215.085938 153.246094 C 231.429688 135.71875 253.824219 129.085938 275.644531 127.820312 C 314.832031 125.542969 352.023438 139.382812 359.5625 142.355469 C 374.082031 132.375 392.777344 126.15625 416.101562 126.550781 C 427.851562 126.730469 439.148438 128.292969 449.949219 131.085938 L 448.960938 130.867188 L 449.355469 130.691406 C 453.132812 129.265625 457.960938 127.820312 462.90625 126.628906 Z M 463.777344 126.453125 "/></g><g clip-rule="nonzero" clip-path="url(#bb0df0e0d8)"><path style=" stroke:none;fill-rule:nonzero;fill:#000000;fill-opacity:1;" d="M 210.195312 655.738281 L 185.070312 655.738281 L 185.070312 630.507812 L 211.558594 630.507812 C 221.253906 630.507812 226.101562 634.777344 226.101562 643.304688 C 226.101562 651.585938 220.796875 655.722656 210.195312 655.722656 M 228.253906 630.210938 C 224.8125 627.132812 219.996094 625.59375 213.804688 625.59375 L 177.824219 625.792969 L 177.824219 686.144531 L 185.070312 686.144531 L 185.003906 660.453125 L 211.777344 660.453125 C 218.492188 660.453125 223.777344 658.914062 227.632812 655.835938 C 231.488281 652.757812 233.40625 648.488281 233.40625 643.023438 C 233.40625 637.558594 231.683594 633.300781 228.230469 630.210938 Z M 275.1875 673.476562 C 274.449219 675.515625 273.304688 677.226562 271.734375 678.609375 C 268.488281 681.777344 263.535156 683.355469 256.871094 683.355469 C 250.851562 683.355469 246.234375 681.816406 243.011719 678.742188 C 239.789062 675.664062 238.175781 671.550781 238.175781 666.40625 C 238.175781 663.71875 238.597656 661.335938 239.441406 659.269531 C 240.285156 657.199219 241.507812 655.433594 243.109375 654 C 246.441406 650.96875 251.027344 649.453125 256.871094 649.453125 C 269.8125 649.453125 276.28125 655.105469 276.28125 666.414062 C 276.28125 669.101562 275.914062 671.464844 275.175781 673.5 M 276.492188 651.234375 C 272.074219 647.210938 265.535156 645.203125 256.871094 645.203125 C 248.683594 645.203125 242.359375 647.257812 237.898438 651.355469 C 233.871094 655.074219 231.859375 660.089844 231.859375 666.402344 C 231.859375 672.675781 233.9375 677.734375 238.09375 681.582031 C 240.390625 683.660156 243.066406 685.148438 246.105469 686.089844 C 249.144531 687.03125 252.742188 687.484375 256.855469 687.484375 C 265.476562 687.484375 272.039062 685.496094 276.542969 681.515625 C 280.570312 677.882812 282.585938 672.847656 282.585938 666.402344 C 282.585938 659.917969 280.546875 654.855469 276.476562 651.222656 Z M 331.335938 675.222656 C 331.335938 683.34375 324.042969 687.40625 309.464844 687.40625 C 305.007812 687.40625 301.253906 687.125 298.203125 686.546875 C 295.148438 685.964844 292.675781 685.042969 290.769531 683.738281 C 289.300781 682.753906 288.132812 681.449219 287.265625 679.847656 C 286.398438 678.25 285.839844 676.238281 285.582031 673.820312 L 292.363281 673.753906 C 292.363281 676.949219 293.550781 679.304688 295.9375 680.820312 C 298.484375 682.636719 303 683.542969 309.476562 683.542969 C 319.667969 683.542969 324.761719 680.996094 324.761719 675.894531 C 324.761719 672.914062 323.054688 670.847656 319.636719 669.738281 C 318.941406 669.519531 314.820312 668.949219 307.273438 668.019531 C 299.722656 667.089844 295.019531 666.261719 293.15625 665.523438 C 289.132812 663.925781 287.121094 661.050781 287.121094 656.902344 C 287.121094 652.84375 288.917969 649.816406 292.515625 647.828125 C 294.289062 647.007812 296.511719 646.371094 299.175781 645.917969 C 301.839844 645.460938 304.925781 645.234375 308.433594 645.234375 C 322.46875 645.234375 329.484375 649.632812 329.484375 658.421875 L 323.035156 658.421875 C 323.035156 652.242188 318.101562 649.152344 308.234375 649.152344 C 303.21875 649.152344 299.484375 649.765625 297.019531 651.03125 C 294.554688 652.292969 293.324219 654.207031 293.324219 656.8125 C 293.324219 659.234375 294.988281 660.996094 298.320312 662.066406 C 300.269531 662.628906 304.746094 663.277344 311.757812 664.007812 C 318.042969 664.570312 322.339844 665.367188 324.675781 666.410156 C 329.132812 668.136719 331.359375 671.074219 331.359375 675.222656 Z M 357.980469 686.214844 L 355.21875 686.601562 L 353.5 686.730469 C 349.082031 686.730469 345.898438 686.089844 343.945312 684.8125 C 341.988281 683.535156 341.015625 681.292969 341.015625 678.089844 L 341.015625 650.554688 L 332.964844 650.554688 L 332.964844 646.496094 L 340.949219 646.496094 L 341.011719 633.480469 L 347.195312 633.480469 L 347.195312 646.507812 L 357.964844 646.507812 L 357.964844 650.625 L 347.195312 650.558594 L 347.195312 677.355469 C 347.195312 679.351562 347.726562 680.726562 348.800781 681.488281 C 349.871094 682.25 351.753906 682.625 354.46875 682.625 C 354.859375 682.671875 355.292969 682.65625 355.769531 682.585938 C 356.242188 682.511719 356.957031 682.347656 357.914062 682.097656 L 357.976562 686.230469 Z M 400.753906 677.089844 C 399.0625 678.472656 397.140625 679.527344 394.976562 680.265625 C 392.8125 681 390.328125 681.367188 387.515625 681.367188 C 374.582031 681.367188 368.113281 676.03125 368.113281 665.367188 C 368.113281 660.398438 369.769531 656.515625 373.078125 653.707031 C 376.390625 650.902344 381.046875 649.496094 387.0625 649.496094 C 393.117188 649.496094 397.714844 650.910156 400.851562 653.738281 C 403.988281 656.566406 405.554688 660.359375 405.554688 665.109375 C 405.554688 670.277344 403.953125 674.285156 400.753906 677.09375 M 411.742188 646.539062 L 405.554688 646.539062 L 405.492188 653.347656 C 402.765625 650.582031 400.816406 648.835938 399.648438 648.101562 C 396.199219 646.199219 391.707031 645.25 386.210938 645.25 C 378.15625 645.25 372.011719 647.085938 367.769531 650.757812 C 363.742188 654.128906 361.730469 659.007812 361.730469 665.402344 C 361.730469 668.554688 362.238281 671.371094 363.257812 673.855469 C 364.277344 676.335938 365.761719 678.445312 367.710938 680.167969 C 371.960938 683.710938 377.964844 685.484375 385.722656 685.484375 C 395.042969 685.484375 401.652344 682.9375 405.554688 677.847656 L 405.554688 684.894531 C 405.554688 689.390625 404.140625 692.871094 401.304688 695.332031 C 398.46875 697.792969 393.804688 699.027344 387.3125 699.027344 C 381.210938 699.027344 376.859375 698.1875 374.261719 696.507812 C 372.316406 695.21875 370.972656 692.980469 370.238281 689.796875 L 363.875 689.796875 C 364.566406 694.246094 366.460938 697.460938 369.523438 699.445312 C 373.074219 701.734375 379.070312 702.890625 387.515625 702.890625 C 403.664062 702.890625 411.742188 696.894531 411.742188 684.90625 L 411.742188 646.535156 Z M 445.1875 650.546875 C 443.339844 650.246094 441.601562 650.09375 440.011719 650.09375 C 429.84375 650.09375 424.769531 655.660156 424.769531 666.789062 L 424.769531 686.144531 L 418.648438 686.144531 L 418.582031 646.539062 L 424.769531 646.601562 L 424.769531 653.667969 L 425.09375 653.667969 C 426.128906 650.882812 427.773438 648.769531 430.023438 647.335938 C 432.488281 645.945312 436.164062 645.246094 441.054688 645.246094 L 445.203125 645.246094 L 445.203125 650.546875 Z M 450.945312 663.835938 C 451.722656 659.335938 453.476562 655.835938 456.199219 653.382812 C 457.976562 651.953125 459.988281 650.882812 462.234375 650.167969 C 464.484375 649.453125 467.015625 649.097656 469.828125 649.097656 C 475.324219 649.097656 479.808594 650.601562 483.292969 653.609375 C 486.777344 656.617188 488.515625 660.027344 488.515625 663.824219 L 450.925781 663.824219 M 489.105469 651.605469 C 486.941406 649.4375 484.253906 647.835938 481.050781 646.804688 C 477.847656 645.777344 474.101562 645.242188 469.8125 645.242188 C 461.800781 645.242188 455.585938 647.101562 451.167969 650.820312 C 446.75 654.539062 444.542969 659.601562 444.542969 666 C 444.542969 672.402344 446.664062 677.480469 450.90625 681.242188 C 455.492188 685.394531 461.964844 687.46875 470.324219 687.46875 C 473.652344 687.46875 476.738281 687.089844 479.574219 686.339844 C 482.410156 685.585938 484.890625 684.519531 487.011719 683.144531 C 490.730469 680.472656 493.089844 677.179688 494.089844 673.261719 L 487.402344 673.261719 C 485.109375 680.035156 479.398438 683.417969 470.269531 683.417969 C 463.820312 683.417969 458.863281 681.765625 455.40625 678.449219 C 452.417969 675.613281 450.925781 671.9375 450.925781 667.417969 L 495.019531 667.417969 C 495.019531 660.699219 493.050781 655.429688 489.105469 651.617188 Z M 560.355469 669.9375 C 560.355469 681.699219 550.859375 687.578125 531.859375 687.578125 C 520.476562 687.578125 512.167969 685.554688 506.933594 681.5 C 502.644531 678.171875 500.507812 673.09375 500.507812 666.265625 L 508.152344 666.265625 C 508.152344 677.242188 516.042969 682.730469 531.859375 682.730469 C 539.433594 682.730469 544.914062 681.605469 548.289062 679.363281 C 551.148438 677.375 552.578125 674.265625 552.578125 670.035156 C 552.578125 665.847656 550.628906 662.898438 546.730469 661.222656 C 544.523438 660.316406 539.128906 659.171875 530.558594 657.777344 C 519.777344 656.136719 512.785156 654.496094 509.582031 652.855469 C 504.949219 650.4375 502.632812 646.335938 502.632812 640.546875 C 502.632812 635.152344 504.605469 631.136719 508.542969 628.5 C 512.785156 625.648438 520.054688 624.199219 530.359375 624.199219 C 548.976562 624.199219 558.285156 630.375 558.285156 642.722656 L 550.570312 642.722656 C 550.570312 633.472656 543.667969 628.847656 529.832031 628.847656 C 522.898438 628.847656 517.828125 629.777344 514.621094 631.636719 C 511.585938 633.625 510.070312 636.542969 510.070312 640.390625 C 510.070312 644.414062 512.019531 647.246094 515.917969 648.886719 C 517.992188 649.839844 524.101562 651.15625 534.230469 652.84375 C 543.757812 654.273438 550.1875 655.9375 553.523438 657.839844 C 558.082031 660.171875 560.34375 664.21875 560.34375 669.964844 Z M 622.476562 675.964844 C 619.617188 678.25 616.390625 679.964844 612.789062 681.109375 C 609.191406 682.253906 605.148438 682.824219 600.710938 682.824219 C 591.609375 682.824219 584.253906 680.363281 578.652344 675.476562 C 573.046875 670.59375 570.238281 664.054688 570.238281 655.914062 C 570.238281 647.414062 573.019531 640.777344 578.585938 636.042969 C 584.15625 631.308594 591.535156 628.925781 600.722656 628.925781 C 610.039062 628.925781 617.367188 631.40625 622.695312 636.367188 C 625.507812 638.785156 627.589844 641.609375 628.9375 644.859375 C 630.28125 648.109375 630.949219 651.785156 630.949219 655.925781 C 630.949219 664.382812 628.132812 671.070312 622.5 675.988281 M 626.5625 679.992188 C 630.550781 677.1875 633.496094 673.789062 635.402344 669.78125 C 637.308594 665.773438 638.265625 661.175781 638.265625 655.949219 C 638.265625 646.578125 635.148438 639.066406 628.898438 633.40625 C 625.566406 630.296875 621.535156 627.988281 616.816406 626.476562 C 612.09375 624.964844 606.722656 624.199219 600.660156 624.199219 C 588.878906 624.199219 579.632812 627.050781 572.921875 632.75 C 566.214844 638.453125 562.855469 646.179688 562.855469 655.9375 C 562.855469 665.4375 566.242188 673.101562 573.015625 678.929688 C 579.792969 684.757812 589.046875 687.671875 600.777344 687.671875 C 605.363281 687.671875 609.367188 687.363281 612.789062 686.746094 C 616.207031 686.125 619.109375 685.171875 621.488281 683.890625 L 632.789062 691.707031 L 637.503906 687.378906 L 626.566406 679.972656 Z M 695.53125 686.167969 L 643.273438 686.167969 L 643.273438 625.726562 L 650.460938 625.59375 L 650.460938 681.089844 L 695.601562 681.089844 L 695.535156 686.132812 Z M 695.53125 686.167969 "/></g></g></svg>