<svg xmlns="http://www.w3.org/2000/svg" xmlns:xlink="http://www.w3.org/1999/xlink" width="1080" zoomAndPan="magnify" viewBox="0 0 810 809.999993" height="1080" preserveAspectRatio="xMidYMid meet" version="1.2"><defs><clipPath id="b9a49acc02"><path d="M 78.792969 66.953125 L 729 66.953125 L 729 729 L 78.792969 729 Z M 78.792969 66.953125 "/></clipPath><clipPath id="aa1fb67cc6"><path d="M 78.792969 141.953125 L 78.792969 654 C 78.792969 695.421875 112.371094 729 153.792969 729 L 656.207031 729 C 697.628906 729 731.207031 695.421875 731.207031 654 L 731.207031 141.953125 C 731.207031 100.53125 697.628906 66.953125 656.207031 66.953125 L 153.792969 66.953125 C 112.371094 66.953125 78.792969 100.53125 78.792969 141.953125 Z M 78.792969 141.953125 "/></clipPath><clipPath id="b76d6e3bad"><path d="M 281.976562 141.945312 L 372.988281 141.945312 L 372.988281 229.226562 L 281.976562 229.226562 Z M 281.976562 141.945312 "/></clipPath><clipPath id="04339ca3cb"><path d="M 413.160156 591.398438 L 520.570312 591.398438 L 520.570312 666.011719 L 413.160156 666.011719 Z M 413.160156 591.398438 "/></clipPath><clipPath id="b20b9f0732"><path d="M 108.464844 110.082031 L 548 110.082031 L 548 551 L 108.464844 551 Z M 108.464844 110.082031 "/></clipPath><clipPath id="e0f02d6cf5"><path d="M 402.765625 110.015625 C 252.359375 110.015625 261.75 175.25 261.75 175.25 L 261.917969 242.835938 L 405.433594 242.835938 L 405.433594 263.125 L 204.914062 263.125 C 204.914062 263.125 108.675781 252.207031 108.675781 403.988281 C 108.675781 555.777344 192.675781 550.394531 192.675781 550.394531 L 242.804688 550.394531 L 242.804688 479.953125 C 242.804688 479.953125 240.101562 395.933594 325.460938 395.933594 L 467.8125 395.933594 C 467.8125 395.933594 547.773438 397.234375 547.773438 318.632812 L 547.773438 188.667969 C 547.773438 188.667969 559.929688 110.015625 402.765625 110.015625 Z M 323.617188 155.464844 C 337.898438 155.464844 349.433594 167.007812 349.433594 181.289062 C 349.433594 195.570312 337.898438 207.113281 323.617188 207.113281 C 309.339844 207.113281 297.796875 195.570312 297.796875 181.289062 C 297.796875 167.007812 309.339844 155.464844 323.617188 155.464844 Z M 323.617188 155.464844 "/></clipPath><linearGradient x1="0.00416839" gradientTransform="matrix(439.315696,0,0,440.400566,108.675586,110.016799)" y1="-0.00405726" x2="1.027757" gradientUnits="userSpaceOnUse" y2="1.01158" id="74981cbce5"><stop style="stop-color:#387eb8;stop-opacity:1;" offset="0"/><stop style="stop-color:#387eb8;stop-opacity:1;" offset="0.125"/><stop style="stop-color:#387eb8;stop-opacity:1;" offset="0.140625"/><stop style="stop-color:#387db7;stop-opacity:1;" offset="0.15625"/><stop style="stop-color:#387db6;stop-opacity:1;" offset="0.171875"/><stop style="stop-color:#387cb5;stop-opacity:1;" offset="0.1875"/><stop style="stop-color:#387cb4;stop-opacity:1;" offset="0.203125"/><stop style="stop-color:#387bb3;stop-opacity:1;" offset="0.21875"/><stop style="stop-color:#387bb2;stop-opacity:1;" offset="0.234375"/><stop style="stop-color:#387ab1;stop-opacity:1;" offset="0.25"/><stop style="stop-color:#387ab1;stop-opacity:1;" offset="0.265625"/><stop style="stop-color:#3879b0;stop-opacity:1;" offset="0.28125"/><stop style="stop-color:#3879af;stop-opacity:1;" offset="0.296875"/><stop style="stop-color:#3878ae;stop-opacity:1;" offset="0.3125"/><stop style="stop-color:#3778ad;stop-opacity:1;" offset="0.328125"/><stop style="stop-color:#3777ac;stop-opacity:1;" offset="0.34375"/><stop style="stop-color:#3777ab;stop-opacity:1;" offset="0.359375"/><stop style="stop-color:#3776ab;stop-opacity:1;" offset="0.375"/><stop style="stop-color:#3776aa;stop-opacity:1;" offset="0.390625"/><stop style="stop-color:#3775a9;stop-opacity:1;" offset="0.40625"/><stop style="stop-color:#3775a8;stop-opacity:1;" offset="0.421875"/><stop style="stop-color:#3774a7;stop-opacity:1;" offset="0.4375"/><stop style="stop-color:#3774a6;stop-opacity:1;" offset="0.453125"/><stop style="stop-color:#3773a5;stop-opacity:1;" offset="0.46875"/><stop style="stop-color:#3773a4;stop-opacity:1;" offset="0.484375"/><stop style="stop-color:#3772a4;stop-opacity:1;" offset="0.494335"/><stop style="stop-color:#3772a3;stop-opacity:1;" offset="0.5"/><stop style="stop-color:#3772a3;stop-opacity:1;" offset="0.505665"/><stop style="stop-color:#3771a2;stop-opacity:1;" offset="0.515625"/><stop style="stop-color:#3771a2;stop-opacity:1;" offset="0.53125"/><stop style="stop-color:#3771a1;stop-opacity:1;" offset="0.546875"/><stop style="stop-color:#3770a0;stop-opacity:1;" offset="0.5625"/><stop style="stop-color:#37709f;stop-opacity:1;" offset="0.578125"/><stop style="stop-color:#376f9e;stop-opacity:1;" offset="0.59375"/><stop style="stop-color:#376f9d;stop-opacity:1;" offset="0.609375"/><stop style="stop-color:#376e9d;stop-opacity:1;" offset="0.625"/><stop style="stop-color:#366e9c;stop-opacity:1;" offset="0.640625"/><stop style="stop-color:#366d9b;stop-opacity:1;" offset="0.65625"/><stop style="stop-color:#366d9a;stop-opacity:1;" offset="0.671875"/><stop style="stop-color:#366c99;stop-opacity:1;" offset="0.6875"/><stop style="stop-color:#366c98;stop-opacity:1;" offset="0.703125"/><stop style="stop-color:#366b97;stop-opacity:1;" offset="0.71875"/><stop style="stop-color:#366b97;stop-opacity:1;" offset="0.734375"/><stop style="stop-color:#366a96;stop-opacity:1;" offset="0.75"/><stop style="stop-color:#366a95;stop-opacity:1;" offset="0.765625"/><stop style="stop-color:#366994;stop-opacity:1;" offset="0.78125"/><stop style="stop-color:#366994;stop-opacity:1;" offset="0.8125"/><stop style="stop-color:#366994;stop-opacity:1;" offset="0.875"/><stop style="stop-color:#366994;stop-opacity:1;" offset="1"/></linearGradient><clipPath id="00c1389565"><path d="M 261 259 L 701.148438 259 L 701.148438 699.652344 L 261 699.652344 Z M 261 259 "/></clipPath><clipPath id="9b2bcb685a"><path d="M 407.03125 699.492188 C 557.421875 699.492188 548.027344 634.246094 548.027344 634.246094 L 547.867188 566.65625 L 404.339844 566.65625 L 404.339844 546.378906 L 604.863281 546.378906 C 604.863281 546.378906 701.109375 557.285156 701.109375 405.515625 C 701.109375 253.730469 617.109375 259.113281 617.109375 259.113281 L 566.980469 259.113281 L 566.980469 329.542969 C 566.980469 329.542969 569.671875 413.570312 484.328125 413.570312 L 341.964844 413.570312 C 341.964844 413.570312 262 412.269531 262 490.878906 L 262 620.835938 C 262 620.835938 249.855469 699.492188 407.03125 699.492188 Z M 486.160156 654.039062 C 471.894531 654.039062 460.339844 642.484375 460.339844 628.214844 C 460.339844 613.921875 471.894531 602.390625 486.160156 602.390625 C 500.449219 602.390625 511.980469 613.921875 511.980469 628.214844 C 511.980469 642.484375 500.449219 654.039062 486.160156 654.039062 Z M 486.160156 654.039062 "/></clipPath><linearGradient x1="-0.0326453" gradientTransform="matrix(439.329036,0,0,440.402766,261.780881,259.088948)" y1="-0.00636593" x2="1.013978" gradientUnits="userSpaceOnUse" y2="0.985247" id="f97546e61f"><stop style="stop-color:#ffe052;stop-opacity:1;" offset="0"/><stop style="stop-color:#ffe052;stop-opacity:1;" offset="0.125"/><stop style="stop-color:#ffe052;stop-opacity:1;" offset="0.1875"/><stop style="stop-color:#ffe052;stop-opacity:1;" offset="0.21875"/><stop style="stop-color:#ffdf51;stop-opacity:1;" offset="0.234375"/><stop style="stop-color:#ffdf51;stop-opacity:1;" offset="0.25"/><stop style="stop-color:#ffde50;stop-opacity:1;" offset="0.265625"/><stop style="stop-color:#ffdd4f;stop-opacity:1;" offset="0.28125"/><stop style="stop-color:#ffdd4e;stop-opacity:1;" offset="0.296875"/><stop style="stop-color:#ffdc4e;stop-opacity:1;" offset="0.3125"/><stop style="stop-color:#ffdb4d;stop-opacity:1;" offset="0.328125"/><stop style="stop-color:#ffdb4c;stop-opacity:1;" offset="0.34375"/><stop style="stop-color:#ffda4b;stop-opacity:1;" offset="0.359375"/><stop style="stop-color:#ffd94b;stop-opacity:1;" offset="0.375"/><stop style="stop-color:#ffd94a;stop-opacity:1;" offset="0.390625"/><stop style="stop-color:#ffd849;stop-opacity:1;" offset="0.40625"/><stop style="stop-color:#ffd748;stop-opacity:1;" offset="0.421875"/><stop style="stop-color:#ffd748;stop-opacity:1;" offset="0.4375"/><stop style="stop-color:#ffd647;stop-opacity:1;" offset="0.453125"/><stop style="stop-color:#ffd546;stop-opacity:1;" offset="0.46875"/><stop style="stop-color:#ffd545;stop-opacity:1;" offset="0.482837"/><stop style="stop-color:#ffd445;stop-opacity:1;" offset="0.484375"/><stop style="stop-color:#ffd445;stop-opacity:1;" offset="0.5"/><stop style="stop-color:#ffd444;stop-opacity:1;" offset="0.515625"/><stop style="stop-color:#ffd343;stop-opacity:1;" offset="0.517163"/><stop style="stop-color:#ffd343;stop-opacity:1;" offset="0.53125"/><stop style="stop-color:#ffd242;stop-opacity:1;" offset="0.546875"/><stop style="stop-color:#ffd242;stop-opacity:1;" offset="0.5625"/><stop style="stop-color:#ffd141;stop-opacity:1;" offset="0.578125"/><stop style="stop-color:#ffd040;stop-opacity:1;" offset="0.59375"/><stop style="stop-color:#ffd03f;stop-opacity:1;" offset="0.609375"/><stop style="stop-color:#ffcf3f;stop-opacity:1;" offset="0.625"/><stop style="stop-color:#ffce3e;stop-opacity:1;" offset="0.640625"/><stop style="stop-color:#ffce3d;stop-opacity:1;" offset="0.65625"/><stop style="stop-color:#ffcd3c;stop-opacity:1;" offset="0.671875"/><stop style="stop-color:#ffcc3c;stop-opacity:1;" offset="0.6875"/><stop style="stop-color:#ffcc3b;stop-opacity:1;" offset="0.703125"/><stop style="stop-color:#ffcb3a;stop-opacity:1;" offset="0.71875"/><stop style="stop-color:#ffca39;stop-opacity:1;" offset="0.734375"/><stop style="stop-color:#ffca39;stop-opacity:1;" offset="0.75"/><stop style="stop-color:#ffc938;stop-opacity:1;" offset="0.765625"/><stop style="stop-color:#ffc837;stop-opacity:1;" offset="0.78125"/><stop style="stop-color:#ffc836;stop-opacity:1;" offset="0.796875"/><stop style="stop-color:#ffc735;stop-opacity:1;" offset="0.8125"/><stop style="stop-color:#ffc635;stop-opacity:1;" offset="0.828125"/><stop style="stop-color:#ffc634;stop-opacity:1;" offset="0.84375"/><stop style="stop-color:#ffc533;stop-opacity:1;" offset="0.859375"/><stop style="stop-color:#ffc432;stop-opacity:1;" offset="0.875"/><stop style="stop-color:#ffc432;stop-opacity:1;" offset="0.890625"/><stop style="stop-color:#ffc331;stop-opacity:1;" offset="0.90625"/><stop style="stop-color:#ffc331;stop-opacity:1;" offset="0.9375"/><stop style="stop-color:#ffc331;stop-opacity:1;" offset="1"/></linearGradient></defs><g id="37bb23517a"><rect x="0" width="810" y="0" height="809.999993" style="fill:#ffffff;fill-opacity:1;stroke:none;"/><rect x="0" width="810" y="0" height="809.999993" style="fill:#c4e1e6;fill-opacity:1;stroke:none;"/><g clip-rule="nonzero" clip-path="url(#b9a49acc02)"><g clip-rule="nonzero" clip-path="url(#aa1fb67cc6)"><path style=" stroke:none;fill-rule:nonzero;fill:#ffffff;fill-opacity:1;" d="M 78.578125 66.601562 L 728.933594 66.601562 L 728.933594 728.640625 L 78.578125 728.640625 Z M 78.578125 66.601562 "/></g></g><g clip-rule="nonzero" clip-path="url(#b76d6e3bad)"><path style=" stroke:none;fill-rule:nonzero;fill:#ffffff;fill-opacity:1;" d="M 281.976562 141.945312 L 373.011719 141.945312 L 373.011719 229.226562 L 281.976562 229.226562 Z M 281.976562 141.945312 "/></g><g clip-rule="nonzero" clip-path="url(#04339ca3cb)"><path style=" stroke:none;fill-rule:nonzero;fill:#ffffff;fill-opacity:1;" d="M 413.160156 591.398438 L 520.707031 591.398438 L 520.707031 666.011719 L 413.160156 666.011719 Z M 413.160156 591.398438 "/></g><g clip-rule="nonzero" clip-path="url(#b20b9f0732)"><g clip-rule="nonzero" clip-path="url(#e0f02d6cf5)"><path style=" stroke:none;fill-rule:nonzero;fill:url(#74981cbce5);" d="M 108.675781 110.082031 L 108.675781 555.777344 L 559.929688 555.777344 L 559.929688 110.082031 Z M 108.675781 110.082031 "/></g></g><g clip-rule="nonzero" clip-path="url(#00c1389565)"><g clip-rule="nonzero" clip-path="url(#9b2bcb685a)"><path style=" stroke:none;fill-rule:nonzero;fill:url(#f97546e61f);" d="M 249.855469 253.730469 L 249.855469 699.492188 L 701.109375 699.492188 L 701.109375 253.730469 Z M 249.855469 253.730469 "/></g></g></g></svg>