<svg xmlns="http://www.w3.org/2000/svg" xmlns:xlink="http://www.w3.org/1999/xlink" width="1080" zoomAndPan="magnify" viewBox="0 0 810 809.999993" height="1080" preserveAspectRatio="xMidYMid meet" version="1.2"><defs><clipPath id="5af39db2f6"><path d="M 78.792969 66.953125 L 729 66.953125 L 729 729 L 78.792969 729 Z M 78.792969 66.953125 "/></clipPath><clipPath id="644b4dbf8b"><path d="M 78.792969 141.953125 L 78.792969 654 C 78.792969 695.421875 112.371094 729 153.792969 729 L 656.207031 729 C 697.628906 729 731.207031 695.421875 731.207031 654 L 731.207031 141.953125 C 731.207031 100.535156 697.628906 66.953125 656.207031 66.953125 L 153.792969 66.953125 C 112.371094 66.953125 78.792969 100.535156 78.792969 141.953125 Z M 78.792969 141.953125 "/></clipPath><clipPath id="763087226f"><path d="M 92.472656 127 L 717.222656 127 L 717.222656 669 L 92.472656 669 Z M 92.472656 127 "/></clipPath></defs><g id="95c5c7d808"><rect x="0" width="810" y="0" height="809.999993" style="fill:#ffffff;fill-opacity:1;stroke:none;"/><rect x="0" width="810" y="0" height="809.999993" style="fill:#c4e1e6;fill-opacity:1;stroke:none;"/><g clip-rule="nonzero" clip-path="url(#5af39db2f6)"><g clip-rule="nonzero" clip-path="url(#644b4dbf8b)"><path style=" stroke:none;fill-rule:nonzero;fill:#ffffff;fill-opacity:1;" d="M 78.578125 66.601562 L 728.933594 66.601562 L 728.933594 728.640625 L 78.578125 728.640625 Z M 78.578125 66.601562 "/></g></g><path style=" stroke:none;fill-rule:nonzero;fill:#53c1de;fill-opacity:1;" d="M 460.636719 397.402344 C 460.636719 367.523438 435.660156 343.296875 404.847656 343.296875 C 374.039062 343.296875 349.058594 367.523438 349.058594 397.402344 C 349.058594 427.285156 374.039062 451.507812 404.847656 451.507812 C 435.660156 451.507812 460.636719 427.285156 460.636719 397.402344 Z M 460.636719 397.402344 "/><g clip-rule="nonzero" clip-path="url(#763087226f)"><path style=" stroke:none;fill-rule:evenodd;fill:#53c1de;fill-opacity:1;" d="M 586.03125 296.957031 C 597.8125 250.527344 612.621094 164.429688 560.417969 135.238281 C 508.457031 106.175781 440.839844 161.867188 405.136719 195.292969 C 369.535156 162.199219 300.019531 106.75 247.859375 136.03125 C 195.921875 165.191406 211.9375 249.859375 223.980469 296.582031 C 175.527344 309.925781 92.472656 338.671875 92.472656 397.402344 C 92.472656 455.964844 175.441406 487.242188 223.605469 500.574219 C 211.519531 547.550781 196.304688 631.011719 248.3125 660.109375 C 300.664062 689.382812 369.964844 635.253906 406 601.460938 C 441.933594 635.085938 508.902344 689.570312 560.871094 660.394531 C 613.003906 631.125 599.425781 546.179688 587.382812 499.191406 C 634.074219 485.828125 717.222656 455.234375 717.222656 397.402344 C 717.222656 339.234375 633.71875 310.257812 586.03125 296.957031 Z M 580.113281 474.289062 C 572.207031 450.011719 561.535156 424.199219 548.480469 397.53125 C 560.941406 371.492188 571.199219 346.011719 578.886719 321.894531 C 613.84375 331.722656 690.535156 354.1875 690.535156 397.402344 C 690.535156 441.023438 616.941406 463.699219 580.113281 474.289062 Z M 547.5 637.992188 C 508.722656 659.761719 451.121094 607.65625 424.585938 582.894531 C 442.191406 564.21875 459.785156 542.511719 476.953125 518.40625 C 507.160156 515.808594 535.691406 511.558594 561.566406 505.757812 C 570.042969 538.996094 586.445312 616.128906 547.5 637.992188 Z M 261.648438 637.683594 C 222.867188 615.996094 240.589844 541.519531 249.484375 506.914062 C 275.074219 512.40625 303.398438 516.355469 333.675781 518.734375 C 350.957031 542.324219 369.0625 564.007812 387.304688 582.996094 C 364.765625 604.140625 300.609375 659.46875 261.648438 637.683594 Z M 119.160156 397.402344 C 119.160156 353.621094 195.390625 331.316406 231.148438 321.511719 C 238.964844 346.171875 249.222656 371.957031 261.597656 398.035156 C 249.058594 424.496094 238.660156 450.691406 230.769531 475.640625 C 196.675781 466.175781 119.160156 441.210938 119.160156 397.402344 Z M 261.230469 158.429688 C 300.171875 136.574219 360.585938 189.808594 386.4375 213.769531 C 368.285156 232.671875 350.351562 254.1875 333.214844 277.640625 C 303.832031 280.28125 275.707031 284.523438 249.847656 290.207031 C 240.148438 252.523438 222.335938 180.265625 261.230469 158.429688 Z M 496.046875 305.773438 C 515.980469 308.214844 535.078125 311.460938 553.011719 315.429688 C 547.628906 332.164062 540.917969 349.664062 533.015625 367.601562 C 521.558594 346.523438 509.261719 325.867188 496.046875 305.773438 Z M 405.144531 232.265625 C 417.453125 245.199219 429.78125 259.640625 441.910156 275.308594 C 417.3125 274.179688 392.671875 274.175781 368.070312 275.292969 C 380.210938 259.769531 392.644531 245.347656 405.144531 232.265625 Z M 276.910156 367.582031 C 269.136719 349.707031 262.488281 332.132812 257.058594 315.15625 C 274.882812 311.289062 293.890625 308.125 313.695312 305.726562 C 300.441406 325.773438 288.167969 346.421875 276.910156 367.582031 Z M 314.265625 490.925781 C 293.804688 488.710938 274.507812 485.710938 256.6875 481.949219 C 262.203125 464.675781 269 446.71875 276.9375 428.457031 C 288.351562 449.839844 300.816406 470.6875 314.265625 490.925781 Z M 405.882812 564.367188 C 393.234375 551.128906 380.617188 536.488281 368.296875 520.742188 C 393.035156 521.683594 417.824219 521.683594 442.5625 520.613281 C 430.394531 536.648438 418.109375 551.3125 405.882812 564.367188 Z M 533.269531 427.527344 C 541.621094 445.988281 548.660156 463.847656 554.25 480.828125 C 536.132812 484.835938 516.578125 488.066406 495.972656 490.464844 C 509.285156 469.992188 521.777344 449.011719 533.269531 427.527344 Z M 462.058594 493.601562 C 424.214844 496.222656 386.136719 496.195312 348.28125 493.816406 C 326.773438 463.34375 307.625 431.296875 291.09375 398.023438 C 307.542969 364.824219 326.554688 332.839844 347.960938 302.414062 C 385.84375 299.636719 423.960938 299.628906 461.84375 302.429688 C 483.066406 332.855469 502.046875 364.753906 518.878906 397.65625 C 502.246094 430.839844 483.140625 462.890625 462.058594 493.601562 Z M 547.089844 157.660156 C 586.039062 179.449219 568.699219 256.828125 560.191406 290.476562 C 534.273438 284.671875 506.125 280.359375 476.65625 277.675781 C 459.488281 253.96875 441.703125 232.414062 423.847656 213.753906 C 450.027344 189.277344 508.515625 136.089844 547.089844 157.660156 Z M 547.089844 157.660156 "/></g></g></svg>