<svg xmlns="http://www.w3.org/2000/svg" xmlns:xlink="http://www.w3.org/1999/xlink" width="1080" zoomAndPan="magnify" viewBox="0 0 810 809.999993" height="1080" preserveAspectRatio="xMidYMid meet" version="1.2"><defs><clipPath id="d85216ca42"><path d="M 48.117188 81 L 762 81 L 762 728.640625 L 48.117188 728.640625 Z M 48.117188 81 "/></clipPath><clipPath id="259b4f7f1e"><path d="M 123.117188 81 L 686.882812 81 C 728.304688 81 761.882812 114.578125 761.882812 156 L 761.882812 653.640625 C 761.882812 695.0625 728.304688 728.640625 686.882812 728.640625 L 123.117188 728.640625 C 81.695312 728.640625 48.117188 695.0625 48.117188 653.640625 L 48.117188 156 C 48.117188 114.578125 81.695312 81 123.117188 81 Z M 123.117188 81 "/></clipPath><clipPath id="9fc012b167"><path d="M 133.863281 133.683594 L 676.113281 133.683594 L 676.113281 675.933594 L 133.863281 675.933594 Z M 133.863281 133.683594 "/></clipPath></defs><g id="341e514a80"><rect x="0" width="810" y="0" height="809.999993" style="fill:#ffffff;fill-opacity:1;stroke:none;"/><rect x="0" width="810" y="0" height="809.999993" style="fill:#c4e1e6;fill-opacity:1;stroke:none;"/><g clip-rule="nonzero" clip-path="url(#d85216ca42)"><g clip-rule="nonzero" clip-path="url(#259b4f7f1e)"><path style=" stroke:none;fill-rule:nonzero;fill:#ffffff;fill-opacity:1;" d="M 48.117188 81 L 761.535156 81 L 761.535156 728.640625 L 48.117188 728.640625 Z M 48.117188 81 "/></g></g><g clip-rule="nonzero" clip-path="url(#9fc012b167)"><path style=" stroke:none;fill-rule:nonzero;fill:#34b4cb;fill-opacity:1;" d="M 676.113281 404.804688 C 676.113281 554.542969 554.722656 675.933594 404.984375 675.933594 C 255.253906 675.933594 133.863281 554.542969 133.863281 404.804688 C 133.863281 255.066406 255.253906 133.683594 404.984375 133.683594 C 554.722656 133.683594 676.113281 255.066406 676.113281 404.804688 "/></g><path style=" stroke:none;fill-rule:nonzero;fill:#ffffff;fill-opacity:1;" d="M 421.34375 421.089844 C 392.761719 449.675781 346.414062 449.675781 317.832031 421.089844 C 289.367188 392.625 289.367188 346.28125 317.914062 317.652344 C 346.453125 289.1875 392.722656 289.1875 421.226562 317.6875 C 449.855469 346.316406 449.855469 392.589844 421.34375 421.089844 Z M 283.445312 283.183594 C 235.832031 330.878906 235.832031 408.027344 283.363281 455.558594 C 325.058594 497.25 389.40625 502.457031 436.78125 471.03125 L 527.78125 562.035156 L 562.25 527.566406 L 471.285156 436.527344 C 502.597656 389.351562 497.421875 324.957031 455.730469 283.183594 C 408.199219 235.734375 331.023438 235.699219 283.445312 283.183594 "/></g></svg>