<svg xmlns="http://www.w3.org/2000/svg" xmlns:xlink="http://www.w3.org/1999/xlink" width="1080" zoomAndPan="magnify" viewBox="0 0 810 809.999993" height="1080" preserveAspectRatio="xMidYMid meet" version="1.2"><defs><clipPath id="0ab09e35f0"><path d="M 48.117188 81 L 762 81 L 762 728.640625 L 48.117188 728.640625 Z M 48.117188 81 "/></clipPath><clipPath id="12ce47f302"><path d="M 123.117188 81 L 686.882812 81 C 728.304688 81 761.882812 114.578125 761.882812 156 L 761.882812 653.640625 C 761.882812 695.0625 728.304688 728.640625 686.882812 728.640625 L 123.117188 728.640625 C 81.695312 728.640625 48.117188 695.0625 48.117188 653.640625 L 48.117188 156 C 48.117188 114.578125 81.695312 81 123.117188 81 Z M 123.117188 81 "/></clipPath><clipPath id="c8ada56b45"><path d="M 113 117.355469 L 687.753906 117.355469 L 687.753906 692 L 113 692 Z M 113 117.355469 "/></clipPath><clipPath id="e391652705"><path d="M 113.332031 404.800781 L 400.210938 117.921875 L 687.09375 404.800781 L 400.210938 691.679688 Z M 113.332031 404.800781 "/></clipPath><clipPath id="93b1480863"><path d="M 113.332031 404.800781 L 400.210938 117.921875 L 687.09375 404.800781 L 400.210938 691.679688 Z M 113.332031 404.800781 "/></clipPath><clipPath id="5c31d6d704"><path d="M 270.839844 275.332031 L 529.585938 275.332031 L 529.585938 534 L 270.839844 534 Z M 270.839844 275.332031 "/></clipPath><clipPath id="b73272605a"><path d="M 270.839844 275.332031 L 529.585938 275.332031 L 529.585938 341 L 270.839844 341 Z M 270.839844 275.332031 "/></clipPath><clipPath id="0aafb5bc6a"><path d="M 270.839844 275.332031 L 400 275.332031 L 400 534 L 270.839844 534 Z M 270.839844 275.332031 "/></clipPath><clipPath id="d6d0a70d59"><path d="M 270.839844 275.332031 L 400 275.332031 L 400 341 L 270.839844 341 Z M 270.839844 275.332031 "/></clipPath></defs><g id="b274d09d5b"><rect x="0" width="810" y="0" height="809.999993" style="fill:#ffffff;fill-opacity:1;stroke:none;"/><rect x="0" width="810" y="0" height="809.999993" style="fill:#c4e1e6;fill-opacity:1;stroke:none;"/><g clip-rule="nonzero" clip-path="url(#0ab09e35f0)"><g clip-rule="nonzero" clip-path="url(#12ce47f302)"><path style=" stroke:none;fill-rule:nonzero;fill:#ffffff;fill-opacity:1;" d="M 48.117188 81 L 761.535156 81 L 761.535156 728.640625 L 48.117188 728.640625 Z M 48.117188 81 "/></g></g><g clip-rule="nonzero" clip-path="url(#c8ada56b45)"><g clip-rule="nonzero" clip-path="url(#e391652705)"><g clip-rule="nonzero" clip-path="url(#93b1480863)"><path style=" stroke:none;fill-rule:nonzero;fill:#0164b4;fill-opacity:1;" d="M 400.3125 663.367188 L 658.875 404.804688 L 400.3125 146.246094 L 141.753906 404.804688 Z M 687.289062 404.804688 L 400.3125 691.78125 L 113.335938 404.804688 L 400.3125 117.828125 L 687.289062 404.804688 "/></g></g></g><g clip-rule="nonzero" clip-path="url(#5c31d6d704)"><path style=" stroke:none;fill-rule:nonzero;fill:#5e94ff;fill-opacity:1;" d="M 303.359375 274.734375 C 285.066406 274.734375 270.242188 289.558594 270.242188 307.851562 L 270.242188 500.53125 C 270.242188 518.820312 285.066406 533.648438 303.359375 533.648438 L 496.039062 533.648438 C 514.328125 533.648438 529.15625 518.820312 529.15625 500.53125 L 529.15625 307.851562 C 529.15625 289.558594 514.328125 274.734375 496.039062 274.734375 Z M 303.359375 274.734375 "/></g><g clip-rule="nonzero" clip-path="url(#b73272605a)"><path style=" stroke:none;fill-rule:nonzero;fill:#4dc4ff;fill-opacity:1;" d="M 303.359375 274.734375 C 285.066406 274.734375 270.242188 289.558594 270.242188 307.851562 L 270.242188 331.933594 C 270.242188 336.921875 274.285156 340.964844 279.269531 340.964844 L 520.125 340.964844 C 525.113281 340.964844 529.15625 336.921875 529.15625 331.933594 L 529.15625 307.851562 C 529.15625 289.558594 514.328125 274.734375 496.039062 274.734375 Z M 303.359375 274.734375 "/></g><g clip-rule="nonzero" clip-path="url(#0aafb5bc6a)"><path style=" stroke:none;fill-rule:evenodd;fill:#5485e5;fill-opacity:1;" d="M 399.699219 274.734375 L 399.699219 533.648438 L 303.359375 533.648438 C 285.066406 533.648438 270.242188 518.820312 270.242188 500.53125 L 270.242188 307.851562 C 270.242188 289.558594 285.066406 274.734375 303.359375 274.734375 Z M 399.699219 274.734375 "/></g><g clip-rule="nonzero" clip-path="url(#d6d0a70d59)"><path style=" stroke:none;fill-rule:evenodd;fill:#45b0e5;fill-opacity:1;" d="M 399.699219 274.734375 L 399.699219 340.964844 L 279.269531 340.964844 C 274.285156 340.964844 270.242188 336.921875 270.242188 331.933594 L 270.242188 307.851562 C 270.242188 289.558594 285.066406 274.734375 303.359375 274.734375 Z M 399.699219 274.734375 "/></g><path style=" stroke:none;fill-rule:evenodd;fill:#eceff1;fill-opacity:1;" d="M 408.730469 368.0625 C 408.730469 363.074219 412.773438 359.03125 417.761719 359.03125 L 483.996094 359.03125 C 488.984375 359.03125 493.027344 363.074219 493.027344 368.0625 C 493.027344 373.050781 488.984375 377.09375 483.996094 377.09375 L 426.792969 377.09375 L 426.792969 419.246094 L 483.996094 419.246094 C 488.984375 419.246094 493.027344 423.289062 493.027344 428.277344 L 493.027344 488.488281 C 493.027344 493.476562 488.984375 497.519531 483.996094 497.519531 L 417.761719 497.519531 C 412.773438 497.519531 408.730469 493.476562 408.730469 488.488281 C 408.730469 483.5 412.773438 479.457031 417.761719 479.457031 L 474.964844 479.457031 L 474.964844 437.308594 L 417.761719 437.308594 C 412.773438 437.308594 408.730469 433.261719 408.730469 428.277344 Z M 408.730469 368.0625 "/><path style=" stroke:none;fill-rule:evenodd;fill:#cfd8dc;fill-opacity:1;" d="M 294.324219 368.0625 C 294.324219 363.074219 298.367188 359.03125 303.359375 359.03125 L 387.65625 359.03125 C 392.644531 359.03125 396.6875 363.074219 396.6875 368.0625 C 396.6875 373.050781 392.644531 377.09375 387.65625 377.09375 L 354.539062 377.09375 L 354.539062 488.488281 C 354.539062 493.476562 350.496094 497.519531 345.507812 497.519531 C 340.519531 497.519531 336.472656 493.476562 336.472656 488.488281 L 336.472656 377.09375 L 303.359375 377.09375 C 298.367188 377.09375 294.324219 373.050781 294.324219 368.0625 Z M 294.324219 368.0625 "/></g></svg>